<?xml version="1.0" encoding="utf-8"?>
<!-- Generator: Adobe Illustrator 22.0.1, SVG Export Plug-In . SVG Version: 6.00 Build 0)  -->
<svg version="1.1" id="Capa_1" xmlns="http://www.w3.org/2000/svg" xmlns:xlink="http://www.w3.org/1999/xlink" x="0px" y="0px"
	 viewBox="0 0 174 174" style="enable-background:new 0 0 174 174;" xml:space="preserve">
<style type="text/css">
	.st0{fill:#DFE2E4;}
	.st1{fill:url(#SVGID_1_);}
	.st2{fill:#FFFFFF;}
	.st3{fill:#8CC63F;}
	.st4{fill:#FBB03B;}
	.st5{fill:#808080;}
	.st6{fill:#CCCCCC;}
	.st7{fill:#10181B;}
</style>
<g>
	<g>
		<path class="st0" d="M168.6,81.8c4.7,27.4-8.4,65.3-72,73.4c-39.7,5.1-87.9-12.5-83.2-62.3C17.3,50.9,32.7,3.2,74.8,3
			C102.3,2.9,161.4,40.2,168.6,81.8z"/>
		<linearGradient id="SVGID_1_" gradientUnits="userSpaceOnUse" x1="40.0394" y1="133.5477" x2="143.7413" y2="29.8458">
			<stop  offset="0" style="stop-color:#008EFF"/>
			<stop  offset="0.6173" style="stop-color:#00ADFF"/>
			<stop  offset="1" style="stop-color:#00BBFF"/>
		</linearGradient>
		<path class="st1" d="M6.2,89.8c-8.1-30,13-73,77.7-79.3c20.8-2,47.1,5.5,61.6,21.2c13.6,14.7,16.1,36.9,16.1,58.2
			c0,43.8-36.5,91.2-77.7,79.3c-12.4-3.6-24.1-18-39.9-33.1C30,122.6,11.5,109.6,6.2,89.8z"/>
	</g>
	<g>
		<g>
			<polygon class="st2" points="114,122 56,122 56,49 103.6,49 114,58.9 			"/>
			<rect x="112" y="76" class="st3" width="10" height="7"/>
			<rect x="50" y="108" class="st4" width="10" height="6"/>
			<path class="st4" d="M100,87H85V71h0c8.3,0,15,6.7,15,15V87z"/>
			<path class="st5" d="M122.3,123.7L122.3,123.7c-2.3,2.3-6.1,2.3-8.5,0l-8.9-8.9c-2.3-2.3-2.3-6.1,0-8.5l0,0
				c2.3-2.3,6.1-2.3,8.5,0l8.9,8.9C124.6,117.6,124.6,121.4,122.3,123.7z"/>
			<path class="st6" d="M106.6,104.6l-3.9-4.6c2.7-3.6,4.3-8.2,4.3-13c0-12.2-9.8-22-22-22s-22,9.8-22,22s9.8,22,22,22
				c5.1,0,9.7-1.7,13.4-4.6l4.2,4.2L106.6,104.6z M85,102c-8.6,0-15.5-6.9-15.5-15.5S76.4,71,85,71s15.5,6.9,15.5,15.5
				S93.6,102,85,102z"/>
			<g>
				<path class="st7" d="M55.8,76.6c0.9,0,1.6-0.7,1.6-1.6v0c0-0.9-0.7-1.6-1.6-1.6c-0.9,0-1.6,0.7-1.6,1.6v0
					C54.2,75.9,54.9,76.6,55.8,76.6L55.8,76.6z M55.8,76.6"/>
				<path class="st7" d="M123.4,114.2l-8.4-8.4V85.1h7c0.9,0,1.6-0.7,1.6-1.6v-6.8c0-0.9-0.7-1.6-1.6-1.6h-7V58.6
					c0-0.4-0.2-0.8-0.5-1.1l-10.1-10.1c-0.3-0.3-0.7-0.5-1.1-0.5H58.7c-2.5,0-4.5,2-4.5,4.5v17.3c0,0.9,0.7,1.6,1.6,1.6
					c0.9,0,1.6-0.7,1.6-1.6V51.5c0-0.8,0.6-1.4,1.4-1.4h43v5.5c0,2.5,2,4.5,4.5,4.5h5.5v14.9h-0.2c-0.9,0-1.6,0.7-1.6,1.6v1.8h-3
					c-3.4-8.8-11.9-15.1-21.9-15.1c-12.9,0-23.4,10.5-23.4,23.4c0,8.5,4.6,16,11.3,20.1l-1.5,2.6h-9.6v-1.8c0-0.9-0.7-1.6-1.6-1.6
					h-3V81.3c0-0.9-0.7-1.6-1.6-1.6c-0.9,0-1.6,0.7-1.6,1.6v24.8H50c-0.9,0-1.6,0.7-1.6,1.6v6.8c0,0.9,0.7,1.6,1.6,1.6h4.2v2.6
					c0,2.5,2,4.5,4.5,4.5h52.5l1.6,1.6c1.4,1.4,3.3,2.2,5.3,2.2c2,0,3.9-0.8,5.3-2.2C126.3,121.9,126.3,117.2,123.4,114.2
					L123.4,114.2z M120.4,78.3v3.7h-7.2v-3.7H120.4z M104.9,55.7v-3.3l4.7,4.7h-3.3C105.5,57.1,104.9,56.4,104.9,55.7L104.9,55.7z
					 M107.9,81.7h2.1v1.8c0,0.9,0.7,1.6,1.6,1.6h0.2v18.3c-0.9-0.4-2-0.6-3-0.6c-0.4,0-0.8,0-1.2,0.1l-3.1-2.9c2.5-3.7,4-8.2,4-13.1
					C108.5,85,108.3,83.3,107.9,81.7L107.9,81.7z M105.3,86.8c0,11.2-9.1,20.3-20.3,20.3c-2.7,0-5.3-0.5-7.7-1.5l1.6-2.8
					c1.9,0.7,3.9,1.1,6,1.1c9.4,0,17-7.6,17-17c0-1.8-0.3-3.5-0.8-5.1h3.4C105.1,83.3,105.3,85,105.3,86.8L105.3,86.8z M104.4,104.2
					c-0.3,0.2-0.6,0.5-0.9,0.8c-0.4,0.4-0.8,0.9-1.1,1.4l-2-1.9c0.7-0.6,1.4-1.3,2.1-2.1L104.4,104.2z M85.1,88.4h13.8
					c-0.8,6.9-6.7,12.3-13.8,12.3c-1.5,0-3-0.3-4.4-0.7l3.9-6.7c0.4-0.8,0.2-1.7-0.6-2.2c-0.8-0.4-1.7-0.2-2.2,0.6l-4,6.9
					c-4-2.4-6.6-6.8-6.6-11.8c0-7.1,5.4-13,12.3-13.8v13.8C83.5,87.7,84.2,88.4,85.1,88.4L85.1,88.4z M92.4,81.7H98
					c0.4,1.1,0.8,2.3,0.9,3.6H86.6V73c3.9,0.4,7.3,2.5,9.5,5.5h-3.8c-0.9,0-1.6,0.7-1.6,1.6C90.8,81,91.5,81.7,92.4,81.7L92.4,81.7z
					 M64.8,86.8c0-11.2,9.1-20.3,20.3-20.3c8.2,0,15.3,4.9,18.5,12h-3.6c-2.9-5.2-8.5-8.7-14.9-8.7c-9.4,0-17,7.6-17,17
					c0,6.1,3.3,11.5,8.2,14.5l-1.6,2.8C68.7,100.6,64.8,94.2,64.8,86.8L64.8,86.8z M51.6,112.9v-3.7h7.2v3.7H51.6z M58.7,120.1
					c-0.8,0-1.4-0.6-1.4-1.4v-2.6h3c0.9,0,1.6-0.7,1.6-1.6v-1.8h10.5c0.6,0,1.1-0.3,1.4-0.8l2.1-3.6c2.8,1.2,6,1.9,9.3,1.9
					c4.7,0,9.1-1.4,12.8-3.8l3.5,3.3c-0.1,2.1,0.6,4.2,2.2,5.8l4.6,4.6H58.7z M121.2,122.6c-0.8,0.8-1.9,1.3-3.1,1.3
					c-1.2,0-2.2-0.4-3.1-1.3l-9.3-9.3c-1-1-1.4-2.5-1.2-3.8c0,0,0-0.1,0-0.1c0.2-0.8,0.6-1.5,1.2-2.2c0.8-0.8,1.9-1.3,3.1-1.3
					c1.2,0,2.2,0.4,3.1,1.3l9.3,9.3C122.9,118.2,122.9,120.9,121.2,122.6L121.2,122.6z M121.2,122.6"/>
			</g>
		</g>
	</g>
</g>
</svg>
