<?xml version="1.0" encoding="utf-8"?>
<!-- Generator: Adobe Illustrator 22.0.1, SVG Export Plug-In . SVG Version: 6.00 Build 0)  -->
<svg version="1.1" id="Capa_1" xmlns="http://www.w3.org/2000/svg" xmlns:xlink="http://www.w3.org/1999/xlink" x="0px" y="0px"
	 viewBox="0 0 120 120" style="enable-background:new 0 0 120 120;" xml:space="preserve">
<style type="text/css">
	.st0{fill:#DEE0E2;}
	.st1{fill:url(#SVGID_1_);}
	.st2{fill:#FFFFFF;}
	.st3{fill:#9DC44D;}
	.st4{fill:#E7AD47;}
	.st5{fill:#7F7F7F;}
	.st6{fill:#CACACA;}
	.st7{fill:#10181B;}
	.st8{fill:url(#SVGID_2_);}
	.st9{fill:url(#SVGID_3_);}
	.st10{fill:#979797;}
	.st11{fill:url(#SVGID_4_);}
	.st12{fill:#B0B0B0;}
	.st13{fill:#997B55;}
	.st14{fill:#66A8DE;}
	.st15{fill:#D25A2C;}
	.st16{fill:url(#SVGID_5_);}
	.st17{fill:#CECECE;}
	.st18{fill:#363739;}
	.st19{fill:#75CFFA;}
	.st20{fill:#E06B80;}
	.st21{fill:#F3D66E;}
	.st22{fill:#7FDEDA;}
	.st23{fill:#4377EE;}
	.st24{fill:#C7EDFD;}
	.st25{fill:#6FB353;}
	.st26{fill:#EBB32A;}
	.st27{fill:#5A5A5A;}
	.st28{fill:#838383;}
	.st29{fill:#ACACAC;}
	.st30{fill:#DC435F;}
	.st31{fill:#5FA6AE;}
	.st32{fill:#5494FB;}
	.st33{fill:#E4E4E4;}
	.st34{fill:#C2F038;}
	.st35{fill:#67B5E8;}
	.st36{fill:#A8DFF7;}
	.st37{fill:#CB2228;}
	.st38{fill:#CA5144;}
	.st39{fill:#9FD332;}
	.st40{fill:#E8EAEC;}
	.st41{fill:#F2F5F7;}
	.st42{fill:#10171B;}
	.st43{fill:#EDBCBE;}
	.st44{fill:#4E4E4E;}
	.st45{fill:#EEBE85;}
	.st46{fill:#F1F1F1;}
	.st47{opacity:0.75;fill:#F2F5F7;}
	.st48{fill:#DE912F;}
	.st49{fill:#F3D570;}
	.st50{fill:#CACFD7;}
	.st51{fill:#6CBFE7;}
	.st52{fill:#78D4F1;}
	.st53{fill:#DDDDDD;}
	.st54{fill:#69B9FC;}
	.st55{fill:#647890;}
	.st56{fill:#F7EC41;}
	.st57{fill:#EFC52E;}
	.st58{fill:url(#SVGID_6_);}
	.st59{opacity:0.25;fill:url(#SVGID_7_);}
	.st60{opacity:0.2;fill:url(#SVGID_8_);}
	.st61{opacity:0.2;}
	.st62{opacity:0;}
	.st63{opacity:9.090909e-02;}
	.st64{opacity:0.1818;}
	.st65{opacity:0.2727;}
	.st66{opacity:0.3636;}
	.st67{opacity:0.4545;}
	.st68{opacity:0.5455;}
	.st69{opacity:0.6364;}
	.st70{opacity:0.7273;}
	.st71{opacity:0.8182;}
	.st72{opacity:0.9091;}
	.st73{fill:url(#SVGID_9_);}
	.st74{fill:none;stroke:#000000;stroke-width:2;stroke-miterlimit:10;}
	.st75{fill:url(#SVGID_10_);}
	.st76{opacity:0.8182;fill:url(#SVGID_11_);}
	.st77{fill:url(#SVGID_12_);}
	.st78{opacity:0.5;fill:url(#SVGID_13_);}
	.st79{fill:none;stroke:#10171B;stroke-width:2;stroke-miterlimit:10;}
	.st80{fill:url(#SVGID_14_);}
	.st81{fill:url(#SVGID_15_);}
	.st82{fill:url(#SVGID_16_);}
	.st83{fill:url(#SVGID_17_);}
	.st84{fill:url(#SVGID_18_);}
	.st85{fill:url(#SVGID_19_);}
	.st86{fill:url(#SVGID_20_);}
	.st87{opacity:0.25;fill:url(#SVGID_21_);}
	.st88{fill:url(#SVGID_22_);}
	.st89{fill:url(#SVGID_23_);}
	.st90{fill:url(#SVGID_24_);}
	.st91{opacity:0.9;}
	.st92{fill:url(#SVGID_25_);}
	.st93{fill:url(#SVGID_26_);}
	.st94{fill:url(#SVGID_27_);}
	.st95{fill:none;stroke:#10171B;stroke-width:2;stroke-linecap:round;stroke-linejoin:round;stroke-miterlimit:10;}
	.st96{fill:url(#SVGID_28_);}
	.st97{fill:url(#SVGID_29_);}
	.st98{fill:url(#SVGID_30_);}
	.st99{fill:url(#SVGID_31_);}
	.st100{fill:url(#SVGID_32_);}
	.st101{fill:url(#SVGID_33_);}
	.st102{opacity:0.2;fill:url(#SVGID_34_);}
	.st103{fill:url(#SVGID_35_);}
	.st104{fill:url(#SVGID_36_);}
	.st105{fill:url(#SVGID_37_);}
	.st106{fill:url(#SVGID_38_);}
	.st107{fill:url(#SVGID_39_);}
	.st108{fill:#E5E5E6;}
	.st109{fill:url(#SVGID_40_);}
	.st110{fill:url(#SVGID_41_);}
	.st111{opacity:0.5;}
	.st112{fill:#871FA5;}
	.st113{fill:url(#SVGID_42_);}
	.st114{fill:url(#SVGID_43_);}
	.st115{fill:url(#SVGID_44_);}
	.st116{fill:url(#SVGID_45_);}
	.st117{fill:url(#SVGID_46_);}
	.st118{fill:url(#SVGID_47_);}
	.st119{fill:url(#SVGID_48_);}
	.st120{fill:url(#SVGID_49_);}
	.st121{fill:url(#SVGID_50_);}
	.st122{fill:url(#SVGID_51_);}
	.st123{fill:url(#SVGID_52_);}
	.st124{fill:url(#SVGID_53_);}
	.st125{fill:url(#SVGID_54_);}
	.st126{fill:url(#SVGID_55_);}
	.st127{fill:url(#SVGID_56_);}
	.st128{fill:url(#SVGID_57_);}
	.st129{fill:url(#SVGID_58_);}
	.st130{fill:url(#SVGID_59_);}
	.st131{fill:url(#SVGID_60_);}
	.st132{fill:url(#SVGID_61_);}
	.st133{fill:url(#SVGID_62_);}
	.st134{fill:#4479E6;}
	.st135{fill:url(#SVGID_63_);}
	.st136{fill:url(#SVGID_64_);}
	.st137{fill:url(#SVGID_65_);}
	.st138{fill:url(#SVGID_66_);}
	.st139{fill:url(#SVGID_67_);}
	.st140{fill:url(#SVGID_68_);}
	.st141{fill:url(#SVGID_69_);}
	.st142{fill:url(#SVGID_70_);}
	.st143{fill:url(#SVGID_71_);}
	.st144{fill:url(#SVGID_72_);}
	.st145{fill:url(#SVGID_73_);}
	.st146{opacity:0.5;fill:url(#SVGID_74_);}
	.st147{fill:url(#SVGID_75_);}
	.st148{fill:url(#SVGID_76_);}
	.st149{fill:url(#SVGID_77_);}
	.st150{opacity:0.5;fill:url(#SVGID_78_);}
	.st151{fill:url(#SVGID_79_);}
	.st152{fill:url(#SVGID_80_);}
	.st153{fill:url(#SVGID_81_);}
	.st154{opacity:0.5;fill:url(#SVGID_82_);}
	.st155{fill:url(#SVGID_83_);}
	.st156{fill:url(#SVGID_84_);}
	.st157{fill:#4070B7;}
	.st158{fill:#508CFA;}
	.st159{fill:#5E29D0;}
	.st160{fill:#3C6BBA;}
	.st161{fill:#29497D;}
	.st162{fill:url(#SVGID_85_);}
	.st163{opacity:0.6;fill:url(#SVGID_86_);}
	.st164{opacity:0.5;fill:url(#SVGID_87_);}
	.st165{opacity:0.5;fill:url(#SVGID_88_);}
	.st166{fill:url(#SVGID_89_);}
	.st167{opacity:0.5;fill:url(#SVGID_90_);}
	.st168{opacity:0.8;fill:url(#SVGID_91_);}
	.st169{fill:url(#SVGID_92_);}
	.st170{fill:url(#SVGID_93_);}
	.st171{fill:url(#SVGID_94_);}
	.st172{fill:url(#SVGID_95_);}
	.st173{fill:url(#SVGID_96_);}
	.st174{fill:url(#SVGID_97_);}
	.st175{fill:url(#SVGID_98_);}
	.st176{fill:url(#SVGID_99_);}
	.st177{fill:url(#SVGID_100_);}
	.st178{fill:url(#SVGID_101_);}
	.st179{fill:url(#SVGID_102_);}
	.st180{fill:url(#SVGID_103_);}
	.st181{fill:url(#SVGID_104_);}
</style>
<g>
	<rect x="46.3" y="96.8" class="st27" width="27.3" height="8.2"/>
	<path class="st24" d="M103.7,96.8H16.2c-2.8,0-5-2.2-5-5V20.5c0-2.8,2.2-5,5-5h87.5c2.8,0,5,2.2,5,5v71.2
		C108.7,94.5,106.5,96.8,103.7,96.8L103.7,96.8z M103.7,96.8"/>
	<path class="st28" d="M108.7,84.7H11.2v7.1c0,2.8,2.2,5,5,5h87.5c2.8,0,5-2.2,5-5V84.7z M108.7,84.7"/>
	<path class="st29" d="M108.8,32.6H11.3V20.5c0-2.8,2.2-5,5-5h87.5c2.8,0,5,2.2,5,5V32.6z M108.8,32.6"/>
	<path class="st20" d="M23.4,24c0,1.6-1.3,2.8-2.8,2.8c-1.6,0-2.8-1.3-2.8-2.8c0-1.6,1.3-2.8,2.8-2.8C22.1,21.2,23.4,22.5,23.4,24
		L23.4,24z M23.4,24"/>
	<path class="st21" d="M34.4,24c0,1.6-1.3,2.8-2.8,2.8c-1.6,0-2.8-1.3-2.8-2.8c0-1.6,1.3-2.8,2.8-2.8C33.1,21.2,34.4,22.5,34.4,24
		L34.4,24z M34.4,24"/>
	<path class="st22" d="M45.4,24c0,1.6-1.3,2.8-2.8,2.8c-1.6,0-2.8-1.3-2.8-2.8c0-1.6,1.3-2.8,2.8-2.8C44.1,21.2,45.4,22.5,45.4,24
		L45.4,24z M45.4,24"/>
	<path class="st28" d="M82.4,113h-45c-0.5,0-1-0.4-1-1v-3.2c0-2.2,1.7-3.9,3.9-3.9h39.1c2.2,0,3.9,1.7,3.9,3.9v3.2
		C83.4,112.6,83,113,82.4,113L82.4,113z M82.4,113"/>
	<path class="st21" d="M101,79.3H88.3v-22c0-0.6,0.5-1.1,1.1-1.1h10.4c0.6,0,1.1,0.5,1.1,1.1V79.3z M101,79.3"/>
	<path class="st32" d="M48.1,79.3H35.4V65.1c0-0.6,0.5-1.1,1.1-1.1H47c0.6,0,1.1,0.5,1.1,1.1V79.3z M48.1,79.3"/>
	<path class="st22" d="M65.7,79.3H53V51.9c0-0.6,0.5-1.1,1.1-1.1h10.4c0.6,0,1.1,0.5,1.1,1.1L65.7,79.3L65.7,79.3z M65.7,79.3"/>
	<path class="st20" d="M83.3,79.3H70.7V40.4c0-0.6,0.5-1.1,1.1-1.1h10.4c0.6,0,1.1,0.5,1.1,1.1L83.3,79.3L83.3,79.3z M83.3,79.3"/>
	<path class="st7" d="M20.6,19.7c-2.4,0-4.3,1.9-4.3,4.3c0,2.4,1.9,4.3,4.3,4.3c2.4,0,4.3-1.9,4.3-4.3C24.9,21.6,23,19.7,20.6,19.7
		L20.6,19.7z M20.6,25.4c-0.8,0-1.4-0.6-1.4-1.4c0-0.8,0.6-1.4,1.4-1.4c0.8,0,1.4,0.6,1.4,1.4C22,24.8,21.3,25.4,20.6,25.4
		L20.6,25.4z M20.6,25.4"/>
	<path class="st7" d="M31.6,19.7c-2.4,0-4.3,1.9-4.3,4.3c0,2.4,1.9,4.3,4.3,4.3s4.3-1.9,4.3-4.3C35.9,21.6,34,19.7,31.6,19.7
		L31.6,19.7z M31.6,25.4c-0.8,0-1.4-0.6-1.4-1.4c0-0.8,0.6-1.4,1.4-1.4c0.8,0,1.4,0.6,1.4,1.4C32.9,24.8,32.3,25.4,31.6,25.4
		L31.6,25.4z M31.6,25.4"/>
	<path class="st7" d="M42.6,19.7c-2.4,0-4.3,1.9-4.3,4.3c0,2.4,1.9,4.3,4.3,4.3c2.4,0,4.3-1.9,4.3-4.3
		C46.9,21.6,44.9,19.7,42.6,19.7L42.6,19.7z M42.6,25.4c-0.8,0-1.4-0.6-1.4-1.4c0-0.8,0.6-1.4,1.4-1.4c0.8,0,1.4,0.6,1.4,1.4
		C43.9,24.8,43.3,25.4,42.6,25.4L42.6,25.4z M42.6,25.4"/>
	<path class="st7" d="M103.8,14.1H16.2c-3.6,0-6.5,2.9-6.5,6.5v71.2c0,3.2,2.4,5.9,5.5,6.4c0.3,0,0.7,0.1,1,0.1h28.6v5.3h-4.4
		c-3,0-5.4,2.4-5.4,5.4v3.2c0,1.4,1.1,2.5,2.5,2.5h24.8c0.8,0,1.5-0.7,1.5-1.5c0-0.8-0.7-1.5-1.5-1.5H38v-2.7c0-1.3,1.1-2.4,2.4-2.4
		h39.1c1.3,0,2.4,1.1,2.4,2.4v2.7H71.4c-0.8,0-1.5,0.7-1.5,1.5c0,0.8,0.7,1.5,1.5,1.5h11c1.4,0,2.5-1.1,2.5-2.5v-3.2
		c0-3-2.4-5.4-5.4-5.4h-4.4v-5.3h28.6c0.3,0,0.7,0,1-0.1c3.1-0.5,5.5-3.2,5.5-6.4v-7.1l0.1-64.2C110.3,17,107.4,14.1,103.8,14.1
		L103.8,14.1z M72.1,103.5H47.8v-5.3h24.3V103.5z M107.2,91.7c0,1.8-1.4,3.3-3.2,3.5c-0.1,0-0.2,0-0.4,0H16.2c-0.1,0-0.2,0-0.4,0
		c-1.8-0.2-3.2-1.7-3.2-3.5v-5.6h94.6V91.7z M107.2,83.2H12.7V34.1h94.6V83.2z M107.2,31.1H12.8V20.5c0-1.9,1.6-3.5,3.5-3.5h87.4
		c1.9,0,3.5,1.6,3.5,3.5V31.1z M107.2,31.1"/>
	<path class="st7" d="M17.8,40.9h3.9c0.8,0,1.5-0.7,1.5-1.5c0-0.8-0.7-1.5-1.5-1.5h-3.9c-0.8,0-1.5,0.7-1.5,1.5
		C16.3,40.3,16.9,40.9,17.8,40.9L17.8,40.9z M17.8,40.9"/>
	<path class="st7" d="M26.6,40.9h23.9c0.8,0,1.5-0.7,1.5-1.5c0-0.8-0.7-1.5-1.5-1.5H26.6c-0.8,0-1.5,0.7-1.5,1.5
		C25.2,40.3,25.8,40.9,26.6,40.9L26.6,40.9z M26.6,40.9"/>
	<path class="st7" d="M48.8,47.4c0.8,0,1.5-0.7,1.5-1.5c0-0.8-0.7-1.5-1.5-1.5h-9.7c-0.8,0-1.5,0.7-1.5,1.5c0,0.8,0.7,1.5,1.5,1.5
		H48.8z M48.8,47.4"/>
	<path class="st7" d="M35.9,45.9c0-0.8-0.7-1.5-1.5-1.5h-3.3c-0.8,0-1.5,0.7-1.5,1.5c0,0.8,0.7,1.5,1.5,1.5h3.3
		C35.2,47.4,35.9,46.7,35.9,45.9L35.9,45.9z M35.9,45.9"/>
	<path class="st7" d="M17.8,47.4h8.1c0.8,0,1.5-0.7,1.5-1.5c0-0.8-0.7-1.5-1.5-1.5h-8.1c-0.8,0-1.5,0.7-1.5,1.5
		C16.3,46.7,16.9,47.4,17.8,47.4L17.8,47.4z M17.8,47.4"/>
	<path class="st7" d="M51.6,77.8h-2V65.1c0-1.4-1.2-2.6-2.6-2.6H36.5c-1.4,0-2.6,1.2-2.6,2.6v14.2c0,0.8,0.7,1.5,1.5,1.5H101
		c0.8,0,1.5-0.7,1.5-1.5v-22c0-1.4-1.2-2.6-2.6-2.6H89.4c-1.4,0-2.6,1.2-2.6,2.6v20.6h-2V54.5c0-0.8-0.7-1.5-1.5-1.5
		c-0.8,0-1.5,0.7-1.5,1.5v23.3h-9.7V40.7h9.7v4.7c0,0.8,0.7,1.5,1.5,1.5c0.8,0,1.5-0.7,1.5-1.5v-5.1c0-1.4-1.2-2.6-2.6-2.6H71.8
		c-1.4,0-2.6,1.2-2.6,2.6v37.4h-2V51.9c0-1.4-1.2-2.6-2.6-2.6H54.2c-1.4,0-2.6,1.2-2.6,2.6L51.6,77.8L51.6,77.8z M46.6,77.8h-9.7
		V65.5h9.7V77.8z M89.8,57.6h9.7v20.2h-9.7V57.6z M54.5,52.3h9.7v25.5h-9.7V52.3z M54.5,52.3"/>
</g>
</svg>
