<?xml version="1.0" encoding="utf-8"?>
<!-- Generator: Adobe Illustrator 22.0.1, SVG Export Plug-In . SVG Version: 6.00 Build 0)  -->
<svg version="1.1" id="Capa_1" xmlns="http://www.w3.org/2000/svg" xmlns:xlink="http://www.w3.org/1999/xlink" x="0px" y="0px"
	 viewBox="0 0 120 120" style="enable-background:new 0 0 120 120;" xml:space="preserve">
<style type="text/css">
	.st0{fill:#DEE0E2;}
	.st1{fill:url(#SVGID_1_);}
	.st2{fill:#FFFFFF;}
	.st3{fill:#9DC44D;}
	.st4{fill:#E7AD47;}
	.st5{fill:#7F7F7F;}
	.st6{fill:#CACACA;}
	.st7{fill:#10181B;}
	.st8{fill:url(#SVGID_2_);}
	.st9{fill:url(#SVGID_3_);}
	.st10{fill:#979797;}
	.st11{fill:url(#SVGID_4_);}
	.st12{fill:#B0B0B0;}
	.st13{fill:#997B55;}
	.st14{fill:#66A8DE;}
	.st15{fill:#D25A2C;}
	.st16{fill:url(#SVGID_5_);}
	.st17{fill:#CECECE;}
	.st18{fill:#363739;}
	.st19{fill:#75CFFA;}
	.st20{fill:#E06B80;}
	.st21{fill:#F3D66E;}
	.st22{fill:#7FDEDA;}
	.st23{fill:#4377EE;}
	.st24{fill:#C7EDFD;}
	.st25{fill:#6FB353;}
	.st26{fill:#EBB32A;}
	.st27{fill:#5A5A5A;}
	.st28{fill:#838383;}
	.st29{fill:#ACACAC;}
	.st30{fill:#DC435F;}
	.st31{fill:#5FA6AE;}
	.st32{fill:#5494FB;}
	.st33{fill:#E4E4E4;}
	.st34{fill:#C2F038;}
	.st35{fill:#67B5E8;}
	.st36{fill:#A8DFF7;}
	.st37{fill:#CB2228;}
	.st38{fill:#CA5144;}
	.st39{fill:#9FD332;}
	.st40{fill:#E8EAEC;}
	.st41{fill:#F2F5F7;}
	.st42{fill:#10171B;}
	.st43{fill:#EDBCBE;}
	.st44{fill:#4E4E4E;}
	.st45{fill:#EEBE85;}
	.st46{fill:#F1F1F1;}
	.st47{opacity:0.75;fill:#F2F5F7;}
	.st48{fill:#DE912F;}
	.st49{fill:#F3D570;}
	.st50{fill:#CACFD7;}
	.st51{fill:#6CBFE7;}
	.st52{fill:#78D4F1;}
	.st53{fill:#DDDDDD;}
	.st54{fill:#69B9FC;}
	.st55{fill:#647890;}
	.st56{fill:#F7EC41;}
	.st57{fill:#EFC52E;}
	.st58{fill:url(#SVGID_6_);}
	.st59{opacity:0.25;fill:url(#SVGID_7_);}
	.st60{opacity:0.2;fill:url(#SVGID_8_);}
	.st61{opacity:0.2;}
	.st62{opacity:0;}
	.st63{opacity:9.090909e-02;}
	.st64{opacity:0.1818;}
	.st65{opacity:0.2727;}
	.st66{opacity:0.3636;}
	.st67{opacity:0.4545;}
	.st68{opacity:0.5455;}
	.st69{opacity:0.6364;}
	.st70{opacity:0.7273;}
	.st71{opacity:0.8182;}
	.st72{opacity:0.9091;}
	.st73{fill:url(#SVGID_9_);}
	.st74{fill:none;stroke:#000000;stroke-width:2;stroke-miterlimit:10;}
	.st75{fill:url(#SVGID_10_);}
	.st76{opacity:0.8182;fill:url(#SVGID_11_);}
	.st77{fill:url(#SVGID_12_);}
	.st78{opacity:0.5;fill:url(#SVGID_13_);}
	.st79{fill:none;stroke:#10171B;stroke-width:2;stroke-miterlimit:10;}
	.st80{fill:url(#SVGID_14_);}
	.st81{fill:url(#SVGID_15_);}
	.st82{fill:url(#SVGID_16_);}
	.st83{fill:url(#SVGID_17_);}
	.st84{fill:url(#SVGID_18_);}
	.st85{fill:url(#SVGID_19_);}
	.st86{fill:url(#SVGID_20_);}
	.st87{opacity:0.25;fill:url(#SVGID_21_);}
	.st88{fill:url(#SVGID_22_);}
	.st89{fill:url(#SVGID_23_);}
	.st90{fill:url(#SVGID_24_);}
	.st91{opacity:0.9;}
	.st92{fill:url(#SVGID_25_);}
	.st93{fill:url(#SVGID_26_);}
	.st94{fill:url(#SVGID_27_);}
	.st95{fill:none;stroke:#10171B;stroke-width:2;stroke-linecap:round;stroke-linejoin:round;stroke-miterlimit:10;}
	.st96{fill:url(#SVGID_28_);}
	.st97{fill:url(#SVGID_29_);}
	.st98{fill:url(#SVGID_30_);}
	.st99{fill:url(#SVGID_31_);}
	.st100{fill:url(#SVGID_32_);}
	.st101{fill:url(#SVGID_33_);}
	.st102{opacity:0.2;fill:url(#SVGID_34_);}
	.st103{fill:url(#SVGID_35_);}
	.st104{fill:url(#SVGID_36_);}
	.st105{fill:url(#SVGID_37_);}
	.st106{fill:url(#SVGID_38_);}
	.st107{fill:url(#SVGID_39_);}
	.st108{fill:#E5E5E6;}
	.st109{fill:url(#SVGID_40_);}
	.st110{fill:url(#SVGID_41_);}
	.st111{opacity:0.5;}
	.st112{fill:#871FA5;}
	.st113{fill:url(#SVGID_42_);}
	.st114{fill:url(#SVGID_43_);}
	.st115{fill:url(#SVGID_44_);}
	.st116{fill:url(#SVGID_45_);}
	.st117{fill:url(#SVGID_46_);}
	.st118{fill:url(#SVGID_47_);}
	.st119{fill:url(#SVGID_48_);}
	.st120{fill:url(#SVGID_49_);}
	.st121{fill:url(#SVGID_50_);}
	.st122{fill:url(#SVGID_51_);}
	.st123{fill:url(#SVGID_52_);}
	.st124{fill:url(#SVGID_53_);}
	.st125{fill:url(#SVGID_54_);}
	.st126{fill:url(#SVGID_55_);}
	.st127{fill:url(#SVGID_56_);}
	.st128{fill:url(#SVGID_57_);}
	.st129{fill:url(#SVGID_58_);}
	.st130{fill:url(#SVGID_59_);}
	.st131{fill:url(#SVGID_60_);}
	.st132{fill:url(#SVGID_61_);}
	.st133{fill:url(#SVGID_62_);}
	.st134{fill:#4479E6;}
	.st135{fill:url(#SVGID_63_);}
	.st136{fill:url(#SVGID_64_);}
	.st137{fill:url(#SVGID_65_);}
	.st138{fill:url(#SVGID_66_);}
	.st139{fill:url(#SVGID_67_);}
	.st140{fill:url(#SVGID_68_);}
	.st141{fill:url(#SVGID_69_);}
	.st142{fill:url(#SVGID_70_);}
	.st143{fill:url(#SVGID_71_);}
	.st144{fill:url(#SVGID_72_);}
	.st145{fill:url(#SVGID_73_);}
	.st146{opacity:0.5;fill:url(#SVGID_74_);}
	.st147{fill:url(#SVGID_75_);}
	.st148{fill:url(#SVGID_76_);}
	.st149{fill:url(#SVGID_77_);}
	.st150{opacity:0.5;fill:url(#SVGID_78_);}
	.st151{fill:url(#SVGID_79_);}
	.st152{fill:url(#SVGID_80_);}
	.st153{fill:url(#SVGID_81_);}
	.st154{opacity:0.5;fill:url(#SVGID_82_);}
	.st155{fill:url(#SVGID_83_);}
	.st156{fill:url(#SVGID_84_);}
	.st157{fill:#4070B7;}
	.st158{fill:#508CFA;}
	.st159{fill:#5E29D0;}
	.st160{fill:#3C6BBA;}
	.st161{fill:#29497D;}
	.st162{fill:url(#SVGID_85_);}
	.st163{opacity:0.6;fill:url(#SVGID_86_);}
	.st164{opacity:0.5;fill:url(#SVGID_87_);}
	.st165{opacity:0.5;fill:url(#SVGID_88_);}
	.st166{fill:url(#SVGID_89_);}
	.st167{opacity:0.5;fill:url(#SVGID_90_);}
	.st168{opacity:0.8;fill:url(#SVGID_91_);}
	.st169{fill:url(#SVGID_92_);}
	.st170{fill:url(#SVGID_93_);}
	.st171{fill:url(#SVGID_94_);}
	.st172{fill:url(#SVGID_95_);}
	.st173{fill:url(#SVGID_96_);}
	.st174{fill:url(#SVGID_97_);}
	.st175{fill:url(#SVGID_98_);}
	.st176{fill:url(#SVGID_99_);}
	.st177{fill:url(#SVGID_100_);}
	.st178{fill:url(#SVGID_101_);}
	.st179{fill:url(#SVGID_102_);}
	.st180{fill:url(#SVGID_103_);}
	.st181{fill:url(#SVGID_104_);}
</style>
<g>
	<g>
		<rect x="46.5" y="97.1" class="st27" width="26.8" height="8.1"/>
		<path class="st33" d="M102.9,97.1H17c-2.7,0-4.9-2.2-4.9-4.9v-70c0-2.7,2.2-4.9,4.9-4.9h86c2.7,0,4.9,2.2,4.9,4.9v70
			C107.8,94.9,105.6,97.1,102.9,97.1L102.9,97.1z M102.9,97.1"/>
		<path class="st28" d="M107.8,85.2H12v6.9c0,2.7,2.2,4.9,4.9,4.9h86c2.7,0,4.9-2.2,4.9-4.9V85.2z M107.8,85.2"/>
		<path class="st29" d="M108,34H12.2V22.2c0-2.7,2.2-4.9,4.9-4.9h86c2.7,0,4.9,2.2,4.9,4.9V34z M108,34"/>
		<path class="st20" d="M24.1,25.6c0,1.5-1.3,2.8-2.8,2.8s-2.8-1.3-2.8-2.8c0-1.5,1.3-2.8,2.8-2.8S24.1,24.1,24.1,25.6L24.1,25.6z
			 M24.1,25.6"/>
		<path class="st21" d="M34.9,25.6c0,1.5-1.3,2.8-2.8,2.8c-1.5,0-2.8-1.3-2.8-2.8c0-1.5,1.3-2.8,2.8-2.8
			C33.6,22.8,34.9,24.1,34.9,25.6L34.9,25.6z M34.9,25.6"/>
		<path class="st22" d="M45.7,25.6c0,1.5-1.3,2.8-2.8,2.8c-1.5,0-2.8-1.3-2.8-2.8c0-1.5,1.3-2.8,2.8-2.8
			C44.4,22.8,45.7,24.1,45.7,25.6L45.7,25.6z M45.7,25.6"/>
		<path class="st28" d="M82,113.1H37.9c-0.5,0-1-0.4-1-1V109c0-2.1,1.7-3.8,3.8-3.8h38.4c2.1,0,3.8,1.7,3.8,3.8v3.1
			C83,112.6,82.6,113.1,82,113.1L82,113.1z M82,113.1"/>
		<path class="st7" d="M21.3,21.4c-2.3,0-4.2,1.9-4.2,4.2c0,2.3,1.9,4.2,4.2,4.2c2.3,0,4.2-1.9,4.2-4.2
			C25.5,23.3,23.6,21.4,21.3,21.4L21.3,21.4z M21.3,27c-0.7,0-1.4-0.6-1.4-1.4c0-0.7,0.6-1.4,1.4-1.4c0.7,0,1.4,0.6,1.4,1.4
			C22.6,26.4,22,27,21.3,27L21.3,27z M21.3,27"/>
		<path class="st7" d="M32.1,21.4c-2.3,0-4.2,1.9-4.2,4.2c0,2.3,1.9,4.2,4.2,4.2c2.3,0,4.2-1.9,4.2-4.2
			C36.3,23.3,34.4,21.4,32.1,21.4L32.1,21.4z M32.1,27c-0.7,0-1.4-0.6-1.4-1.4c0-0.7,0.6-1.4,1.4-1.4c0.7,0,1.4,0.6,1.4,1.4
			C33.4,26.4,32.8,27,32.1,27L32.1,27z M32.1,27"/>
		<path class="st7" d="M42.9,21.4c-2.3,0-4.2,1.9-4.2,4.2c0,2.3,1.9,4.2,4.2,4.2c2.3,0,4.2-1.9,4.2-4.2
			C47.1,23.3,45.2,21.4,42.9,21.4L42.9,21.4z M42.9,27c-0.7,0-1.4-0.6-1.4-1.4c0-0.7,0.6-1.4,1.4-1.4c0.7,0,1.4,0.6,1.4,1.4
			C44.2,26.4,43.6,27,42.9,27L42.9,27z M42.9,27"/>
		<path class="st7" d="M103,15.8H17c-3.5,0-6.4,2.9-6.4,6.4v70c0,3.2,2.3,5.8,5.4,6.3c0.3,0,0.6,0.1,1,0.1h28.1v5.2h-4.4
			c-2.9,0-5.3,2.4-5.3,5.3v3.1c0,1.3,1.1,2.4,2.4,2.4h24.4c0.8,0,1.4-0.6,1.4-1.4c0-0.8-0.6-1.4-1.4-1.4H38.3V109
			c0-1.3,1.1-2.4,2.4-2.4h38.4c1.3,0,2.4,1.1,2.4,2.4v2.6H71.2c-0.8,0-1.4,0.6-1.4,1.4c0,0.8,0.6,1.4,1.4,1.4H82
			c1.3,0,2.4-1.1,2.4-2.4V109c0-2.9-2.4-5.3-5.3-5.3h-4.4v-5.2h28.1c0.3,0,0.7,0,1-0.1c3.1-0.5,5.4-3.1,5.4-6.3v-6.9l0.1-63
			C109.4,18.7,106.5,15.8,103,15.8L103,15.8z M71.9,103.7H48v-5.2h23.9V103.7z M106.4,92.1c0,1.8-1.4,3.3-3.1,3.5
			c-0.1,0-0.2,0-0.4,0H17c-0.1,0-0.2,0-0.4,0c-1.7-0.2-3.1-1.7-3.1-3.5v-5.5h92.9V92.1z M106.4,83.8H13.5V35.5h92.9V83.8z
			 M106.4,32.6H13.6V22.2c0-1.9,1.6-3.5,3.5-3.5h85.9c1.9,0,3.5,1.6,3.5,3.5V32.6z M106.4,32.6"/>
	</g>
	<g>
		<path class="st34" d="M81.9,53.7h17.5c1.6,0,2.9,1.3,2.9,2.9v17.5c0,1.6-1.3,2.9-2.9,2.9H81.9c-1.6,0-2.9-1.3-2.9-2.9V56.6
			C79,55,80.3,53.7,81.9,53.7L81.9,53.7z M81.9,53.7"/>
		<path class="st35" d="M95.1,65.4c0,2.4-2,4.4-4.4,4.4s-4.4-2-4.4-4.4s2-4.4,4.4-4.4S95.1,63,95.1,65.4L95.1,65.4z M95.1,65.4"/>
		<path class="st36" d="M93.6,63.9c0,0.8-0.7,1.5-1.5,1.5c-0.8,0-1.5-0.7-1.5-1.5c0-0.8,0.7-1.5,1.5-1.5
			C92.9,62.5,93.6,63.1,93.6,63.9L93.6,63.9z M93.6,63.9"/>
		<rect x="17.6" y="21.6" class="st2" width="17.5" height="23.4"/>
		<path class="st37" d="M64.4,18.6c0,6.5-5.2,11.7-11.7,11.7c-6.5,0-11.7-5.2-11.7-11.7S46.2,7,52.7,7C59.1,7,64.4,12.2,64.4,18.6
			L64.4,18.6z M64.4,18.6"/>
		<path class="st2" d="M49.8,23v-8.8l8.8,4.4L49.8,23z M49.8,23"/>
		<path class="st36" d="M81.9,8.4h17.5c1.6,0,2.9,1.3,2.9,2.9v17.5c0,1.6-1.3,2.9-2.9,2.9H81.9c-1.6,0-2.9-1.3-2.9-2.9V11.3
			C79,9.7,80.3,8.4,81.9,8.4L81.9,8.4z M81.9,8.4"/>
		<path class="st37" d="M41.1,67.1l5.1-2.9L52,74.3c0.8,1.4,0.3,3.2-1.1,4c-1.4,0.8-3.2,0.3-4-1.1L41.1,67.1z M41.1,67.1"/>
		<path class="st2" d="M72.1,59.3l-25,9.4L39.8,56l20.6-16.9L72.1,59.3z M72.1,59.3"/>
		<path class="st15" d="M33.5,59.7l6.3-3.7l7.3,12.7l-6.3,3.7c-2.1,1.2-4.8,0.5-6-1.6l-2.9-5.1C30.6,63.6,31.4,60.9,33.5,59.7
			L33.5,59.7z M33.5,59.7"/>
		<path class="st37" d="M29.3,67.1l2.5-1.5l2.9,5.1l-2.5,1.5c-1.4,0.8-3.2,0.3-4-1.1C27.4,69.7,27.9,67.9,29.3,67.1L29.3,67.1z
			 M29.3,67.1"/>
		<path class="st7" d="M92.1,15.7h2.9c0.8,0,1.5-0.7,1.5-1.5c0-0.8-0.7-1.5-1.5-1.5h-2.9c-2.4,0-4.4,2-4.4,4.4v1.5h-1.5
			c-0.8,0-1.5,0.7-1.5,1.5c0,0.8,0.7,1.5,1.5,1.5h1.5v4.4c0,0.8,0.7,1.5,1.5,1.5c0.8,0,1.5-0.7,1.5-1.5v-4.4h1.5
			c0.8,0,1.5-0.7,1.5-1.5c0-0.8-0.7-1.5-1.5-1.5h-1.5v-1.5C90.7,16.4,91.3,15.7,92.1,15.7L92.1,15.7z M92.1,15.7"/>
		<path class="st7" d="M99.4,7H81.9c-2.4,0-4.4,2-4.4,4.4v2.9c0,0.8,0.7,1.5,1.5,1.5s1.5-0.7,1.5-1.5v-2.9c0-0.8,0.7-1.5,1.5-1.5
			h17.5c0.8,0,1.5,0.7,1.5,1.5v17.5c0,0.8-0.7,1.5-1.5,1.5H81.9c-0.8,0-1.5-0.7-1.5-1.5v-8.8c0-0.8-0.7-1.5-1.5-1.5
			s-1.5,0.7-1.5,1.5v8.8c0,2.4,2,4.4,4.4,4.4h17.5c2.4,0,4.4-2,4.4-4.4V11.3C103.8,8.9,101.9,7,99.4,7L99.4,7z M99.4,7"/>
		<path class="st7" d="M84.8,65.4c0,2.4,1.4,4.5,3.6,5.4c2.2,0.9,4.7,0.4,6.4-1.3c1.7-1.7,2.2-4.2,1.3-6.4c-0.9-2.2-3-3.6-5.4-3.6
			C87.5,59.5,84.8,62.2,84.8,65.4L84.8,65.4z M93.6,65.4c0,1.2-0.7,2.2-1.8,2.7c-1.1,0.5-2.3,0.2-3.2-0.6c-0.8-0.8-1.1-2.1-0.6-3.2
			c0.5-1.1,1.5-1.8,2.7-1.8C92.3,62.5,93.6,63.8,93.6,65.4L93.6,65.4z M93.6,65.4"/>
		<path class="st7" d="M99.4,52.2H81.9c-2.4,0-4.4,2-4.4,4.4v17.5c0,2.4,2,4.4,4.4,4.4h17.5c2.4,0,4.4-2,4.4-4.4v-2.9
			c0-0.8-0.7-1.5-1.5-1.5s-1.5,0.7-1.5,1.5v2.9c0,0.8-0.7,1.5-1.5,1.5H81.9c-0.8,0-1.5-0.7-1.5-1.5V56.6c0-0.8,0.7-1.5,1.5-1.5h17.5
			c0.8,0,1.5,0.7,1.5,1.5v8.8c0,0.8,0.7,1.5,1.5,1.5s1.5-0.7,1.5-1.5v-8.8C103.8,54.2,101.9,52.2,99.4,52.2L99.4,52.2z M99.4,52.2"
			/>
		<g>
			<path class="st7" d="M49,24.3c0.2,0.1,0.5,0.2,0.8,0.2c0.2,0,0.5-0.1,0.7-0.2l8.8-4.4c0.5-0.3,0.8-0.8,0.8-1.3
				c0-0.5-0.3-1-0.8-1.3L50.4,13c-0.5-0.2-1-0.2-1.4,0.1c-0.4,0.3-0.7,0.7-0.7,1.2V23C48.3,23.5,48.6,24,49,24.3L49,24.3z
				 M51.2,16.6l4,2l-4,2V16.6z M51.2,16.6"/>
			<path class="st7" d="M52.7,31.8c5.3,0,10.1-3.2,12.1-8.1c2-4.9,0.9-10.6-2.9-14.3c-3.8-3.8-9.4-4.9-14.3-2.9
				c-4.9,2-8.1,6.8-8.1,12.1C39.5,25.9,45.4,31.8,52.7,31.8L52.7,31.8z M52.7,8.4c4.1,0,7.9,2.5,9.4,6.3c1.6,3.8,0.7,8.2-2.2,11.1
				c-2.9,2.9-7.3,3.8-11.1,2.2c-3.8-1.6-6.3-5.3-6.3-9.4C42.5,13,47,8.4,52.7,8.4L52.7,8.4z M52.7,8.4"/>
		</g>
		<path class="st7" d="M67.3,37.6c0.5,0,0.9-0.2,1.2-0.6l4.4-5.8c0.5-0.6,0.4-1.6-0.3-2c-0.6-0.5-1.6-0.4-2,0.3l-4.4,5.8
			c-0.5,0.6-0.4,1.6,0.3,2C66.7,37.5,67,37.6,67.3,37.6L67.3,37.6z M67.3,37.6"/>
		<path class="st7" d="M70.5,42.9c0.3,0.4,0.7,0.6,1.2,0.6c0.3,0,0.6-0.1,0.9-0.3l5.8-4.4c0.6-0.5,0.8-1.4,0.3-2
			c-0.5-0.6-1.4-0.8-2-0.3l-5.8,4.4C70.2,41.3,70,42.2,70.5,42.9L70.5,42.9z M70.5,42.9"/>
		<path class="st7" d="M84.8,46.1c-0.1-0.4-0.3-0.7-0.6-1c-0.3-0.2-0.7-0.3-1.1-0.2l-7.3,1.5c-0.8,0.1-1.4,0.8-1.3,1.6
			c0.1,0.8,0.8,1.4,1.6,1.3h0.3l7.3-1.5c0.4-0.1,0.7-0.3,1-0.6C84.8,46.9,84.9,46.5,84.8,46.1L84.8,46.1z M84.8,46.1"/>
		<path class="st7" d="M17.6,46.4h17.5c0.8,0,1.5-0.7,1.5-1.5V21.6c0-0.8-0.7-1.5-1.5-1.5H17.6c-0.8,0-1.5,0.7-1.5,1.5v23.4
			C16.2,45.7,16.8,46.4,17.6,46.4L17.6,46.4z M19.1,23h14.6v20.5H19.1V23z M19.1,23"/>
		<path class="st7" d="M29.3,25.9h-2.9c-0.8,0-1.5,0.7-1.5,1.5s0.7,1.5,1.5,1.5h2.9c0.8,0,1.5-0.7,1.5-1.5S30.1,25.9,29.3,25.9
			L29.3,25.9z M29.3,25.9"/>
		<path class="st7" d="M29.3,31.8h-5.8c-0.8,0-1.5,0.7-1.5,1.5c0,0.8,0.7,1.5,1.5,1.5h5.8c0.8,0,1.5-0.7,1.5-1.5
			C30.8,32.4,30.1,31.8,29.3,31.8L29.3,31.8z M29.3,31.8"/>
		<path class="st7" d="M29.3,37.6h-5.8c-0.8,0-1.5,0.7-1.5,1.5c0,0.8,0.7,1.5,1.5,1.5h5.8c0.8,0,1.5-0.7,1.5-1.5
			C30.8,38.3,30.1,37.6,29.3,37.6L29.3,37.6z M29.3,37.6"/>
		<path class="st7" d="M66,46c-0.4-0.7-1.3-0.9-2-0.5c-0.7,0.4-0.9,1.3-0.5,2l6.4,11.1l-23.4,8.8c0,0,0,0-0.1,0h-0.1l-3.8,2.2L40,71
			c-0.7,0.4-1.5,0.5-2.2,0.3c-0.7-0.2-1.4-0.7-1.8-1.4l-2.9-5.1c-0.7-1.4-0.2-3.1,1.1-3.9l5.1-2.9l3.7,6.3c0.3,0.5,0.7,0.7,1.3,0.7
			c0.5,0,1-0.3,1.3-0.7c0.3-0.5,0.3-1,0-1.5l-3.8-6.5L60,41.3l0.6,1c0.2,0.3,0.5,0.6,0.9,0.7c0.4,0.1,0.8,0,1.1-0.1
			c0.3-0.2,0.6-0.5,0.7-0.9c0.1-0.4,0-0.8-0.1-1.1l-1.5-2.5c-0.2-0.4-0.6-0.6-1-0.7c-0.4-0.1-0.9,0-1.2,0.3L39,54.8l-6.2,3.6
			c-2.3,1.3-3.4,4.1-2.7,6.6l-1.5,0.8c-1.5,0.9-2.4,2.6-2.2,4.4c0.2,1.8,1.5,3.2,3.2,3.7c0.4,0.1,0.8,0.1,1.1,0.1
			c0.8,0,1.5-0.2,2.2-0.6l1.5-0.8c0.7,0.7,1.6,1.2,2.6,1.5c0.5,0.1,1,0.2,1.5,0.2c1,0,2-0.3,2.9-0.8l1.3-0.7l2.9,5.1
			c1.2,2.1,3.9,2.8,6,1.6c1-0.6,1.7-1.5,2-2.7c0.3-1.1,0.1-2.3-0.4-3.3l-2.7-4.6l21.9-8.2c0.4-0.2,0.7-0.5,0.9-0.9
			c0.1-0.4,0.1-0.8-0.1-1.2L66,46z M31.5,70.9c-0.3,0.2-0.7,0.2-1.1,0.1c-0.4-0.1-0.7-0.3-0.9-0.7c-0.2-0.3-0.2-0.7-0.1-1.1
			c0.1-0.4,0.3-0.7,0.7-0.9l1.3-0.7l1.5,2.5L31.5,70.9z M50.7,75c0.2,0.3,0.2,0.7,0.1,1.1c-0.1,0.4-0.4,0.7-0.7,0.9
			c-0.7,0.4-1.6,0.2-2-0.5l-2.9-5.1l2.4-1.4h0.1L50.7,75z M50.7,75"/>
	</g>
</g>
</svg>
