<?xml version="1.0" encoding="utf-8"?>
<!-- Generator: Adobe Illustrator 22.0.1, SVG Export Plug-In . SVG Version: 6.00 Build 0)  -->
<svg version="1.1" id="Capa_1" xmlns="http://www.w3.org/2000/svg" xmlns:xlink="http://www.w3.org/1999/xlink" x="0px" y="0px"
	 viewBox="0 0 600.3 66.9" style="enable-background:new 0 0 600.3 66.9;" xml:space="preserve">
<style type="text/css">
	.st0{fill:#CACCCE;}
</style>
<g>
	<g>
		<rect x="-0.1" y="-0.4" class="st0" width="4" height="3"/>
	</g>
	<g>
		<path class="st0" d="M-0.1,8.8h4V15h-4V8.8z M-0.1,21.2h4v6.2h-4V21.2z"/>
	</g>
	<g>
		<polygon class="st0" points="-0.1,33.6 3.9,33.6 3.9,34.6 4.9,34.6 4.9,38.6 -0.1,38.6 		"/>
	</g>
	<g>
		<path class="st0" d="M10.8,34.6h6v4h-6V34.6z M22.7,34.6h6v4h-6V34.6z M34.7,34.6h6v4h-6V34.6z M46.6,34.6h6v4h-6V34.6z
			 M58.5,34.6h6v4h-6V34.6z M70.4,34.6h6v4h-6V34.6z M82.3,34.6h6v4h-6V34.6z M94.3,34.6h6v4h-6V34.6z M106.2,34.6h6v4h-6V34.6z
			 M118.1,34.6h6v4h-6V34.6z M130,34.6h6v4h-6V34.6z M141.9,34.6h6v4h-6V34.6z M153.9,34.6h6v4h-6V34.6z M165.8,34.6h6v4h-6V34.6z
			 M177.7,34.6h6v4h-6V34.6z M189.6,34.6h6v4h-6V34.6z M201.5,34.6h6v4h-6V34.6z M213.4,34.6h6v4h-6V34.6z M225.4,34.6h6v4h-6V34.6z
			 M237.3,34.6h6v4h-6V34.6z M249.2,34.6h6v4h-6V34.6z M261.1,34.6h6v4h-6V34.6z M273,34.6h6v4h-6V34.6z M285,34.6h6v4h-6V34.6z
			 M296.9,34.6h6v4h-6V34.6z M308.8,34.6h6v4h-6V34.6z M320.7,34.6h6v4h-6V34.6z M332.6,34.6h6v4h-6V34.6z M344.6,34.6h6v4h-6V34.6z
			 M356.5,34.6h6v4h-6V34.6z M368.4,34.6h6v4h-6V34.6z M380.3,34.6h6v4h-6V34.6z M392.2,34.6h6v4h-6V34.6z M404.2,34.6h6v4h-6V34.6z
			 M416.1,34.6h6v4h-6V34.6z M428,34.6h6v4h-6V34.6z M439.9,34.6h6v4h-6V34.6z M451.8,34.6h6v4h-6V34.6z M463.8,34.6h6v4h-6V34.6z
			 M475.7,34.6h6v4h-6V34.6z M487.6,34.6h6v4h-6V34.6z M499.5,34.6h6v4h-6V34.6z M511.4,34.6h6v4h-6V34.6z M523.3,34.6h6v4h-6V34.6z
			 M535.3,34.6h6v4h-6V34.6z M547.2,34.6h6v4h-6V34.6z M559.1,34.6h6v4h-6V34.6z M571,34.6h6v4h-6V34.6z M582.9,34.6h6v4h-6V34.6z"
			/>
	</g>
	<g>
		<polygon class="st0" points="595.9,33.6 599.9,33.6 599.9,38.6 594.9,38.6 594.9,34.6 595.9,34.6 		"/>
	</g>
	<g>
		<path class="st0" d="M595.9,8.8h4V15h-4V8.8z M595.9,21.2h4v6.2h-4V21.2z"/>
	</g>
	<g>
		<rect x="595.9" y="-0.4" class="st0" width="4" height="3"/>
	</g>
</g>
<g>
	<path class="st0" d="M297.9,36.6h4v6h-4V36.6z M297.9,48.6h4v6h-4V48.6z M297.9,60.6h4v6h-4V60.6z"/>
</g>
</svg>
