<?xml version="1.0" encoding="utf-8"?>
<!-- Generator: Adobe Illustrator 22.0.1, SVG Export Plug-In . SVG Version: 6.00 Build 0)  -->
<svg version="1.1" id="Capa_1" xmlns="http://www.w3.org/2000/svg" xmlns:xlink="http://www.w3.org/1999/xlink" x="0px" y="0px"
	 viewBox="0 0 220 220" style="enable-background:new 0 0 220 220;" xml:space="preserve">
<style type="text/css">
	.st0{fill:#DEE0E2;}
	.st1{fill:url(#SVGID_1_);}
	.st2{fill:#FFFFFF;}
	.st3{fill:#9DC44D;}
	.st4{fill:#E7AD47;}
	.st5{fill:#7F7F7F;}
	.st6{fill:#CACACA;}
	.st7{fill:#10181B;}
	.st8{fill:url(#SVGID_2_);}
	.st9{fill:url(#SVGID_3_);}
	.st10{fill:#979797;}
	.st11{fill:url(#SVGID_4_);}
	.st12{fill:#B0B0B0;}
	.st13{fill:#997B55;}
	.st14{fill:#66A8DE;}
	.st15{fill:#D25A2C;}
	.st16{fill:url(#SVGID_5_);}
	.st17{fill:#CECECE;}
	.st18{fill:#363739;}
	.st19{fill:#75CFFA;}
	.st20{fill:#E06B80;}
	.st21{fill:#F3D66E;}
	.st22{fill:#7FDEDA;}
	.st23{fill:#4377EE;}
	.st24{fill:#C7EDFD;}
	.st25{fill:#6FB353;}
	.st26{fill:#EBB32A;}
	.st27{fill:#5A5A5A;}
	.st28{fill:#838383;}
	.st29{fill:#ACACAC;}
	.st30{fill:#DC435F;}
	.st31{fill:#5FA6AE;}
	.st32{fill:#5494FB;}
	.st33{fill:#E4E4E4;}
	.st34{fill:#C2F038;}
	.st35{fill:#67B5E8;}
	.st36{fill:#A8DFF7;}
	.st37{fill:#CB2228;}
	.st38{fill:#CA5144;}
	.st39{fill:#9FD332;}
	.st40{fill:#E8EAEC;}
	.st41{fill:#F2F5F7;}
	.st42{fill:#10171B;}
	.st43{fill:#EDBCBE;}
	.st44{fill:#4E4E4E;}
	.st45{fill:#EEBE85;}
	.st46{fill:#F1F1F1;}
	.st47{opacity:0.75;fill:#F2F5F7;}
	.st48{fill:#DE912F;}
	.st49{fill:#F3D570;}
	.st50{fill:#CACFD7;}
	.st51{fill:#6CBFE7;}
	.st52{fill:#78D4F1;}
	.st53{fill:#DDDDDD;}
	.st54{fill:#69B9FC;}
	.st55{fill:#647890;}
	.st56{fill:#F7EC41;}
	.st57{fill:#EFC52E;}
	.st58{fill:url(#SVGID_6_);}
	.st59{opacity:0.25;fill:url(#SVGID_7_);}
	.st60{opacity:0.2;fill:url(#SVGID_8_);}
	.st61{opacity:0.2;}
	.st62{opacity:0;}
	.st63{opacity:9.090909e-02;}
	.st64{opacity:0.1818;}
	.st65{opacity:0.2727;}
	.st66{opacity:0.3636;}
	.st67{opacity:0.4545;}
	.st68{opacity:0.5455;}
	.st69{opacity:0.6364;}
	.st70{opacity:0.7273;}
	.st71{opacity:0.8182;}
	.st72{opacity:0.9091;}
	.st73{fill:url(#SVGID_9_);}
	.st74{fill:none;stroke:#000000;stroke-width:2;stroke-miterlimit:10;}
	.st75{fill:url(#SVGID_10_);}
	.st76{opacity:0.8182;fill:url(#SVGID_11_);}
	.st77{fill:url(#SVGID_12_);}
	.st78{opacity:0.5;fill:url(#SVGID_13_);}
	.st79{fill:none;stroke:#10171B;stroke-width:2;stroke-miterlimit:10;}
	.st80{fill:url(#SVGID_14_);}
	.st81{fill:url(#SVGID_15_);}
	.st82{fill:url(#SVGID_16_);}
	.st83{fill:url(#SVGID_17_);}
	.st84{fill:url(#SVGID_18_);}
	.st85{fill:url(#SVGID_19_);}
	.st86{fill:url(#SVGID_20_);}
	.st87{opacity:0.25;fill:url(#SVGID_21_);}
	.st88{fill:url(#SVGID_22_);}
	.st89{fill:url(#SVGID_23_);}
	.st90{fill:url(#SVGID_24_);}
	.st91{opacity:0.9;}
	.st92{fill:url(#SVGID_25_);}
	.st93{fill:url(#SVGID_26_);}
	.st94{fill:url(#SVGID_27_);}
	.st95{fill:none;stroke:#10171B;stroke-width:2;stroke-linecap:round;stroke-linejoin:round;stroke-miterlimit:10;}
	.st96{fill:url(#SVGID_28_);}
	.st97{fill:url(#SVGID_29_);}
	.st98{fill:url(#SVGID_30_);}
	.st99{fill:url(#SVGID_31_);}
	.st100{fill:url(#SVGID_32_);}
	.st101{fill:url(#SVGID_33_);}
	.st102{opacity:0.2;fill:url(#SVGID_34_);}
	.st103{fill:url(#SVGID_35_);}
	.st104{fill:url(#SVGID_36_);}
	.st105{fill:url(#SVGID_37_);}
	.st106{fill:url(#SVGID_38_);}
	.st107{fill:url(#SVGID_39_);}
	.st108{fill:#E5E5E6;}
	.st109{fill:url(#SVGID_40_);}
	.st110{fill:url(#SVGID_41_);}
	.st111{opacity:0.5;}
	.st112{fill:#871FA5;}
	.st113{fill:url(#SVGID_42_);}
	.st114{fill:url(#SVGID_43_);}
	.st115{fill:url(#SVGID_44_);}
	.st116{fill:url(#SVGID_45_);}
	.st117{fill:url(#SVGID_46_);}
	.st118{fill:url(#SVGID_47_);}
	.st119{fill:url(#SVGID_48_);}
	.st120{fill:url(#SVGID_49_);}
	.st121{fill:url(#SVGID_50_);}
	.st122{fill:url(#SVGID_51_);}
	.st123{fill:url(#SVGID_52_);}
	.st124{fill:url(#SVGID_53_);}
	.st125{fill:url(#SVGID_54_);}
	.st126{fill:url(#SVGID_55_);}
	.st127{fill:url(#SVGID_56_);}
	.st128{fill:url(#SVGID_57_);}
	.st129{fill:url(#SVGID_58_);}
	.st130{fill:url(#SVGID_59_);}
	.st131{fill:url(#SVGID_60_);}
	.st132{fill:url(#SVGID_61_);}
	.st133{fill:url(#SVGID_62_);}
	.st134{fill:#4479E6;}
	.st135{fill:url(#SVGID_63_);}
	.st136{fill:url(#SVGID_64_);}
	.st137{fill:url(#SVGID_65_);}
	.st138{fill:url(#SVGID_66_);}
	.st139{fill:url(#SVGID_67_);}
	.st140{fill:url(#SVGID_68_);}
	.st141{fill:url(#SVGID_69_);}
	.st142{fill:url(#SVGID_70_);}
	.st143{fill:url(#SVGID_71_);}
	.st144{fill:url(#SVGID_72_);}
	.st145{fill:url(#SVGID_73_);}
	.st146{opacity:0.5;fill:url(#SVGID_74_);}
	.st147{fill:url(#SVGID_75_);}
	.st148{fill:url(#SVGID_76_);}
	.st149{fill:url(#SVGID_77_);}
	.st150{opacity:0.5;fill:url(#SVGID_78_);}
	.st151{fill:url(#SVGID_79_);}
	.st152{fill:url(#SVGID_80_);}
	.st153{fill:url(#SVGID_81_);}
	.st154{opacity:0.5;fill:url(#SVGID_82_);}
	.st155{fill:url(#SVGID_83_);}
	.st156{fill:url(#SVGID_84_);}
	.st157{fill:#4070B7;}
	.st158{fill:#508CFA;}
	.st159{fill:#5E29D0;}
	.st160{fill:#3C6BBA;}
	.st161{fill:#29497D;}
	.st162{fill:url(#SVGID_85_);}
	.st163{opacity:0.6;fill:url(#SVGID_86_);}
	.st164{opacity:0.5;fill:url(#SVGID_87_);}
	.st165{opacity:0.5;fill:url(#SVGID_88_);}
	.st166{fill:url(#SVGID_89_);}
	.st167{opacity:0.5;fill:url(#SVGID_90_);}
	.st168{opacity:0.8;fill:url(#SVGID_91_);}
	.st169{fill:url(#SVGID_92_);}
	.st170{fill:url(#SVGID_93_);}
	.st171{fill:url(#SVGID_94_);}
	.st172{fill:url(#SVGID_95_);}
	.st173{fill:url(#SVGID_96_);}
	.st174{fill:url(#SVGID_97_);}
	.st175{fill:url(#SVGID_98_);}
	.st176{fill:url(#SVGID_99_);}
	.st177{fill:url(#SVGID_100_);}
	.st178{fill:url(#SVGID_101_);}
	.st179{fill:url(#SVGID_102_);}
	.st180{fill:url(#SVGID_103_);}
	.st181{fill:url(#SVGID_104_);}
</style>
<g>
	<g>
		<path class="st40" d="M216.5,103.2c6.2,35.7-11,85.2-94,95.9c-51.8,6.7-114.8-16.3-108.7-81.4C19,62.8,39.1,0.5,94.1,0.3
			C130,0.2,207.2,48.9,216.5,103.2z"/>
		<path class="st41" d="M4.5,113.7C-6,74.5,21.5,18.4,105.9,10.1c27.2-2.7,61.5,7.2,80.4,27.6c17.8,19.3,21,48.2,21,76
			c0,57.2-47.7,119.1-101.4,103.6c-16.3-4.7-21.6-37.2-42.2-56.9C45.5,142.9,11.5,139.6,4.5,113.7z"/>
	</g>
	<g>
		<g>
			<g>
				<g>
					<path class="st42" d="M132.8,152C97.6,152,69,123.4,69,88.2c0-2.3,1.6-4.3,3.8-4.8l13.9-3.2c2.3-0.5,4.7,0.7,5.7,2.9l6.4,15
						c0.9,2,0.3,4.4-1.4,5.8l-7,5.7c4.6,9.1,12,16.5,21,21l5.8-7c1.4-1.7,3.8-2.3,5.8-1.4l15,6.4c2.2,1,3.4,3.4,2.9,5.7l-3.2,13.9
						C137.1,150.4,135.1,152,132.8,152z M87.9,83.5c-0.1,0-0.2,0-0.3,0l-13.9,3.2c0,0,0,0,0,0c-0.7,0.2-1.1,0.7-1.1,1.4
						c0,33.3,27.1,60.3,60.3,60.3c0.7,0,1.3-0.5,1.4-1.1l3.2-13.9c0.2-0.7-0.2-1.4-0.9-1.7l-15-6.4c-0.6-0.3-1.3-0.1-1.7,0.4
						l-6.6,8.1c-0.5,0.6-1.4,0.8-2.1,0.5c-10.8-5.1-19.5-13.8-24.5-24.5c-0.3-0.7-0.1-1.6,0.5-2.1l8.1-6.6c0.5-0.4,0.7-1.1,0.4-1.7
						l-6.4-15C89,83.8,88.4,83.5,87.9,83.5z M73.2,85L73.2,85L73.2,85z"/>
				</g>
			</g>
		</g>
		<g>
			<g>
				<g>
					<path class="st10" d="M87.9,83.5c-0.1,0-0.2,0-0.3,0l-13.9,3.2c0,0,0,0,0,0c-0.7,0.2-1.1,0.7-1.1,1.4
						c0,33.3,27.1,60.3,60.3,60.3c0.7,0,1.3-0.5,1.4-1.1l3.2-13.9c0.2-0.7-0.2-1.4-0.9-1.7l-15-6.4c-0.6-0.3-1.3-0.1-1.7,0.4
						l-6.6,8.1c-0.5,0.6-1.4,0.8-2.1,0.5c-10.8-5.1-19.5-13.8-24.5-24.5c-0.3-0.7-0.1-1.6,0.5-2.1l8.1-6.6c0.5-0.4,0.7-1.1,0.4-1.7
						l-6.4-15C89,83.8,88.4,83.5,87.9,83.5z M73.2,85L73.2,85L73.2,85z"/>
				</g>
			</g>
		</g>
		<path class="st25" d="M128.7,70c-12.3,0-22.3,10-22.3,22.3v18.5c0,1.7,1.1,3.2,2.7,3.6c0.4,0.1,0.7,0.2,1.1,0.2
			c1.3,0,2.5-0.6,3.2-1.7l1.9-2.9c3.9,3,8.6,4.6,13.5,4.6c12.3,0,22.3-10,22.3-22.3C151,80,141,70,128.7,70L128.7,70z"/>
		<g>
			<path class="st42" d="M128.7,73.8c10.2,0,18.5,8.3,18.5,18.5c0,10.2-8.3,18.5-18.5,18.5c-5.7,0-10.8-2.6-14.2-6.7l-4.4,6.7V92.3
				C110.1,82.1,118.4,73.8,128.7,73.8 M128.7,70c-12.3,0-22.3,10-22.3,22.3v18.5c0,1.7,1.1,3.2,2.7,3.6c0.4,0.1,0.7,0.2,1.1,0.2
				c1.3,0,2.5-0.6,3.2-1.7l1.9-2.9c3.9,3,8.6,4.6,13.5,4.6c12.3,0,22.3-10,22.3-22.3C151,80,141,70,128.7,70L128.7,70z"/>
			<polygon class="st2" points="138.7,90.6 130.4,90.6 130.4,82.3 126.9,82.3 126.9,90.6 118.6,90.6 118.6,94.1 126.9,94.1 
				126.9,102.4 130.4,102.4 130.4,94.1 138.7,94.1 			"/>
		</g>
	</g>
</g>
</svg>
