<?xml version="1.0" encoding="utf-8"?>
<!-- Generator: Adobe Illustrator 22.0.1, SVG Export Plug-In . SVG Version: 6.00 Build 0)  -->
<svg version="1.1" id="Capa_1" xmlns="http://www.w3.org/2000/svg" xmlns:xlink="http://www.w3.org/1999/xlink" x="0px" y="0px"
	 viewBox="0 0 220 220" style="enable-background:new 0 0 220 220;" xml:space="preserve">
<style type="text/css">
	.st0{fill:#DEE0E2;}
	.st1{fill:url(#SVGID_1_);}
	.st2{fill:#FFFFFF;}
	.st3{fill:#9DC44D;}
	.st4{fill:#E7AD47;}
	.st5{fill:#7F7F7F;}
	.st6{fill:#CACACA;}
	.st7{fill:#10181B;}
	.st8{fill:url(#SVGID_2_);}
	.st9{fill:url(#SVGID_3_);}
	.st10{fill:#979797;}
	.st11{fill:url(#SVGID_4_);}
	.st12{fill:#B0B0B0;}
	.st13{fill:#997B55;}
	.st14{fill:#66A8DE;}
	.st15{fill:#D25A2C;}
	.st16{fill:url(#SVGID_5_);}
	.st17{fill:#CECECE;}
	.st18{fill:#363739;}
	.st19{fill:#75CFFA;}
	.st20{fill:#E06B80;}
	.st21{fill:#F3D66E;}
	.st22{fill:#7FDEDA;}
	.st23{fill:#4377EE;}
	.st24{fill:#C7EDFD;}
	.st25{fill:#6FB353;}
	.st26{fill:#EBB32A;}
	.st27{fill:#5A5A5A;}
	.st28{fill:#838383;}
	.st29{fill:#ACACAC;}
	.st30{fill:#DC435F;}
	.st31{fill:#5FA6AE;}
	.st32{fill:#5494FB;}
	.st33{fill:#E4E4E4;}
	.st34{fill:#C2F038;}
	.st35{fill:#67B5E8;}
	.st36{fill:#A8DFF7;}
	.st37{fill:#CB2228;}
	.st38{fill:#CA5144;}
	.st39{fill:#9FD332;}
	.st40{fill:#E8EAEC;}
	.st41{fill:#F2F5F7;}
	.st42{fill:#10171B;}
	.st43{fill:#EDBCBE;}
	.st44{fill:#4E4E4E;}
	.st45{fill:#EEBE85;}
	.st46{fill:#F1F1F1;}
	.st47{opacity:0.75;fill:#F2F5F7;}
	.st48{fill:#DE912F;}
	.st49{fill:#F3D570;}
	.st50{fill:#CACFD7;}
	.st51{fill:#6CBFE7;}
	.st52{fill:#78D4F1;}
	.st53{fill:#DDDDDD;}
	.st54{fill:#69B9FC;}
	.st55{fill:#647890;}
	.st56{fill:#F7EC41;}
	.st57{fill:#EFC52E;}
	.st58{fill:url(#SVGID_6_);}
	.st59{opacity:0.25;fill:url(#SVGID_7_);}
	.st60{opacity:0.2;fill:url(#SVGID_8_);}
	.st61{opacity:0.2;}
	.st62{opacity:0;}
	.st63{opacity:9.090909e-02;}
	.st64{opacity:0.1818;}
	.st65{opacity:0.2727;}
	.st66{opacity:0.3636;}
	.st67{opacity:0.4545;}
	.st68{opacity:0.5455;}
	.st69{opacity:0.6364;}
	.st70{opacity:0.7273;}
	.st71{opacity:0.8182;}
	.st72{opacity:0.9091;}
	.st73{fill:url(#SVGID_9_);}
	.st74{fill:none;stroke:#000000;stroke-width:2;stroke-miterlimit:10;}
	.st75{fill:url(#SVGID_10_);}
	.st76{opacity:0.8182;fill:url(#SVGID_11_);}
	.st77{fill:url(#SVGID_12_);}
	.st78{opacity:0.5;fill:url(#SVGID_13_);}
	.st79{fill:none;stroke:#10171B;stroke-width:2;stroke-miterlimit:10;}
	.st80{fill:url(#SVGID_14_);}
	.st81{fill:url(#SVGID_15_);}
	.st82{fill:url(#SVGID_16_);}
	.st83{fill:url(#SVGID_17_);}
	.st84{fill:url(#SVGID_18_);}
	.st85{fill:url(#SVGID_19_);}
	.st86{fill:url(#SVGID_20_);}
	.st87{opacity:0.25;fill:url(#SVGID_21_);}
	.st88{fill:url(#SVGID_22_);}
	.st89{fill:url(#SVGID_23_);}
	.st90{fill:url(#SVGID_24_);}
	.st91{opacity:0.9;}
	.st92{fill:url(#SVGID_25_);}
	.st93{fill:url(#SVGID_26_);}
	.st94{fill:url(#SVGID_27_);}
	.st95{fill:none;stroke:#10171B;stroke-width:2;stroke-linecap:round;stroke-linejoin:round;stroke-miterlimit:10;}
	.st96{fill:url(#SVGID_28_);}
	.st97{fill:url(#SVGID_29_);}
	.st98{fill:url(#SVGID_30_);}
	.st99{fill:url(#SVGID_31_);}
	.st100{fill:url(#SVGID_32_);}
	.st101{fill:url(#SVGID_33_);}
	.st102{opacity:0.2;fill:url(#SVGID_34_);}
	.st103{fill:url(#SVGID_35_);}
	.st104{fill:url(#SVGID_36_);}
	.st105{fill:url(#SVGID_37_);}
	.st106{fill:url(#SVGID_38_);}
	.st107{fill:url(#SVGID_39_);}
	.st108{fill:#E5E5E6;}
	.st109{fill:url(#SVGID_40_);}
	.st110{fill:url(#SVGID_41_);}
	.st111{opacity:0.5;}
	.st112{fill:#871FA5;}
	.st113{fill:url(#SVGID_42_);}
	.st114{fill:url(#SVGID_43_);}
	.st115{fill:url(#SVGID_44_);}
	.st116{fill:url(#SVGID_45_);}
	.st117{fill:url(#SVGID_46_);}
	.st118{fill:url(#SVGID_47_);}
	.st119{fill:url(#SVGID_48_);}
	.st120{fill:url(#SVGID_49_);}
	.st121{fill:url(#SVGID_50_);}
	.st122{fill:url(#SVGID_51_);}
	.st123{fill:url(#SVGID_52_);}
	.st124{fill:url(#SVGID_53_);}
	.st125{fill:url(#SVGID_54_);}
	.st126{fill:url(#SVGID_55_);}
	.st127{fill:url(#SVGID_56_);}
	.st128{fill:url(#SVGID_57_);}
	.st129{fill:url(#SVGID_58_);}
	.st130{fill:url(#SVGID_59_);}
	.st131{fill:url(#SVGID_60_);}
	.st132{fill:url(#SVGID_61_);}
	.st133{fill:url(#SVGID_62_);}
	.st134{fill:#4479E6;}
	.st135{fill:url(#SVGID_63_);}
	.st136{fill:url(#SVGID_64_);}
	.st137{fill:url(#SVGID_65_);}
	.st138{fill:url(#SVGID_66_);}
	.st139{fill:url(#SVGID_67_);}
	.st140{fill:url(#SVGID_68_);}
	.st141{fill:url(#SVGID_69_);}
	.st142{fill:url(#SVGID_70_);}
	.st143{fill:url(#SVGID_71_);}
	.st144{fill:url(#SVGID_72_);}
	.st145{fill:url(#SVGID_73_);}
	.st146{opacity:0.5;fill:url(#SVGID_74_);}
	.st147{fill:url(#SVGID_75_);}
	.st148{fill:url(#SVGID_76_);}
	.st149{fill:url(#SVGID_77_);}
	.st150{opacity:0.5;fill:url(#SVGID_78_);}
	.st151{fill:url(#SVGID_79_);}
	.st152{fill:url(#SVGID_80_);}
	.st153{fill:url(#SVGID_81_);}
	.st154{opacity:0.5;fill:url(#SVGID_82_);}
	.st155{fill:url(#SVGID_83_);}
	.st156{fill:url(#SVGID_84_);}
	.st157{fill:#4070B7;}
	.st158{fill:#508CFA;}
	.st159{fill:#5E29D0;}
	.st160{fill:#3C6BBA;}
	.st161{fill:#29497D;}
	.st162{fill:url(#SVGID_85_);}
	.st163{opacity:0.6;fill:url(#SVGID_86_);}
	.st164{opacity:0.5;fill:url(#SVGID_87_);}
	.st165{opacity:0.5;fill:url(#SVGID_88_);}
	.st166{fill:url(#SVGID_89_);}
	.st167{opacity:0.5;fill:url(#SVGID_90_);}
	.st168{opacity:0.8;fill:url(#SVGID_91_);}
	.st169{fill:url(#SVGID_92_);}
	.st170{fill:url(#SVGID_93_);}
	.st171{fill:url(#SVGID_94_);}
	.st172{fill:url(#SVGID_95_);}
	.st173{fill:url(#SVGID_96_);}
	.st174{fill:url(#SVGID_97_);}
	.st175{fill:url(#SVGID_98_);}
	.st176{fill:url(#SVGID_99_);}
	.st177{fill:url(#SVGID_100_);}
	.st178{fill:url(#SVGID_101_);}
	.st179{fill:url(#SVGID_102_);}
	.st180{fill:url(#SVGID_103_);}
	.st181{fill:url(#SVGID_104_);}
</style>
<g>
	<g>
		<path class="st40" d="M216.5,103.2c6.2,35.7-11,85.2-94,95.9c-51.8,6.7-114.8-16.3-108.7-81.4C19,62.8,39.1,0.5,94.1,0.3
			C130,0.2,207.2,48.9,216.5,103.2z"/>
		<path class="st41" d="M4.5,113.7C-6,74.5,21.5,18.4,105.9,10.1c27.2-2.7,61.5,7.2,80.4,27.6c17.8,19.3,21,48.2,21,76
			c0,57.2-47.7,119.1-101.4,103.6c-16.3-4.7-21.6-37.2-42.2-56.9C45.5,142.9,11.5,139.6,4.5,113.7z"/>
	</g>
	<g>
		<path class="st43" d="M145.8,119.5c0,0.9-0.7,1.6-1.6,1.6h-2.6c-0.9,0-1.7,0.6-2,1.5c-1.2,3.9-6.4,10.4-8.4,12.8l-0.5,0.4
			c-4.4,3.9-4.8,8.6-4.8,10v2.9h-12.1v-2.8c0-0.6-0.3-1.2-0.7-1.6c-0.4-0.4-1-0.6-1.6-0.5c-3.1,0.3-6.2,0.3-9.2-0.1
			c-0.6-0.1-1.2,0.1-1.7,0.5c-0.5,0.4-0.7,1-0.7,1.6v2.9H87.9v-0.9c-0.1-2.2-0.8-7.8-5.2-12.4c-2.1-2.1-3.9-5-5.5-8.4c0,0,0,0,0-0.1
			c-1-1.8-1.7-3.7-2.2-5.8l0-0.1c0,0,0,0,0-0.1c-0.8-2.5-0.7-5.7-0.7-5.8v-0.1c0-1.4,0.1-2.8,0.3-4.2c0.1-0.8-0.2-1.6-0.9-2.1
			c0.8-8,3.9-14,9.2-18c8.9-6.7,21.8-6,27.7-5.2c0.3,0.5,0.9,0.9,1.5,0.9c2.3,0.3,4.6,0.8,6.8,1.5c0.9,0.3,1.8-0.1,2.4-0.8
			c1.4-2.1,4.3-4.8,9.9-5.5c0,0,0.1,0,0.1,0.1c0,0.1,0,0.1,0,0.1c-2.2,3.5-2.9,7.2-1.9,10.6c0,0.6,0.3,1.2,0.8,1.6
			c4.5,3.6,7.7,8.2,9.4,13.2c0.3,0.9,1.1,1.4,2,1.4h2.7c0.9,0,1.6,0.7,1.6,1.6V119.5z"/>
		<circle class="st12" cx="107" cy="60.7" r="9"/>
		<circle class="st4" cx="87" cy="89.2" r="13.5"/>
		<g>
			<path class="st42" d="M88.6,96.9v1.8c0,0.2-0.1,0.3-0.3,0.3h-1.4c-0.2,0-0.3-0.1-0.3-0.3v-1.8c-2.5-0.3-3.8-1.8-3.8-1.9
				c-0.1-0.1-0.1-0.3,0-0.4l1.1-1.4c0.1-0.1,0.1-0.1,0.2-0.1c0.1,0,0.2,0,0.3,0.1c0,0,1.5,1.4,3.3,1.4c1,0,2.1-0.5,2.1-1.7
				c0-1-1.2-1.5-2.7-2.1c-1.9-0.7-4.2-1.7-4.2-4.3c0-1.9,1.5-3.5,3.7-3.9v-1.9c0-0.2,0.2-0.3,0.3-0.3h1.4c0.2,0,0.3,0.1,0.3,0.3v1.8
				c2.1,0.2,3.3,1.4,3.3,1.4c0.1,0.1,0.1,0.3,0.1,0.4l-0.8,1.5C91,85.9,90.9,86,90.8,86c-0.1,0-0.2,0-0.3-0.1c0,0-1.3-1.1-2.9-1.1
				c-1.3,0-2.3,0.7-2.3,1.6c0,1.1,1.3,1.6,2.8,2.2c1.9,0.7,4.1,1.6,4.1,4.1C92.3,94.8,90.8,96.5,88.6,96.9z"/>
		</g>
		<g>
			<path class="st42" d="M133.5,138.9l0.5-0.5c0.1-0.1,0.1-0.1,0.2-0.2c0.3-0.3,6.5-7.4,8.8-12.9h1.1c3.2,0,5.8-2.6,5.8-5.8v-9.2
				c0-3.2-2.6-5.8-5.8-5.8H143c-1.9-5-5.2-9.5-9.6-13.2c-0.6-2.3-0.2-4.7,1.4-7.2c0.9-1.4,0.9-3.2,0-4.6c-0.9-1.4-2.5-2.2-4.2-2
				c-6.1,0.8-9.8,3.5-11.9,6.1c-2-0.6-4.1-1-6.2-1.2c-1.1-0.1-2.2,0.7-2.3,1.8c-0.1,1.1,0.7,2.2,1.8,2.3c2.3,0.3,4.6,0.8,6.8,1.5
				c0.9,0.3,1.8-0.1,2.4-0.8c1.4-2.1,4.3-4.8,9.9-5.5c0,0,0.1,0,0.1,0.1c0,0.1,0,0.1,0,0.1c-2.2,3.5-2.9,7.2-1.9,10.6
				c0,0.6,0.3,1.2,0.8,1.6c4.5,3.6,7.7,8.2,9.4,13.2c0.3,0.9,1.1,1.4,2,1.4h2.7c0.9,0,1.6,0.7,1.6,1.6v9.2c0,0.9-0.7,1.6-1.6,1.6
				h-2.6c-0.9,0-1.7,0.6-2,1.5c-1.2,3.9-6.4,10.4-8.4,12.8l-0.5,0.4c-4.4,3.9-4.8,8.6-4.8,10v2.9h-12.1v-2.8c0-0.6-0.3-1.2-0.7-1.6
				c-0.4-0.4-1-0.6-1.6-0.5c-3.1,0.3-6.2,0.3-9.2-0.1c-0.6-0.1-1.2,0.1-1.7,0.5c-0.5,0.4-0.7,1-0.7,1.6v2.9H87.9v-0.9
				c-0.1-2.2-0.8-7.8-5.2-12.4c-2.1-2.1-3.9-5-5.5-8.4c0,0,0,0,0-0.1c-1-1.8-1.7-3.7-2.2-5.8l0-0.1c0,0,0,0,0-0.1
				c-0.8-2.5-0.7-5.7-0.7-5.8v-0.1c0-1.4,0.1-2.8,0.3-4.2c0.2-1.1-0.6-2.2-1.7-2.4c-1.1-0.2-2.2,0.6-2.4,1.7
				c-0.3,1.6-0.4,3.2-0.4,4.8c0,0.4-0.1,4,0.8,7c0.5,2.3,1.4,4.5,2.5,6.6c1.8,3.9,3.9,7,6.3,9.5c3.4,3.5,3.9,7.8,4,9.6v0.9
				c0,0.1,0,0.1,0,0.3c0.1,2.1,1.9,3.8,4.1,3.8H100c2.3,0,4.1-1.8,4.1-4.1V148c1.8,0.1,3.7,0.2,5.5,0.1v0.6c0,2.3,1.8,4.1,4.1,4.1
				H126c2.3,0,4.1-1.8,4.1-4.1v-3C130.1,145.1,130.4,141.7,133.5,138.9L133.5,138.9z M133.5,138.9"/>
		</g>
		<path class="st42" d="M70.2,89.7c0,9.5,7.7,17.2,17.2,17.2c9.5,0,17.2-7.7,17.2-17.2c0-9.5-7.7-17.2-17.2-17.2
			C77.9,72.4,70.2,80.1,70.2,89.7L70.2,89.7z M100.5,89.7c0,7.2-5.9,13.1-13.1,13.1c-7.2,0-13.1-5.9-13.1-13.1s5.9-13.1,13.1-13.1
			C94.6,76.6,100.5,82.5,100.5,89.7L100.5,89.7z M100.5,89.7"/>
		<path class="st42" d="M119.1,61.2c0-6.6-5.4-12-12-12c-6.6,0-12,5.4-12,12c0,6.6,5.4,12,12,12C113.7,73.2,119.1,67.8,119.1,61.2
			L119.1,61.2z M99.3,61.2c0-4.3,3.5-7.8,7.8-7.8c4.3,0,7.8,3.5,7.8,7.8c0,4.3-3.5,7.8-7.8,7.8C102.8,69,99.3,65.5,99.3,61.2
			L99.3,61.2z M99.3,61.2"/>
	</g>
</g>
</svg>
