<?xml version="1.0" encoding="utf-8"?>
<!-- Generator: Adobe Illustrator 22.0.1, SVG Export Plug-In . SVG Version: 6.00 Build 0)  -->
<svg version="1.1" id="Capa_1" xmlns="http://www.w3.org/2000/svg" xmlns:xlink="http://www.w3.org/1999/xlink" x="0px" y="0px"
	 viewBox="0 0 220 220" style="enable-background:new 0 0 220 220;" xml:space="preserve">
<style type="text/css">
	.st0{fill:#DEE0E2;}
	.st1{fill:url(#SVGID_1_);}
	.st2{fill:#FFFFFF;}
	.st3{fill:#9DC44D;}
	.st4{fill:#E7AD47;}
	.st5{fill:#7F7F7F;}
	.st6{fill:#CACACA;}
	.st7{fill:#10181B;}
	.st8{fill:url(#SVGID_2_);}
	.st9{fill:url(#SVGID_3_);}
	.st10{fill:#979797;}
	.st11{fill:url(#SVGID_4_);}
	.st12{fill:#B0B0B0;}
	.st13{fill:#997B55;}
	.st14{fill:#66A8DE;}
	.st15{fill:#D25A2C;}
	.st16{fill:url(#SVGID_5_);}
	.st17{fill:#CECECE;}
	.st18{fill:#363739;}
	.st19{fill:#75CFFA;}
	.st20{fill:#E06B80;}
	.st21{fill:#F3D66E;}
	.st22{fill:#7FDEDA;}
	.st23{fill:#4377EE;}
	.st24{fill:#C7EDFD;}
	.st25{fill:#6FB353;}
	.st26{fill:#EBB32A;}
	.st27{fill:#5A5A5A;}
	.st28{fill:#838383;}
	.st29{fill:#ACACAC;}
	.st30{fill:#DC435F;}
	.st31{fill:#5FA6AE;}
	.st32{fill:#5494FB;}
	.st33{fill:#E4E4E4;}
	.st34{fill:#C2F038;}
	.st35{fill:#67B5E8;}
	.st36{fill:#A8DFF7;}
	.st37{fill:#CB2228;}
	.st38{fill:#CA5144;}
	.st39{fill:#9FD332;}
	.st40{fill:#E8EAEC;}
	.st41{fill:#F2F5F7;}
	.st42{fill:#10171B;}
	.st43{fill:#EDBCBE;}
	.st44{fill:#4E4E4E;}
	.st45{fill:#EEBE85;}
	.st46{fill:#F1F1F1;}
	.st47{opacity:0.75;fill:#F2F5F7;}
	.st48{fill:#DE912F;}
	.st49{fill:#F3D570;}
	.st50{fill:#CACFD7;}
	.st51{fill:#6CBFE7;}
	.st52{fill:#78D4F1;}
	.st53{fill:#DDDDDD;}
	.st54{fill:#69B9FC;}
	.st55{fill:#647890;}
	.st56{fill:#F7EC41;}
	.st57{fill:#EFC52E;}
	.st58{fill:url(#SVGID_6_);}
	.st59{opacity:0.25;fill:url(#SVGID_7_);}
	.st60{opacity:0.2;fill:url(#SVGID_8_);}
	.st61{opacity:0.2;}
	.st62{opacity:0;}
	.st63{opacity:9.090909e-02;}
	.st64{opacity:0.1818;}
	.st65{opacity:0.2727;}
	.st66{opacity:0.3636;}
	.st67{opacity:0.4545;}
	.st68{opacity:0.5455;}
	.st69{opacity:0.6364;}
	.st70{opacity:0.7273;}
	.st71{opacity:0.8182;}
	.st72{opacity:0.9091;}
	.st73{fill:url(#SVGID_9_);}
	.st74{fill:none;stroke:#000000;stroke-width:2;stroke-miterlimit:10;}
	.st75{fill:url(#SVGID_10_);}
	.st76{opacity:0.8182;fill:url(#SVGID_11_);}
	.st77{fill:url(#SVGID_12_);}
	.st78{opacity:0.5;fill:url(#SVGID_13_);}
	.st79{fill:none;stroke:#10171B;stroke-width:2;stroke-miterlimit:10;}
	.st80{fill:url(#SVGID_14_);}
	.st81{fill:url(#SVGID_15_);}
	.st82{fill:url(#SVGID_16_);}
	.st83{fill:url(#SVGID_17_);}
	.st84{fill:url(#SVGID_18_);}
	.st85{fill:url(#SVGID_19_);}
	.st86{fill:url(#SVGID_20_);}
	.st87{opacity:0.25;fill:url(#SVGID_21_);}
	.st88{fill:url(#SVGID_22_);}
	.st89{fill:url(#SVGID_23_);}
	.st90{fill:url(#SVGID_24_);}
	.st91{opacity:0.9;}
	.st92{fill:url(#SVGID_25_);}
	.st93{fill:url(#SVGID_26_);}
	.st94{fill:url(#SVGID_27_);}
	.st95{fill:none;stroke:#10171B;stroke-width:2;stroke-linecap:round;stroke-linejoin:round;stroke-miterlimit:10;}
	.st96{fill:url(#SVGID_28_);}
	.st97{fill:url(#SVGID_29_);}
	.st98{fill:url(#SVGID_30_);}
	.st99{fill:url(#SVGID_31_);}
	.st100{fill:url(#SVGID_32_);}
	.st101{fill:url(#SVGID_33_);}
	.st102{opacity:0.2;fill:url(#SVGID_34_);}
	.st103{fill:url(#SVGID_35_);}
	.st104{fill:url(#SVGID_36_);}
	.st105{fill:url(#SVGID_37_);}
	.st106{fill:url(#SVGID_38_);}
	.st107{fill:url(#SVGID_39_);}
	.st108{fill:#E5E5E6;}
	.st109{fill:url(#SVGID_40_);}
	.st110{fill:url(#SVGID_41_);}
	.st111{opacity:0.5;}
	.st112{fill:#871FA5;}
	.st113{fill:url(#SVGID_42_);}
	.st114{fill:url(#SVGID_43_);}
	.st115{fill:url(#SVGID_44_);}
	.st116{fill:url(#SVGID_45_);}
	.st117{fill:url(#SVGID_46_);}
	.st118{fill:url(#SVGID_47_);}
	.st119{fill:url(#SVGID_48_);}
	.st120{fill:url(#SVGID_49_);}
	.st121{fill:url(#SVGID_50_);}
	.st122{fill:url(#SVGID_51_);}
	.st123{fill:url(#SVGID_52_);}
	.st124{fill:url(#SVGID_53_);}
	.st125{fill:url(#SVGID_54_);}
	.st126{fill:url(#SVGID_55_);}
	.st127{fill:url(#SVGID_56_);}
	.st128{fill:url(#SVGID_57_);}
	.st129{fill:url(#SVGID_58_);}
	.st130{fill:url(#SVGID_59_);}
	.st131{fill:url(#SVGID_60_);}
	.st132{fill:url(#SVGID_61_);}
	.st133{fill:url(#SVGID_62_);}
	.st134{fill:#4479E6;}
	.st135{fill:url(#SVGID_63_);}
	.st136{fill:url(#SVGID_64_);}
	.st137{fill:url(#SVGID_65_);}
	.st138{fill:url(#SVGID_66_);}
	.st139{fill:url(#SVGID_67_);}
	.st140{fill:url(#SVGID_68_);}
	.st141{fill:url(#SVGID_69_);}
	.st142{fill:url(#SVGID_70_);}
	.st143{fill:url(#SVGID_71_);}
	.st144{fill:url(#SVGID_72_);}
	.st145{fill:url(#SVGID_73_);}
	.st146{opacity:0.5;fill:url(#SVGID_74_);}
	.st147{fill:url(#SVGID_75_);}
	.st148{fill:url(#SVGID_76_);}
	.st149{fill:url(#SVGID_77_);}
	.st150{opacity:0.5;fill:url(#SVGID_78_);}
	.st151{fill:url(#SVGID_79_);}
	.st152{fill:url(#SVGID_80_);}
	.st153{fill:url(#SVGID_81_);}
	.st154{opacity:0.5;fill:url(#SVGID_82_);}
	.st155{fill:url(#SVGID_83_);}
	.st156{fill:url(#SVGID_84_);}
	.st157{fill:#4070B7;}
	.st158{fill:#508CFA;}
	.st159{fill:#5E29D0;}
	.st160{fill:#3C6BBA;}
	.st161{fill:#29497D;}
	.st162{fill:url(#SVGID_85_);}
	.st163{opacity:0.6;fill:url(#SVGID_86_);}
	.st164{opacity:0.5;fill:url(#SVGID_87_);}
	.st165{opacity:0.5;fill:url(#SVGID_88_);}
	.st166{fill:url(#SVGID_89_);}
	.st167{opacity:0.5;fill:url(#SVGID_90_);}
	.st168{opacity:0.8;fill:url(#SVGID_91_);}
	.st169{fill:url(#SVGID_92_);}
	.st170{fill:url(#SVGID_93_);}
	.st171{fill:url(#SVGID_94_);}
	.st172{fill:url(#SVGID_95_);}
	.st173{fill:url(#SVGID_96_);}
	.st174{fill:url(#SVGID_97_);}
	.st175{fill:url(#SVGID_98_);}
	.st176{fill:url(#SVGID_99_);}
	.st177{fill:url(#SVGID_100_);}
	.st178{fill:url(#SVGID_101_);}
	.st179{fill:url(#SVGID_102_);}
	.st180{fill:url(#SVGID_103_);}
	.st181{fill:url(#SVGID_104_);}
</style>
<g>
	<g>
		<path class="st40" d="M216.5,103.2c6.2,35.7-11,85.2-94,95.9c-51.8,6.7-114.8-16.3-108.7-81.4C19,62.8,39.1,0.5,94.1,0.3
			C130,0.2,207.2,48.9,216.5,103.2z"/>
		<path class="st41" d="M4.5,113.7C-6,74.5,21.5,18.4,105.9,10.1c27.2-2.7,61.5,7.2,80.4,27.6c17.8,19.3,21,48.2,21,76
			c0,57.2-47.7,119.1-101.4,103.6c-16.3-4.7-21.6-37.2-42.2-56.9C45.5,142.9,11.5,139.6,4.5,113.7z"/>
	</g>
	<g>
		<g>
			<g>
				<path class="st7" d="M154.4,103.3c-4.7-4.7-10.2-0.3-10.2-0.3V78.2c0-0.8-0.7-1.5-1.5-1.5c-0.8,0-1.5,0.7-1.5,1.5v26.9
					c0,0-7.2,5.7-10.3,7.1V67.5c0-2.1,1.7-3.8,3.8-3.8h2.8c2.1,0,3.8,1.7,3.8,3.8V72c0,0.8,0.7,1.5,1.5,1.5c0.8,0,1.5-0.7,1.5-1.5
					v-4.5c0-3.7-3-6.8-6.8-6.8h-2.8c-3.7,0-6.8,3-6.8,6.8v45.9c-0.9,0.3-1.8,0.4-2.8,0.5V82.1c0-3.8-3.1-6.8-6.8-6.8h-2.7
					c-3.8,0-6.8,3.1-6.8,6.8v15.4l-2.8,1.5v-5.1c0-3.4-2.8-6.1-6.1-6.1h-4c-3.4,0-6.1,2.8-6.1,6.1v13.8l-4.9,2.6l-13.8,4
					c-2.4,0.7-4.4,2.3-5.7,4.4c-1.2,2.2-1.6,4.7-0.9,7.1l1.5,6c0.2,0.8,1,1.3,1.8,1.1c0.8-0.2,1.3-1,1.1-1.8l-1.5-6
					c-0.9-3.5,1.1-6.9,4.5-7.9l12.6-3.6l9.5,25.4c0.6,1.7,0.5,6.5-4.5,8.3l-9.6,2.2c-3.3,0.8-6.6-1.2-7.5-4.5l-1.9-7.5
					c-0.2-0.8-1-1.3-1.8-1.1c-0.8,0.2-1.3,1-1.1,1.8l1.9,7.5c1.1,4.2,4.8,7,9,7c3,0,11.7-2.4,11.7-2.4c2.6-0.6,4.9-2.3,6.1-4.7
					c1.1-2,1.4-4.2,0.9-6.3l33.1-8.1c2.7-0.7,5.3-2,7.5-3.8l16.1-13.2C158.7,109.7,155.8,104.7,154.4,103.3L154.4,103.3z
					 M115.6,78.3h2.7c2.1,0,3.8,1.7,3.8,3.8V114l-9.5,0c-0.9,0-0.3-0.6-0.2-0.6l2.7-2.2c2.6-2.1,4.2-5,5-8.6c0.5-2.3-0.4-4.6-2.3-6
					c-1.7-1.3-4-1.6-6-0.7V82.1C111.8,80,113.5,78.3,115.6,78.3L115.6,78.3z M92.7,93.8c0-1.7,1.4-3.1,3.1-3.1h4
					c1.7,0,3.1,1.4,3.1,3.1v6.7L92.7,106L92.7,93.8L92.7,93.8z M151.9,111.7l-16.1,13.2c-1.8,1.5-4,2.6-6.3,3.2l-33.3,8.2l-9-23.9
					l25.6-13.6c1-0.6,2.2-0.5,3.2,0.2c0.9,0.7,1.4,1.8,1.1,3c-0.6,2.9-1.9,5.2-3.9,6.8l-2.7,2.2c-1.1,0.9-1.5,2.4-1.1,3.7
					c0.5,1.4,1.7,2.2,3.2,2.2l11,0h0c3.9,0,7.7-1.2,10.9-3.4l12.3-8.6c1.7-1.2,4-1,5.5,0.5C153.1,106.3,154.8,108.9,151.9,111.7
					L151.9,111.7z M151.9,111.7"/>
				<path class="st7" d="M88.2,139.8c0-3.3-2.7-5.9-5.9-5.9c-3.3,0-5.9,2.7-5.9,5.9c0,3.3,2.7,5.9,5.9,5.9
					C85.5,145.7,88.2,143.1,88.2,139.8L88.2,139.8z M79.3,139.8c0-1.6,1.3-2.9,2.9-2.9c1.6,0,2.9,1.3,2.9,2.9c0,1.6-1.3,2.9-2.9,2.9
					S79.3,141.4,79.3,139.8L79.3,139.8z M79.3,139.8"/>
				<path class="st7" d="M71.4,96.9l21.9-22.1l4.9,2.6c1.8,0.9,3.9,0.6,5.4-0.8l11.9-11.5c0,0-0.3,5.9,4.6,5.9
					c2.6,0,4.6-2.1,4.6-4.6V54.1c0,0,0,0,0,0c0-3.2-2.3-4.6-4.6-4.6h-12.1c-2.6,0-4.6,2.1-4.6,4.6c0,5.1,5.2,4.6,5.2,4.6l-9.1,8.8
					l-5-2.6c-1.8-0.9-4-0.6-5.4,0.9L64.8,90.3c-1.8,1.8-1.8,4.8,0,6.6C65.7,97.8,68.7,99.6,71.4,96.9L71.4,96.9z M66.9,92.5
					l24.3-24.5c0.3-0.3,0.8-0.9,1.9-0.3l6,3.1c0.6,0.3,1.3,0.2,1.7-0.3l12.6-12.1c0.4-0.4,0.6-1.1,0.4-1.7c-0.2-0.6-0.8-0.9-1.4-0.9
					h-4.3c-0.9,0-1.6-0.7-1.6-1.6c0-0.9,0.7-1.6,1.6-1.6h12.1c0.4,0,1.6,0,1.6,1.6c0,0,0,0,0,0v12.1c0,0.9-0.7,1.6-1.6,1.6
					c-0.9,0-1.6-0.7-1.6-1.6v-4.8c0-0.6-0.4-1.2-0.9-1.4c-0.6-0.2-1.2-0.1-1.6,0.3l-14.5,14c-0.5,0.5-1.3,0.6-1.9,0.3l-5.9-3.1
					c-0.6-0.3-1.3-0.2-1.8,0.3L69.2,94.7c-1,1-2,0.3-2.3,0C66.3,94.1,66.3,93.1,66.9,92.5L66.9,92.5z M66.9,92.5"/>
			</g>
		</g>
		<g>
			<path class="st44" d="M82.2,136.9c-1.6,0-2.9,1.3-2.9,2.9c0,1.6,1.3,2.9,2.9,2.9c1.6,0,2.9-1.3,2.9-2.9
				C85.1,138.2,83.8,136.9,82.2,136.9z"/>
			<path class="st15" d="M141.2,79.8v-1.5V67.5c0-2.1-1.7-3.8-3.8-3.8h-2.8c-2.1,0-3.8,1.7-3.8,3.8v44.7c3.1-1.4,10.3-7.1,10.3-7.1
				V79.8z"/>
			<path class="st14" d="M103,93.8c0-1.7-1.4-3.1-3.1-3.1h-4c-1.7,0-3.1,1.4-3.1,3.1h0V106l10.3-5.5V93.8z"/>
			<path class="st25" d="M117.8,96.6c1.9,1.4,2.7,3.7,2.3,6c-0.7,3.6-2.4,6.5-5,8.6l-2.7,2.2c0,0-0.7,0.6,0.2,0.6l9.5,0V82.1
				c0-2.1-1.7-3.8-3.8-3.8h-2.7c-2.1,0-3.8,1.7-3.8,3.8v13.8C113.8,95,116,95.3,117.8,96.6z"/>
			<path class="st45" d="M146.7,104.9l-12.3,8.6c-3.2,2.3-7,3.4-10.9,3.4h0l-11,0c-1.4,0-2.7-0.9-3.2-2.2c-0.5-1.4-0.1-2.8,1.1-3.7
				l2.7-2.2c2-1.6,3.3-3.9,3.9-6.8c0.2-1.2-0.2-2.3-1.1-3c-0.9-0.7-2.1-0.8-3.2-0.2l-25.6,13.6l9,23.9l33.3-8.2
				c2.3-0.6,4.5-1.7,6.3-3.2l16.1-13.2c2.8-2.8,1.2-5.4,0.3-6.3C150.8,103.9,148.5,103.7,146.7,104.9z"/>
			<path class="st46" d="M84.4,113.4l-12.6,3.6c-3.4,1-5.4,4.5-4.5,7.9l3,12c0.1,0.1,0.1,0.2,0.2,0.3l1.9,7.5
				c0.9,3.3,4.1,5.3,7.5,4.5l9.6-2.2c5-1.8,5.1-6.6,4.5-8.3L84.4,113.4z M82.2,145.7c-3.3,0-5.9-2.7-5.9-5.9c0-3.3,2.7-5.9,5.9-5.9
				c3.3,0,5.9,2.7,5.9,5.9C88.2,143.1,85.5,145.7,82.2,145.7z"/>
			<path class="st7" d="M82.2,133.8c-3.3,0-5.9,2.7-5.9,5.9c0,3.3,2.7,5.9,5.9,5.9c3.3,0,5.9-2.7,5.9-5.9
				C88.2,136.5,85.5,133.8,82.2,133.8z M82.2,142.7c-1.6,0-2.9-1.3-2.9-2.9c0-1.6,1.3-2.9,2.9-2.9c1.6,0,2.9,1.3,2.9,2.9
				C85.1,141.4,83.8,142.7,82.2,142.7z"/>
			<path class="st4" d="M69.2,94.7l22.7-22.9c0.5-0.5,1.2-0.6,1.8-0.3l5.9,3.1c0.6,0.3,1.4,0.2,1.9-0.3l14.5-14
				c0.4-0.4,1.1-0.5,1.6-0.3c0.6,0.2,0.9,0.8,0.9,1.4v4.8c0,0.9,0.7,1.6,1.6,1.6c0.9,0,1.6-0.7,1.6-1.6V54.2c0,0,0,0,0,0
				c0-1.6-1.2-1.6-1.6-1.6h-12.1c-0.9,0-1.6,0.7-1.6,1.6c0,0.9,0.7,1.6,1.6,1.6h4.3c0.6,0,1.2,0.4,1.4,0.9c0.2,0.6,0.1,1.2-0.4,1.7
				l-12.6,12.1c-0.5,0.4-1.2,0.6-1.7,0.3l-6-3.1c-1.1-0.6-1.6,0-1.9,0.3L66.9,92.5c-0.6,0.6-0.6,1.7,0,2.3
				C67.2,95.1,68.2,95.7,69.2,94.7z"/>
		</g>
	</g>
</g>
</svg>
