<?xml version="1.0" encoding="utf-8"?>
<!-- Generator: Adobe Illustrator 22.0.1, SVG Export Plug-In . SVG Version: 6.00 Build 0)  -->
<svg version="1.1" id="Capa_1" xmlns="http://www.w3.org/2000/svg" xmlns:xlink="http://www.w3.org/1999/xlink" x="0px" y="0px"
	 viewBox="0 0 174 174" style="enable-background:new 0 0 174 174;" xml:space="preserve">
<style type="text/css">
	.st0{fill:#DFE2E4;}
	.st1{fill:url(#SVGID_1_);}
	.st2{fill:#CCCCCC;}
	.st3{fill:#999999;}
	.st4{fill:#FFFFFF;}
	.st5{fill:#FBB03B;}
	.st6{fill:#10181B;}
</style>
<g>
	<g>
		<path class="st0" d="M53.9,11.7c24-14,64.1-14.9,93.9,41.8c18.6,35.4,19,86.7-29.3,99.7c-40.7,11-90.8,13.3-105.7-26.2
			C3.1,101.3,17.4,32.9,53.9,11.7z"/>
		
			<linearGradient id="SVGID_1_" gradientUnits="userSpaceOnUse" x1="1186.2596" y1="872.7813" x2="1287.363" y2="771.6779" gradientTransform="matrix(-0.3493 -0.937 0.937 -0.3493 -259.4498 1528.9049)">
			<stop  offset="0" style="stop-color:#008EFF"/>
			<stop  offset="0.6173" style="stop-color:#00ADFF"/>
			<stop  offset="1" style="stop-color:#00BBFF"/>
		</linearGradient>
		<path class="st1" d="M118.1,161c-25.3,18-72.9,13.3-101.5-45.1C7.4,97.1,5.3,69.9,14.9,50.8c9.1-17.9,29-28,48.9-35.4
			c41.1-15.3,98.2,2.3,101.5,45.1c1,12.9-20.9,25.5-29.6,45.5C128.1,123.8,134.8,149.1,118.1,161z"/>
	</g>
	<g>
		<path class="st2" d="M112,78.6c0-17.7-14.3-32-32-32s-32,14.3-32,32s14.3,32,32,32c6.7,0,13-2.1,18.1-5.6l5.8,5.8l7.8-7.8
			l-5.7-5.7C109.7,92,112,85.6,112,78.6z"/>
		<path class="st3" d="M123.2,122.3L123.2,122.3c-2.1,2.1-5.6,2.1-7.8,0L104,110.9l7.8-7.8l11.4,11.4
			C125.4,116.7,125.4,120.2,123.2,122.3z"/>
		<circle class="st4" cx="80" cy="79.1" r="26.5"/>
		<circle class="st5" cx="113" cy="53.6" r="4"/>
		<circle class="st5" cx="79" cy="88.6" r="4"/>
		<circle class="st5" cx="94.5" cy="72.1" r="3.5"/>
		<circle class="st5" cx="65.5" cy="75.1" r="3.5"/>
		<g>
			<path class="st6" d="M79.8,50.9c-15.4,0-27.9,12.5-27.9,27.9c0,15.4,12.5,27.9,27.9,27.9c15.4,0,27.9-12.5,27.9-27.9
				C107.7,63.4,95.2,50.9,79.8,50.9L79.8,50.9z M79.8,53.6c8.2,0,15.9,4,20.6,10.7l-3.3,3.3c-0.8-0.5-1.7-0.8-2.7-0.8
				c-2.9,0-5.3,2.4-5.3,5.3c0,0.9,0.3,1.9,0.8,2.7l-8.7,8.7c-1.6-1-3.7-1-5.4,0l-6-6c0.5-0.8,0.7-1.7,0.8-2.7c0-2.9-2.4-5.3-5.3-5.3
				c-2.4,0-4.5,1.6-5.1,4h-4.9C57.6,61.9,67.9,53.6,79.8,53.6L79.8,53.6z M97,72.2c0,1.5-1.2,2.7-2.7,2.7c-1.5,0-2.7-1.2-2.7-2.7
				c0-1.5,1.2-2.7,2.7-2.7C95.9,69.5,97,70.7,97,72.2L97,72.2z M81.1,88.1c0,1.5-1.2,2.7-2.7,2.7c-1.5,0-2.7-1.2-2.7-2.7
				c0-1.5,1.2-2.7,2.7-2.7C79.9,85.5,81.1,86.7,81.1,88.1L81.1,88.1z M67.8,74.8c0,1.5-1.2,2.7-2.7,2.7c-1.5,0-2.7-1.2-2.7-2.7
				c0-1.5,1.2-2.7,2.7-2.7C66.6,72.2,67.8,73.4,67.8,74.8L67.8,74.8z M92,100.9c-3.8,2.1-8,3.2-12.3,3.2
				c-13.9,0-25.3-11.3-25.3-25.2c0-0.9,0-1.8,0.1-2.7H60c0.6,2.3,2.7,4,5.1,4c0.9,0,1.9-0.3,2.7-0.8l6,6c-0.5,0.8-0.7,1.7-0.8,2.7
				c0,2.9,2.4,5.3,5.3,5.3c2.9,0,5.3-2.4,5.3-5.3c0-0.9-0.3-1.9-0.8-2.7l8.7-8.7c0.8,0.5,1.7,0.7,2.7,0.8c2.9,0,5.3-2.4,5.3-5.3
				c0-0.9-0.3-1.9-0.8-2.7l2.9-2.9C108.6,78.8,104.2,94.1,92,100.9L92,100.9z M92,100.9"/>
			<path class="st6" d="M113,58.9c2.4,0,4.5-1.6,5.1-4h8.2v-2.7h-8.2c-0.6-2.3-2.7-4-5.1-4c-2.9,0-5.3,2.4-5.3,5.3
				c0,0.9,0.3,1.9,0.8,2.7l-2.3,2.3c-11.2-14.6-32-17.3-46.6-6.1c-14.6,11.2-17.3,32-6.1,46.6c10.6,13.7,29.9,17.1,44.4,7.7l4,4
				l12.6,12.6c2.7,2.7,7.1,2.7,9.9,0c2.7-2.7,2.7-7.1,0-9.9l-12.6-12.6l-4-4c7.1-11,7.1-25.1,0-36.1l2.7-2.7
				C111.1,58.6,112.1,58.9,113,58.9L113,58.9z M113,50.9c1.5,0,2.7,1.2,2.7,2.7c0,1.5-1.2,2.7-2.7,2.7c-1.5,0-2.7-1.2-2.7-2.7
				C110.3,52.1,111.5,50.9,113,50.9L113,50.9z M122.4,115.3c1.7,1.7,1.7,4.4,0.1,6.1c-1.7,1.7-4.4,1.7-6.1,0.1c0,0,0,0-0.1-0.1
				l-10.7-10.7l6.1-6.1L122.4,115.3z M109.8,102.7l-6.1,6.1l-3.7-3.7c0.2-0.1,0.4-0.3,0.5-0.4c0.2-0.1,0.4-0.3,0.6-0.5
				c0.3-0.2,0.6-0.5,0.9-0.7c0.1-0.1,0.3-0.3,0.4-0.4c0.5-0.5,1.1-1,1.6-1.6c0.1-0.1,0.3-0.3,0.4-0.4c0.3-0.3,0.5-0.6,0.7-0.9
				c0.2-0.2,0.3-0.4,0.5-0.6c0.1-0.2,0.3-0.4,0.4-0.5L109.8,102.7z M104.6,96.6c-0.4,0.6-0.9,1.2-1.3,1.7c-0.1,0.2-0.3,0.3-0.4,0.5
				c-0.4,0.5-0.8,0.9-1.3,1.4c-0.2,0.2-0.4,0.4-0.6,0.6c-0.4,0.4-0.9,0.9-1.4,1.3c-0.2,0.1-0.3,0.3-0.5,0.4
				c-0.6,0.5-1.1,0.9-1.7,1.3c-13.8,9.8-32.9,6.6-42.7-7.1c-9.8-13.8-6.6-32.9,7.1-42.7c13.8-9.8,32.9-6.6,42.7,7.1
				C112.2,71.6,112.2,85.9,104.6,96.6L104.6,96.6z M104.6,96.6"/>
		</g>
	</g>
</g>
</svg>
