<?xml version="1.0" encoding="utf-8"?>
<!-- Generator: Adobe Illustrator 22.0.1, SVG Export Plug-In . SVG Version: 6.00 Build 0)  -->
<svg version="1.1" id="Capa_1" xmlns="http://www.w3.org/2000/svg" xmlns:xlink="http://www.w3.org/1999/xlink" x="0px" y="0px"
	 viewBox="0 0 220 220" style="enable-background:new 0 0 220 220;" xml:space="preserve">
<style type="text/css">
	.st0{fill:#DEE0E2;}
	.st1{fill:url(#SVGID_1_);}
	.st2{fill:#FFFFFF;}
	.st3{fill:#9DC44D;}
	.st4{fill:#E7AD47;}
	.st5{fill:#7F7F7F;}
	.st6{fill:#CACACA;}
	.st7{fill:#10181B;}
	.st8{fill:url(#SVGID_2_);}
	.st9{fill:url(#SVGID_3_);}
	.st10{fill:#979797;}
	.st11{fill:url(#SVGID_4_);}
	.st12{fill:#B0B0B0;}
	.st13{fill:#997B55;}
	.st14{fill:#66A8DE;}
	.st15{fill:#D25A2C;}
	.st16{fill:url(#SVGID_5_);}
	.st17{fill:#CECECE;}
	.st18{fill:#363739;}
	.st19{fill:#75CFFA;}
	.st20{fill:#E06B80;}
	.st21{fill:#F3D66E;}
	.st22{fill:#7FDEDA;}
	.st23{fill:#4377EE;}
	.st24{fill:#C7EDFD;}
	.st25{fill:#6FB353;}
	.st26{fill:#EBB32A;}
	.st27{fill:#5A5A5A;}
	.st28{fill:#838383;}
	.st29{fill:#ACACAC;}
	.st30{fill:#DC435F;}
	.st31{fill:#5FA6AE;}
	.st32{fill:#5494FB;}
	.st33{fill:#E4E4E4;}
	.st34{fill:#C2F038;}
	.st35{fill:#67B5E8;}
	.st36{fill:#A8DFF7;}
	.st37{fill:#CB2228;}
	.st38{fill:#CA5144;}
	.st39{fill:#9FD332;}
	.st40{fill:#E8EAEC;}
	.st41{fill:#F2F5F7;}
	.st42{fill:#10171B;}
	.st43{fill:#EDBCBE;}
	.st44{fill:#4E4E4E;}
	.st45{fill:#EEBE85;}
	.st46{fill:#F1F1F1;}
	.st47{opacity:0.75;fill:#F2F5F7;}
	.st48{fill:#DE912F;}
	.st49{fill:#F3D570;}
	.st50{fill:#CACFD7;}
	.st51{fill:#6CBFE7;}
	.st52{fill:#78D4F1;}
	.st53{fill:#DDDDDD;}
	.st54{fill:#69B9FC;}
	.st55{fill:#647890;}
	.st56{fill:#F7EC41;}
	.st57{fill:#EFC52E;}
	.st58{fill:url(#SVGID_6_);}
	.st59{opacity:0.25;fill:url(#SVGID_7_);}
	.st60{opacity:0.2;fill:url(#SVGID_8_);}
	.st61{opacity:0.2;}
	.st62{opacity:0;}
	.st63{opacity:9.090909e-02;}
	.st64{opacity:0.1818;}
	.st65{opacity:0.2727;}
	.st66{opacity:0.3636;}
	.st67{opacity:0.4545;}
	.st68{opacity:0.5455;}
	.st69{opacity:0.6364;}
	.st70{opacity:0.7273;}
	.st71{opacity:0.8182;}
	.st72{opacity:0.9091;}
	.st73{fill:url(#SVGID_9_);}
	.st74{fill:none;stroke:#000000;stroke-width:2;stroke-miterlimit:10;}
	.st75{fill:url(#SVGID_10_);}
	.st76{opacity:0.8182;fill:url(#SVGID_11_);}
	.st77{fill:url(#SVGID_12_);}
	.st78{opacity:0.5;fill:url(#SVGID_13_);}
	.st79{fill:none;stroke:#10171B;stroke-width:2;stroke-miterlimit:10;}
	.st80{fill:url(#SVGID_14_);}
	.st81{fill:url(#SVGID_15_);}
	.st82{fill:url(#SVGID_16_);}
	.st83{fill:url(#SVGID_17_);}
	.st84{fill:url(#SVGID_18_);}
	.st85{fill:url(#SVGID_19_);}
	.st86{fill:url(#SVGID_20_);}
	.st87{opacity:0.25;fill:url(#SVGID_21_);}
	.st88{fill:url(#SVGID_22_);}
	.st89{fill:url(#SVGID_23_);}
	.st90{fill:url(#SVGID_24_);}
	.st91{opacity:0.9;}
	.st92{fill:url(#SVGID_25_);}
	.st93{fill:url(#SVGID_26_);}
	.st94{fill:url(#SVGID_27_);}
	.st95{fill:none;stroke:#10171B;stroke-width:2;stroke-linecap:round;stroke-linejoin:round;stroke-miterlimit:10;}
	.st96{fill:url(#SVGID_28_);}
	.st97{fill:url(#SVGID_29_);}
	.st98{fill:url(#SVGID_30_);}
	.st99{fill:url(#SVGID_31_);}
	.st100{fill:url(#SVGID_32_);}
	.st101{fill:url(#SVGID_33_);}
	.st102{opacity:0.2;fill:url(#SVGID_34_);}
	.st103{fill:url(#SVGID_35_);}
	.st104{fill:url(#SVGID_36_);}
	.st105{fill:url(#SVGID_37_);}
	.st106{fill:url(#SVGID_38_);}
	.st107{fill:url(#SVGID_39_);}
	.st108{fill:#E5E5E6;}
	.st109{fill:url(#SVGID_40_);}
	.st110{fill:url(#SVGID_41_);}
	.st111{opacity:0.5;}
	.st112{fill:#871FA5;}
	.st113{fill:url(#SVGID_42_);}
	.st114{fill:url(#SVGID_43_);}
	.st115{fill:url(#SVGID_44_);}
	.st116{fill:url(#SVGID_45_);}
	.st117{fill:url(#SVGID_46_);}
	.st118{fill:url(#SVGID_47_);}
	.st119{fill:url(#SVGID_48_);}
	.st120{fill:url(#SVGID_49_);}
	.st121{fill:url(#SVGID_50_);}
	.st122{fill:url(#SVGID_51_);}
	.st123{fill:url(#SVGID_52_);}
	.st124{fill:url(#SVGID_53_);}
	.st125{fill:url(#SVGID_54_);}
	.st126{fill:url(#SVGID_55_);}
	.st127{fill:url(#SVGID_56_);}
	.st128{fill:url(#SVGID_57_);}
	.st129{fill:url(#SVGID_58_);}
	.st130{fill:url(#SVGID_59_);}
	.st131{fill:url(#SVGID_60_);}
	.st132{fill:url(#SVGID_61_);}
	.st133{fill:url(#SVGID_62_);}
	.st134{fill:#4479E6;}
	.st135{fill:url(#SVGID_63_);}
	.st136{fill:url(#SVGID_64_);}
	.st137{fill:url(#SVGID_65_);}
	.st138{fill:url(#SVGID_66_);}
	.st139{fill:url(#SVGID_67_);}
	.st140{fill:url(#SVGID_68_);}
	.st141{fill:url(#SVGID_69_);}
	.st142{fill:url(#SVGID_70_);}
	.st143{fill:url(#SVGID_71_);}
	.st144{fill:url(#SVGID_72_);}
	.st145{fill:url(#SVGID_73_);}
	.st146{opacity:0.5;fill:url(#SVGID_74_);}
	.st147{fill:url(#SVGID_75_);}
	.st148{fill:url(#SVGID_76_);}
	.st149{fill:url(#SVGID_77_);}
	.st150{opacity:0.5;fill:url(#SVGID_78_);}
	.st151{fill:url(#SVGID_79_);}
	.st152{fill:url(#SVGID_80_);}
	.st153{fill:url(#SVGID_81_);}
	.st154{opacity:0.5;fill:url(#SVGID_82_);}
	.st155{fill:url(#SVGID_83_);}
	.st156{fill:url(#SVGID_84_);}
	.st157{fill:#4070B7;}
	.st158{fill:#508CFA;}
	.st159{fill:#5E29D0;}
	.st160{fill:#3C6BBA;}
	.st161{fill:#29497D;}
	.st162{fill:url(#SVGID_85_);}
	.st163{opacity:0.6;fill:url(#SVGID_86_);}
	.st164{opacity:0.5;fill:url(#SVGID_87_);}
	.st165{opacity:0.5;fill:url(#SVGID_88_);}
	.st166{fill:url(#SVGID_89_);}
	.st167{opacity:0.5;fill:url(#SVGID_90_);}
	.st168{opacity:0.8;fill:url(#SVGID_91_);}
	.st169{fill:url(#SVGID_92_);}
	.st170{fill:url(#SVGID_93_);}
	.st171{fill:url(#SVGID_94_);}
	.st172{fill:url(#SVGID_95_);}
	.st173{fill:url(#SVGID_96_);}
	.st174{fill:url(#SVGID_97_);}
	.st175{fill:url(#SVGID_98_);}
	.st176{fill:url(#SVGID_99_);}
	.st177{fill:url(#SVGID_100_);}
	.st178{fill:url(#SVGID_101_);}
	.st179{fill:url(#SVGID_102_);}
	.st180{fill:url(#SVGID_103_);}
	.st181{fill:url(#SVGID_104_);}
</style>
<g>
	<g>
		<path class="st40" d="M216.5,103.2c6.2,35.7-11,85.2-94,95.9c-51.8,6.7-114.8-16.3-108.7-81.4C19,62.8,39.1,0.5,94.1,0.3
			C130,0.2,207.2,48.9,216.5,103.2z"/>
		<path class="st41" d="M4.5,113.7C-6,74.5,21.5,18.4,105.9,10.1c27.2-2.7,61.5,7.2,80.4,27.6c17.8,19.3,21,48.2,21,76
			c0,57.2-47.7,119.1-101.4,103.6c-16.3-4.7-21.6-37.2-42.2-56.9C45.5,142.9,11.5,139.6,4.5,113.7z"/>
	</g>
	<g>
		<path class="st6" d="M134.8,155.3H85.2c0-1.8,0.7-3.5,1.9-4.7c1.2-1.2,2.9-1.9,4.7-1.9h36.3C131.8,148.7,134.8,151.7,134.8,155.3
			L134.8,155.3z M134.8,155.3"/>
		<rect x="95.1" y="138.8" class="st5" width="29.7" height="9.9"/>
		<path class="st6" d="M79.1,72.8h-12c-3.6,0-6.6,3-6.6,6.6v52.8c0,3.6,3,6.6,6.6,6.6h85.8c3.6,0,6.6-3,6.6-6.6V72.8H79.1z
			 M79.1,72.8"/>
		<path class="st2" d="M68.7,79.4c-0.9,0-1.7,0.7-1.7,1.7v49.5c0,0.9,0.7,1.7,1.7,1.7H124c0.5,0,1-0.2,1.3-0.7l4.5-5.9h21.5
			c0.9,0,1.7-0.7,1.7-1.7V79.4H68.7z M68.7,79.4"/>
		<rect x="139.7" y="95.9" class="st25" width="6.6" height="23.1"/>
		<rect x="126.5" y="102.5" class="st48" width="6.6" height="16.5"/>
		<rect x="113.3" y="109.1" class="st37" width="6.6" height="9.9"/>
		<path class="st48" d="M117.5,91.6c0.5,0.8,0.8,1.7,0.8,2.7c0,2.7-2.2,5-5,5c-2.7,0-5-2.2-5-5c0-1.2,0.4-2.2,1.1-3.1
			c0.9-1.2,2.3-1.9,3.9-1.9C115,89.3,116.6,90.3,117.5,91.6L117.5,91.6z M117.5,91.6"/>
		<path class="st48" d="M80.5,102.9c1.8,0.7,3.1,2.5,3.1,4.6c0,2.7-2.2,5-5,5c-2.7,0-5-2.2-5-5c0-2.7,2.2-5,5-5
			C79.3,102.5,80,102.7,80.5,102.9L80.5,102.9z M80.5,102.9"/>
		<path class="st57" d="M101.3,72.8c0.3,1,0.5,2.1,0.5,3.3c0,1.2-0.2,2.3-0.5,3.3c-0.4,1.4-1.1,2.7-2,3.8c-2.1,2.7-5.4,4.4-9.1,4.4
			c-1.6,0-3.1-0.3-4.4-0.9c-3.2-1.3-5.7-4-6.7-7.4c-0.3-1-0.5-2.1-0.5-3.3c0-1.2,0.2-2.3,0.5-3.3c1.4-4.8,5.8-8.3,11.1-8.3
			C95.4,64.6,99.9,68.1,101.3,72.8L101.3,72.8z M101.3,72.8"/>
		<path class="st25" d="M95.1,76.1c0,2.7-2.2,5-5,5c-2.7,0-5-2.2-5-5c0-2.7,2.2-5,5-5C92.9,71.2,95.1,73.4,95.1,76.1L95.1,76.1z
			 M95.1,76.1"/>
		<path class="st49" d="M159.5,72.8c0,1.4-0.2,2.7-0.5,4v0c-0.9,3.7-3.1,6.9-6.1,9.2c-2.8,2.1-6.2,3.3-9.9,3.3
			c-5.1,0-9.7-2.3-12.7-6c-1-1.2-1.8-2.5-2.4-3.9c-0.9-2-1.4-4.3-1.4-6.6c0-9.1,7.4-16.5,16.5-16.5
			C152.1,56.3,159.5,63.7,159.5,72.8L159.5,72.8z M159.5,72.8"/>
		<path class="st42" d="M143,77.8c-0.9,0-1.7-0.7-1.7-1.7h-3.3c0,2.1,1.4,4,3.3,4.6v3.6h3.3v-3.3h3.3v-5c0-2.7-2.2-5-5-5
			c-0.9,0-1.7-0.7-1.7-1.7v-1.7h1.7c0.9,0,1.7,0.7,1.7,1.7h3.3c0-2.1-1.4-4-3.3-4.6v-3.6h-3.3v3.3h-3.3v5c0,2.7,2.2,5,5,5
			c0.9,0,1.7,0.7,1.7,1.7v1.7H143z M143,77.8"/>
		<path class="st42" d="M161.2,72.8c0-10-8.1-18.2-18.2-18.2c-9.5,0-17.2,7.3-18.1,16.5h-22.5c-2-4.8-6.7-8.3-12.2-8.3
			S79.9,66.4,78,71.2H67.1c-4.5,0-8.3,3.7-8.3,8.3v52.8c0,4.5,3.7,8.3,8.3,8.3h26.4v6.6h-1.7c-4.5,0-8.3,3.7-8.3,8.3v1.7h52.8v-1.7
			c0-4.5-3.7-8.3-8.3-8.3h-1.7v-6.6h26.4c4.5,0,8.3-3.7,8.3-8.3V79.4c0-0.9-0.2-1.8-0.5-2.6C161,75.6,161.2,74.2,161.2,72.8
			L161.2,72.8z M143,58c8.2,0,14.9,6.7,14.9,14.9s-6.7,14.9-14.9,14.9c-8.2,0-14.9-6.7-14.9-14.9S134.8,58,143,58L143,58z
			 M83.8,87.7L79.4,101c-0.3,0-0.5-0.1-0.8-0.1c-3.6,0-6.6,3-6.6,6.6c0,3.6,3,6.6,6.6,6.6c3.6,0,6.6-3,6.6-6.6
			c0-2.2-1.1-4.1-2.7-5.3l4.3-13.3c1.1,0.3,2.2,0.4,3.3,0.4c3.6,0,6.9-1.5,9.3-3.8l7.8,6.1c-0.4,0.8-0.6,1.7-0.6,2.6
			c0,3.6,3,6.6,6.6,6.6s6.6-3,6.6-6.6c0-0.7-0.1-1.4-0.4-2.1l10.5-6.7c3.3,3.4,7.9,5.5,13,5.5c3,0,5.8-0.7,8.3-2v35H129l-5,6.6H68.7
			V81.1H78C79.1,83.9,81.2,86.2,83.8,87.7L83.8,87.7z M81.9,107.5c0,1.8-1.5,3.3-3.3,3.3c-1.8,0-3.3-1.5-3.3-3.3
			c0-1.8,1.5-3.3,3.3-3.3C80.5,104.2,81.9,105.7,81.9,107.5L81.9,107.5z M127.9,82.9l-10.2,6.5c-1.2-1.1-2.7-1.8-4.5-1.8
			c-1.5,0-2.9,0.5-4,1.4l-7.8-6.1c0.4-0.6,0.7-1.2,0.9-1.8h24.4C127.2,81.7,127.5,82.3,127.9,82.9L127.9,82.9z M113.3,91
			c1.8,0,3.3,1.5,3.3,3.3s-1.5,3.3-3.3,3.3s-3.3-1.5-3.3-3.3S111.5,91,113.3,91L113.3,91z M124.9,74.5c0.1,1.1,0.3,2.2,0.6,3.3
			h-22.3c0.1-0.5,0.1-1.1,0.1-1.7c0-0.6,0-1.1-0.1-1.7H124.9z M90.2,66.2c5.5,0,9.9,4.4,9.9,9.9c0,5.5-4.4,9.9-9.9,9.9
			c-5.5,0-9.9-4.4-9.9-9.9C80.3,70.7,84.7,66.2,90.2,66.2L90.2,66.2z M132.8,153.7H87.2c0.7-1.9,2.5-3.3,4.7-3.3h36.3
			C130.3,150.4,132.1,151.8,132.8,153.7L132.8,153.7z M123.2,147.1H96.8v-6.6h26.4V147.1z M157.9,132.2c0,2.7-2.2,5-5,5H67.1
			c-2.7,0-5-2.2-5-5V79.4c0-2.7,2.2-5,5-5h10C77,75,77,75.6,77,76.1c0,0.6,0,1.1,0.1,1.7h-8.4c-1.8,0-3.3,1.5-3.3,3.3v49.5
			c0,1.8,1.5,3.3,3.3,3.3H124c1,0,2-0.5,2.6-1.3l4-5.3h20.6c1.8,0,3.3-1.5,3.3-3.3V86.8c1.3-1,2.4-2.3,3.3-3.6V132.2z M157.9,132.2"
			/>
		<path class="st42" d="M154.6,72.8c0,0.9-0.7,1.7-1.7,1.7s-1.7-0.7-1.7-1.7c0-0.9,0.7-1.7,1.7-1.7S154.6,71.9,154.6,72.8
			L154.6,72.8z M154.6,72.8"/>
		<path class="st42" d="M134.8,72.8c0,0.9-0.7,1.7-1.7,1.7s-1.7-0.7-1.7-1.7c0-0.9,0.7-1.7,1.7-1.7S134.8,71.9,134.8,72.8
			L134.8,72.8z M134.8,72.8"/>
		<path class="st42" d="M90.2,82.7c3.6,0,6.6-3,6.6-6.6c0-3.6-3-6.6-6.6-6.6c-3.6,0-6.6,3-6.6,6.6C83.6,79.8,86.6,82.7,90.2,82.7
			L90.2,82.7z M90.2,72.8c1.8,0,3.3,1.5,3.3,3.3c0,1.8-1.5,3.3-3.3,3.3c-1.8,0-3.3-1.5-3.3-3.3C86.9,74.3,88.4,72.8,90.2,72.8
			L90.2,72.8z M90.2,72.8"/>
		<rect x="151.3" y="130.6" class="st42" width="3.3" height="3.3"/>
		<rect x="138.1" y="130.6" class="st42" width="9.9" height="3.3"/>
		<rect x="131.5" y="130.6" class="st42" width="3.3" height="3.3"/>
		<path class="st42" d="M148,94.3h-9.9v23.1h-3.3v-16.5h-9.9v16.5h-3.3v-9.9h-9.9v13.2H148V94.3z M118.3,117.4H115v-6.6h3.3V117.4z
			 M128.2,104.2h3.3v13.2h-3.3V104.2z M144.7,117.4h-3.3V97.6h3.3V117.4z M144.7,117.4"/>
		<rect x="72" y="117.4" class="st42" width="3.3" height="3.3"/>
		<rect x="78.6" y="117.4" class="st42" width="29.7" height="3.3"/>
		<rect x="72" y="124" class="st42" width="3.3" height="3.3"/>
		<rect x="78.6" y="124" class="st42" width="29.7" height="3.3"/>
	</g>
</g>
</svg>
