<?xml version="1.0" encoding="utf-8"?>
<!-- Generator: Adobe Illustrator 22.0.1, SVG Export Plug-In . SVG Version: 6.00 Build 0)  -->
<svg version="1.1" id="Capa_1" xmlns="http://www.w3.org/2000/svg" xmlns:xlink="http://www.w3.org/1999/xlink" x="0px" y="0px"
	 viewBox="0 0 220 220" style="enable-background:new 0 0 220 220;" xml:space="preserve">
<style type="text/css">
	.st0{fill:#DEE0E2;}
	.st1{fill:url(#SVGID_1_);}
	.st2{fill:#FFFFFF;}
	.st3{fill:#9DC44D;}
	.st4{fill:#E7AD47;}
	.st5{fill:#7F7F7F;}
	.st6{fill:#CACACA;}
	.st7{fill:#10181B;}
	.st8{fill:url(#SVGID_2_);}
	.st9{fill:url(#SVGID_3_);}
	.st10{fill:#979797;}
	.st11{fill:url(#SVGID_4_);}
	.st12{fill:#B0B0B0;}
	.st13{fill:#997B55;}
	.st14{fill:#66A8DE;}
	.st15{fill:#D25A2C;}
	.st16{fill:url(#SVGID_5_);}
	.st17{fill:#CECECE;}
	.st18{fill:#363739;}
	.st19{fill:#75CFFA;}
	.st20{fill:#E06B80;}
	.st21{fill:#F3D66E;}
	.st22{fill:#7FDEDA;}
	.st23{fill:#4377EE;}
	.st24{fill:#C7EDFD;}
	.st25{fill:#6FB353;}
	.st26{fill:#EBB32A;}
	.st27{fill:#5A5A5A;}
	.st28{fill:#838383;}
	.st29{fill:#ACACAC;}
	.st30{fill:#DC435F;}
	.st31{fill:#5FA6AE;}
	.st32{fill:#5494FB;}
	.st33{fill:#E4E4E4;}
	.st34{fill:#C2F038;}
	.st35{fill:#67B5E8;}
	.st36{fill:#A8DFF7;}
	.st37{fill:#CB2228;}
	.st38{fill:#CA5144;}
	.st39{fill:#9FD332;}
	.st40{fill:#E8EAEC;}
	.st41{fill:#F2F5F7;}
	.st42{fill:#10171B;}
	.st43{fill:#EDBCBE;}
	.st44{fill:#4E4E4E;}
	.st45{fill:#EEBE85;}
	.st46{fill:#F1F1F1;}
	.st47{opacity:0.75;fill:#F2F5F7;}
	.st48{fill:#DE912F;}
	.st49{fill:#F3D570;}
	.st50{fill:#CACFD7;}
	.st51{fill:#6CBFE7;}
	.st52{fill:#78D4F1;}
	.st53{fill:#DDDDDD;}
	.st54{fill:#69B9FC;}
	.st55{fill:#647890;}
	.st56{fill:#F7EC41;}
	.st57{fill:#EFC52E;}
	.st58{fill:url(#SVGID_6_);}
	.st59{opacity:0.25;fill:url(#SVGID_7_);}
	.st60{opacity:0.2;fill:url(#SVGID_8_);}
	.st61{opacity:0.2;}
	.st62{opacity:0;}
	.st63{opacity:9.090909e-02;}
	.st64{opacity:0.1818;}
	.st65{opacity:0.2727;}
	.st66{opacity:0.3636;}
	.st67{opacity:0.4545;}
	.st68{opacity:0.5455;}
	.st69{opacity:0.6364;}
	.st70{opacity:0.7273;}
	.st71{opacity:0.8182;}
	.st72{opacity:0.9091;}
	.st73{fill:url(#SVGID_9_);}
	.st74{fill:none;stroke:#000000;stroke-width:2;stroke-miterlimit:10;}
	.st75{fill:url(#SVGID_10_);}
	.st76{opacity:0.8182;fill:url(#SVGID_11_);}
	.st77{fill:url(#SVGID_12_);}
	.st78{opacity:0.5;fill:url(#SVGID_13_);}
	.st79{fill:none;stroke:#10171B;stroke-width:2;stroke-miterlimit:10;}
	.st80{fill:url(#SVGID_14_);}
	.st81{fill:url(#SVGID_15_);}
	.st82{fill:url(#SVGID_16_);}
	.st83{fill:url(#SVGID_17_);}
	.st84{fill:url(#SVGID_18_);}
	.st85{fill:url(#SVGID_19_);}
	.st86{fill:url(#SVGID_20_);}
	.st87{opacity:0.25;fill:url(#SVGID_21_);}
	.st88{fill:url(#SVGID_22_);}
	.st89{fill:url(#SVGID_23_);}
	.st90{fill:url(#SVGID_24_);}
	.st91{opacity:0.9;}
	.st92{fill:url(#SVGID_25_);}
	.st93{fill:url(#SVGID_26_);}
	.st94{fill:url(#SVGID_27_);}
	.st95{fill:none;stroke:#10171B;stroke-width:2;stroke-linecap:round;stroke-linejoin:round;stroke-miterlimit:10;}
	.st96{fill:url(#SVGID_28_);}
	.st97{fill:url(#SVGID_29_);}
	.st98{fill:url(#SVGID_30_);}
	.st99{fill:url(#SVGID_31_);}
	.st100{fill:url(#SVGID_32_);}
	.st101{fill:url(#SVGID_33_);}
	.st102{opacity:0.2;fill:url(#SVGID_34_);}
	.st103{fill:url(#SVGID_35_);}
	.st104{fill:url(#SVGID_36_);}
	.st105{fill:url(#SVGID_37_);}
	.st106{fill:url(#SVGID_38_);}
	.st107{fill:url(#SVGID_39_);}
	.st108{fill:#E5E5E6;}
	.st109{fill:url(#SVGID_40_);}
	.st110{fill:url(#SVGID_41_);}
	.st111{opacity:0.5;}
	.st112{fill:#871FA5;}
	.st113{fill:url(#SVGID_42_);}
	.st114{fill:url(#SVGID_43_);}
	.st115{fill:url(#SVGID_44_);}
	.st116{fill:url(#SVGID_45_);}
	.st117{fill:url(#SVGID_46_);}
	.st118{fill:url(#SVGID_47_);}
	.st119{fill:url(#SVGID_48_);}
	.st120{fill:url(#SVGID_49_);}
	.st121{fill:url(#SVGID_50_);}
	.st122{fill:url(#SVGID_51_);}
	.st123{fill:url(#SVGID_52_);}
	.st124{fill:url(#SVGID_53_);}
	.st125{fill:url(#SVGID_54_);}
	.st126{fill:url(#SVGID_55_);}
	.st127{fill:url(#SVGID_56_);}
	.st128{fill:url(#SVGID_57_);}
	.st129{fill:url(#SVGID_58_);}
	.st130{fill:url(#SVGID_59_);}
	.st131{fill:url(#SVGID_60_);}
	.st132{fill:url(#SVGID_61_);}
	.st133{fill:url(#SVGID_62_);}
	.st134{fill:#4479E6;}
	.st135{fill:url(#SVGID_63_);}
	.st136{fill:url(#SVGID_64_);}
	.st137{fill:url(#SVGID_65_);}
	.st138{fill:url(#SVGID_66_);}
	.st139{fill:url(#SVGID_67_);}
	.st140{fill:url(#SVGID_68_);}
	.st141{fill:url(#SVGID_69_);}
	.st142{fill:url(#SVGID_70_);}
	.st143{fill:url(#SVGID_71_);}
	.st144{fill:url(#SVGID_72_);}
	.st145{fill:url(#SVGID_73_);}
	.st146{opacity:0.5;fill:url(#SVGID_74_);}
	.st147{fill:url(#SVGID_75_);}
	.st148{fill:url(#SVGID_76_);}
	.st149{fill:url(#SVGID_77_);}
	.st150{opacity:0.5;fill:url(#SVGID_78_);}
	.st151{fill:url(#SVGID_79_);}
	.st152{fill:url(#SVGID_80_);}
	.st153{fill:url(#SVGID_81_);}
	.st154{opacity:0.5;fill:url(#SVGID_82_);}
	.st155{fill:url(#SVGID_83_);}
	.st156{fill:url(#SVGID_84_);}
	.st157{fill:#4070B7;}
	.st158{fill:#508CFA;}
	.st159{fill:#5E29D0;}
	.st160{fill:#3C6BBA;}
	.st161{fill:#29497D;}
	.st162{fill:url(#SVGID_85_);}
	.st163{opacity:0.6;fill:url(#SVGID_86_);}
	.st164{opacity:0.5;fill:url(#SVGID_87_);}
	.st165{opacity:0.5;fill:url(#SVGID_88_);}
	.st166{fill:url(#SVGID_89_);}
	.st167{opacity:0.5;fill:url(#SVGID_90_);}
	.st168{opacity:0.8;fill:url(#SVGID_91_);}
	.st169{fill:url(#SVGID_92_);}
	.st170{fill:url(#SVGID_93_);}
	.st171{fill:url(#SVGID_94_);}
	.st172{fill:url(#SVGID_95_);}
	.st173{fill:url(#SVGID_96_);}
	.st174{fill:url(#SVGID_97_);}
	.st175{fill:url(#SVGID_98_);}
	.st176{fill:url(#SVGID_99_);}
	.st177{fill:url(#SVGID_100_);}
	.st178{fill:url(#SVGID_101_);}
	.st179{fill:url(#SVGID_102_);}
	.st180{fill:url(#SVGID_103_);}
	.st181{fill:url(#SVGID_104_);}
</style>
<g>
	<g>
		<path class="st40" d="M216.5,103.2c6.2,35.7-11,85.2-94,95.9c-51.8,6.7-114.8-16.3-108.7-81.4C19,62.8,39.1,0.5,94.1,0.3
			C130,0.2,207.2,48.9,216.5,103.2z"/>
		<path class="st47" d="M4.5,113.7C-6,74.5,21.5,18.4,105.9,10.1c27.2-2.7,61.5,7.2,80.4,27.6c17.8,19.3,21,48.2,21,76
			c0,57.2-47.7,119.1-101.4,103.6c-16.3-4.7-21.6-37.2-42.2-56.9C45.5,142.9,11.5,139.6,4.5,113.7z"/>
	</g>
	<g>
		<path class="st53" d="M94.2,147.9c-0.4,3.5-3.2,4.4-3.9,5.1c9.8,0,19.7,0,29.5,0c-0.6-0.6-3.5-1.6-3.9-5.1l-0.9-8.3H95.1
			L94.2,147.9z M94.2,147.9"/>
		<path class="st33" d="M122.9,152.8H87.1c-1.6,0-3,1.3-3,3c0,1.6,1.3,3,3,3h35.8c1.6,0,3-1.3,3-3
			C125.9,154.2,124.6,152.8,122.9,152.8L122.9,152.8z M122.9,152.8"/>
		<path class="st53" d="M95.3,155.8c0-1.6,1.3-3,3-3H87.1c-1.6,0-3,1.3-3,3c0,1.6,1.3,3,3,3h11.1C96.6,158.8,95.3,157.4,95.3,155.8
			L95.3,155.8z M95.3,155.8"/>
		<path class="st33" d="M126.6,109.8c0-3,2.4-5.4,5.4-5.4h19.3V67.2c0-3.3-2.7-6-6-6H64.9c-3.3,0-6,2.7-6,6v66.7c0,3.3,2.7,6,6,6
			h61.7V109.8z M126.6,109.8"/>
		<path class="st5" d="M126.6,109.8c0-3,2.4-5.4,5.4-5.4h19.3V67.2c0-3.3-2.7-6-6-6H64.9c-3.3,0-6,2.7-6,6v60.5h67.7V109.8z
			 M126.6,109.8"/>
		<path class="st2" d="M64.9,78.3v42.2c0,0.6,0.5,1,1,1h60.5v-11.7c0-3,2.4-5.4,5.4-5.4h13.4V78.3H64.9z M64.9,78.3"/>
		<path class="st54" d="M91.2,91.1l3.4,14.4h19.7c0.6,0,1.1-0.4,1.3-1l3.1-12.6c0.1-0.4-0.2-0.8-0.7-0.8
			C116.4,91.1,92.9,91.1,91.2,91.1L91.2,91.1z M91.2,91.1"/>
		<path class="st18" d="M144.1,67.2H65.9c-0.6,0-1,0.5-1,1v10.7h80.3V68.2C145.1,67.6,144.7,67.2,144.1,67.2L144.1,67.2z
			 M144.1,67.2"/>
		<path class="st5" d="M155.6,103.8h-24.5c-3,0-5.4,2.4-5.4,5.4v44.2c0,3,2.4,5.4,5.4,5.4h24.5c3,0,5.4-2.4,5.4-5.4v-44.2
			C161,106.2,158.6,103.8,155.6,103.8L155.6,103.8z M155.6,103.8"/>
		<path class="st33" d="M155.9,152.8c0,0.3-0.3,0.6-0.6,0.6h-23.4c-0.3,0-0.6-0.3-0.6-0.6v-43c0-0.3,0.3-0.6,0.6-0.6h4.8
			c0.4,0,0.8,0.3,0.8,0.8v2c0,0.9,0.7,1.5,1.5,1.5h9.8c0.8,0,1.5-0.7,1.5-1.5V110c0-0.4,0.3-0.8,0.8-0.8h4.4c0.3,0,0.6,0.3,0.6,0.6
			V152.8z M155.9,152.8"/>
		<path class="st55" d="M100.9,112.9c0,1.5-1.2,2.7-2.7,2.7c-1.5,0-2.7-1.2-2.7-2.7c0-1.5,1.2-2.7,2.7-2.7
			C99.7,110.2,100.9,111.4,100.9,112.9L100.9,112.9z M100.9,112.9"/>
		<path class="st55" d="M116.1,112.9c0,1.5-1.2,2.7-2.7,2.7c-1.5,0-2.7-1.2-2.7-2.7c0-1.5,1.2-2.7,2.7-2.7
			C114.9,110.2,116.1,111.4,116.1,112.9L116.1,112.9z M116.1,112.9"/>
		<path class="st42" d="M136.4,107.5h-4.7c-1.2,0-2.2,1-2.2,2.2v43.2c0,1.2,1,2.2,2.2,2.2h23.5c1.2,0,2.2-1,2.2-2.2v-43.2
			c0-1.2-1-2.2-2.2-2.2h-4.4c-1.3,0-2.3,1-2.3,2.3v2.1l-9.8,0v-2.1C138.7,108.5,137.7,107.5,136.4,107.5L136.4,107.5z M148.6,115
			c1.7,0,3-1.3,3-3v-1.4h2.8v41.4h-21.7v-41.4h3v1.3c0,1.7,1.4,3.1,3.1,3.1H148.6z M148.6,115"/>
		<path class="st42" d="M144.7,110.4c0.9,0,1.5-0.7,1.5-1.5c0-0.9-0.7-1.5-1.5-1.5h-2.4c-0.9,0-1.5,0.7-1.5,1.5
			c0,0.9,0.7,1.5,1.5,1.5H144.7z M144.7,110.4"/>
		<path class="st42" d="M103.6,134.3c0,0.1,0.1,0.2,0.1,0.3c0.1,0.1,0.1,0.2,0.2,0.2c0.1,0.1,0.2,0.1,0.2,0.2
			c0.1,0.1,0.2,0.1,0.3,0.1c0.1,0,0.2,0.1,0.3,0.1c0.1,0,0.2,0,0.3,0c0.1,0,0.2,0,0.3,0c0.1,0,0.2,0,0.3-0.1c0.1,0,0.2-0.1,0.3-0.1
			c0.1-0.1,0.2-0.1,0.2-0.2c0.3-0.3,0.5-0.7,0.5-1.1c0-0.1,0-0.2,0-0.3c0-0.1,0-0.2-0.1-0.3c0-0.1-0.1-0.2-0.1-0.3
			c-0.1-0.1-0.1-0.2-0.2-0.2c-0.1-0.1-0.2-0.1-0.2-0.2c-0.1-0.1-0.2-0.1-0.3-0.1c-0.1,0-0.2-0.1-0.3-0.1c-0.2,0-0.4,0-0.6,0
			c-0.1,0-0.2,0-0.3,0.1c-0.1,0-0.2,0.1-0.3,0.1c-0.1,0.1-0.2,0.1-0.2,0.2c-0.1,0.1-0.1,0.1-0.2,0.2c-0.1,0.1-0.1,0.2-0.1,0.3
			c0,0.1-0.1,0.2-0.1,0.3c0,0.1,0,0.2,0,0.3c0,0.1,0,0.2,0,0.3C103.5,134.1,103.6,134.2,103.6,134.3L103.6,134.3z M103.6,134.3"/>
		<path class="st42" d="M144,146.1c-0.9-0.2-1.8,0.5-1.8,1.5c0,0.9,0.7,1.5,1.5,1.5c0.8,0,1.5-0.7,1.5-1.5
			C145.2,146.9,144.7,146.2,144,146.1L144,146.1z M144,146.1"/>
		<path class="st42" d="M149.5,133h-11.6c-0.9,0-1.5,0.7-1.5,1.5c0,0.9,0.7,1.5,1.5,1.5h11.6c0.9,0,1.5-0.7,1.5-1.5
			C151,133.7,150.3,133,149.5,133L149.5,133z M149.5,133"/>
		<path class="st42" d="M149.5,140h-11.6c-0.9,0-1.5,0.7-1.5,1.5c0,0.9,0.7,1.5,1.5,1.5h11.6c0.9,0,1.5-0.7,1.5-1.5
			C151,140.7,150.3,140,149.5,140L149.5,140z M149.5,140"/>
		<path class="st42" d="M136.4,120.6c0,0.9,0.7,1.5,1.5,1.5h11.6c0.9,0,1.5-0.7,1.5-1.5c0-0.9-0.7-1.5-1.5-1.5h-11.6
			C137,119.1,136.4,119.7,136.4,120.6L136.4,120.6z M136.4,120.6"/>
		<path class="st42" d="M149.5,126h-11.6c-0.9,0-1.5,0.7-1.5,1.5c0,0.9,0.7,1.5,1.5,1.5h11.6c0.9,0,1.5-0.7,1.5-1.5
			C151,126.7,150.3,126,149.5,126L149.5,126z M149.5,126"/>
		<path class="st42" d="M85,86.7h3.6c0.2,0.7,5.4,22.7,5.4,22.7c0,0,0,0,0,0c0.1,0.5,0.4,1,0.7,1.3c-0.4,0.6-0.6,1.4-0.6,2.2
			c0,2.3,1.9,4.2,4.2,4.2c2.3,0,4.2-1.9,4.2-4.2c0-0.4-0.1-0.7-0.1-1.1h7.2c-0.1,0.3-0.1,0.7-0.1,1.1c0,2.3,1.9,4.2,4.2,4.2
			c2.3,0,4.2-1.9,4.2-4.2c0-2.1-1.6-3.8-3.6-4.1c-0.1,0-0.3-0.1-0.4-0.1H97.1c0,0-0.1,0-0.1-0.1l-0.4-1.8h18.6
			c0.7,0,1.3-0.5,1.5-1.2l3.3-13.5c0,0,0,0,0,0c0.3-1.4-0.8-2.7-2.2-2.7H92.5l-1.1-4.7c-0.2-0.7-0.8-1.2-1.5-1.2H85
			c-0.9,0-1.5,0.7-1.5,1.5C83.5,86,84.2,86.7,85,86.7L85,86.7z M113.5,111.8c0.6,0,1.1,0.5,1.1,1.1c0,0.6-0.5,1.1-1.1,1.1
			c-0.6,0-1.1-0.5-1.1-1.1C112.4,112.3,112.9,111.8,113.5,111.8L113.5,111.8z M98.2,111.8c0.6,0,1.1,0.5,1.1,1.1
			c0,0.6-0.5,1.1-1.1,1.1c-0.6,0-1.1-0.5-1.1-1.1C97.1,112.3,97.6,111.8,98.2,111.8L98.2,111.8z M116.7,92.6l-2.8,11.2H95.8
			l-2.7-11.2H116.7z M116.7,92.6"/>
		<path class="st37" d="M73.1,74.8c0.9,0,1.5-0.7,1.5-1.5c0-0.8-0.7-1.5-1.5-1.5c-0.8,0-1.5,0.7-1.5,1.5
			C71.5,74.1,72.2,74.8,73.1,74.8L73.1,74.8z M73.1,74.8"/>
		<path class="st56" d="M78.9,74.8c0.9,0,1.5-0.7,1.5-1.5c0-0.7-0.5-1.4-1.2-1.5c-1-0.2-1.8,0.6-1.8,1.5
			C77.3,74.1,78,74.8,78.9,74.8L78.9,74.8z M78.9,74.8"/>
		<path class="st25" d="M84.7,74.8c0.8,0,1.5-0.7,1.5-1.5c0-0.7-0.5-1.4-1.2-1.5c-1-0.2-1.8,0.5-1.8,1.5
			C83.2,74.2,83.9,74.8,84.7,74.8L84.7,74.8z M84.7,74.8"/>
		<path class="st42" d="M91.7,74.8h44.8c0.9,0,1.5-0.7,1.5-1.5c0-0.9-0.7-1.5-1.5-1.5H91.7c-0.9,0-1.5,0.7-1.5,1.5
			C90.2,74.1,90.9,74.8,91.7,74.8L91.7,74.8z M91.7,74.8"/>
		<path class="st42" d="M58.9,108.2c0.9,0,1.5-0.7,1.5-1.5V67.2c0-2.4,2-4.4,4.4-4.4h64.4c0.9,0,1.5-0.7,1.5-1.5
			c0-0.9-0.7-1.5-1.5-1.5H64.8c-4.1,0-7.5,3.4-7.5,7.5v39.5C57.3,107.6,58,108.2,58.9,108.2L58.9,108.2z M58.9,108.2"/>
		<path class="st42" d="M161.1,139.5c0.9,0,1.5-0.7,1.5-1.5v-28.8c0-3.8-3.1-6.9-6.9-6.9h-3v-35c0-4.1-3.4-7.5-7.5-7.5h-8.9
			c-0.9,0-1.5,0.7-1.5,1.5c0,0.9,0.7,1.5,1.5,1.5h8.9c2.4,0,4.4,2,4.4,4.4v35h-3v-34c0-1.4-1.2-2.6-2.6-2.6H65.9
			c-1.4,0-2.6,1.1-2.6,2.6v52.3c0,1.4,1.2,2.6,2.6,2.6h58.4v2.9H60.4v-12.2c0-0.9-0.7-1.5-1.5-1.5c-0.9,0-1.5,0.7-1.5,1.5v19.8
			c0,4.1,3.4,7.5,7.5,7.5h28.5l-0.7,6.3c-0.1,1.1-0.8,2.2-1.5,2.7l-1.3,0.9H87c-2.5,0-4.6,2-4.6,4.6c0,2.5,2,4.6,4.6,4.6h36.1
			c1.4,0,2.7-0.7,3.6-1.7c1.2,1.1,2.8,1.7,4.6,1.7h24.6c3.8,0,6.9-3.1,6.9-6.9v-8.3c0-0.9-0.7-1.5-1.5-1.5c-0.9,0-1.5,0.7-1.5,1.5
			v8.3c0,2.1-1.7,3.8-3.8,3.8h-24.6c-2.1,0-3.8-1.7-3.8-3.8c0-1.5,0-31.3,0-44.3c0-2.1,1.7-3.8,3.8-3.8c5,0,19.4,0,24.6,0
			c2.1,0,3.8,1.7,3.8,3.8v28.8C159.6,138.8,160.3,139.5,161.1,139.5L161.1,139.5z M64.8,138.2c-2.4,0-4.4-2-4.4-4.4v-4.5h63.9v9
			C121.2,138.2,67.2,138.2,64.8,138.2L64.8,138.2z M124.3,141.3v10.1c-0.4-0.1-0.8-0.2-1.2-0.2h-2.8l-1.3-0.9
			c-0.8-0.5-1.4-1.6-1.5-2.7l-0.7-6.3H124.3z M115.6,151.2H94.5c0.6-0.9,1.1-2.1,1.2-3.2c0,0,0,0,0,0l0.8-6.7h17.1l0.8,6.7
			C114.5,149.1,115,150.2,115.6,151.2L115.6,151.2z M123.1,157.2H87c-0.8,0-1.5-0.7-1.5-1.5c0-0.8,0.7-1.5,1.5-1.5
			c8,0,28.1,0,36.1,0c0.8,0,1.5,0.7,1.5,1.5C124.6,156.6,123.9,157.2,123.1,157.2L123.1,157.2z M143.6,102.2h-12.4
			c-3.8,0-6.9,3.1-6.9,6.9v10.9H66.4V80.5h77.2V102.2z M143.6,77.4H66.4v-8.6h77.2V77.4z M143.6,77.4"/>
	</g>
</g>
</svg>
