<?xml version="1.0" encoding="utf-8"?>
<!-- Generator: Adobe Illustrator 22.0.1, SVG Export Plug-In . SVG Version: 6.00 Build 0)  -->
<svg version="1.1" id="Capa_1" xmlns="http://www.w3.org/2000/svg" xmlns:xlink="http://www.w3.org/1999/xlink" x="0px" y="0px"
	 viewBox="0 0 220 220" style="enable-background:new 0 0 220 220;" xml:space="preserve">
<style type="text/css">
	.st0{fill:#DEE0E2;}
	.st1{fill:url(#SVGID_1_);}
	.st2{fill:#FFFFFF;}
	.st3{fill:#9DC44D;}
	.st4{fill:#E7AD47;}
	.st5{fill:#7F7F7F;}
	.st6{fill:#CACACA;}
	.st7{fill:#10181B;}
	.st8{fill:url(#SVGID_2_);}
	.st9{fill:url(#SVGID_3_);}
	.st10{fill:#979797;}
	.st11{fill:url(#SVGID_4_);}
	.st12{fill:#B0B0B0;}
	.st13{fill:#997B55;}
	.st14{fill:#66A8DE;}
	.st15{fill:#D25A2C;}
	.st16{fill:url(#SVGID_5_);}
	.st17{fill:#CECECE;}
	.st18{fill:#363739;}
	.st19{fill:#75CFFA;}
	.st20{fill:#E06B80;}
	.st21{fill:#F3D66E;}
	.st22{fill:#7FDEDA;}
	.st23{fill:#4377EE;}
	.st24{fill:#C7EDFD;}
	.st25{fill:#6FB353;}
	.st26{fill:#EBB32A;}
	.st27{fill:#5A5A5A;}
	.st28{fill:#838383;}
	.st29{fill:#ACACAC;}
	.st30{fill:#DC435F;}
	.st31{fill:#5FA6AE;}
	.st32{fill:#5494FB;}
	.st33{fill:#E4E4E4;}
	.st34{fill:#C2F038;}
	.st35{fill:#67B5E8;}
	.st36{fill:#A8DFF7;}
	.st37{fill:#CB2228;}
	.st38{fill:#CA5144;}
	.st39{fill:#9FD332;}
	.st40{fill:#E8EAEC;}
	.st41{fill:#F2F5F7;}
	.st42{fill:#10171B;}
	.st43{fill:#EDBCBE;}
	.st44{fill:#4E4E4E;}
	.st45{fill:#EEBE85;}
	.st46{fill:#F1F1F1;}
	.st47{opacity:0.75;fill:#F2F5F7;}
	.st48{fill:#DE912F;}
	.st49{fill:#F3D570;}
	.st50{fill:#CACFD7;}
	.st51{fill:#6CBFE7;}
	.st52{fill:#78D4F1;}
	.st53{fill:#DDDDDD;}
	.st54{fill:#69B9FC;}
	.st55{fill:#647890;}
	.st56{fill:#F7EC41;}
	.st57{fill:#EFC52E;}
	.st58{fill:url(#SVGID_6_);}
	.st59{opacity:0.25;fill:url(#SVGID_7_);}
	.st60{opacity:0.2;fill:url(#SVGID_8_);}
	.st61{opacity:0.2;}
	.st62{opacity:0;}
	.st63{opacity:9.090909e-02;}
	.st64{opacity:0.1818;}
	.st65{opacity:0.2727;}
	.st66{opacity:0.3636;}
	.st67{opacity:0.4545;}
	.st68{opacity:0.5455;}
	.st69{opacity:0.6364;}
	.st70{opacity:0.7273;}
	.st71{opacity:0.8182;}
	.st72{opacity:0.9091;}
	.st73{fill:url(#SVGID_9_);}
	.st74{fill:none;stroke:#000000;stroke-width:2;stroke-miterlimit:10;}
	.st75{fill:url(#SVGID_10_);}
	.st76{opacity:0.8182;fill:url(#SVGID_11_);}
	.st77{fill:url(#SVGID_12_);}
	.st78{opacity:0.5;fill:url(#SVGID_13_);}
	.st79{fill:none;stroke:#10171B;stroke-width:2;stroke-miterlimit:10;}
	.st80{fill:url(#SVGID_14_);}
	.st81{fill:url(#SVGID_15_);}
	.st82{fill:url(#SVGID_16_);}
	.st83{fill:url(#SVGID_17_);}
	.st84{fill:url(#SVGID_18_);}
	.st85{fill:url(#SVGID_19_);}
	.st86{fill:url(#SVGID_20_);}
	.st87{opacity:0.25;fill:url(#SVGID_21_);}
	.st88{fill:url(#SVGID_22_);}
	.st89{fill:url(#SVGID_23_);}
	.st90{fill:url(#SVGID_24_);}
	.st91{opacity:0.9;}
	.st92{fill:url(#SVGID_25_);}
	.st93{fill:url(#SVGID_26_);}
	.st94{fill:url(#SVGID_27_);}
	.st95{fill:none;stroke:#10171B;stroke-width:2;stroke-linecap:round;stroke-linejoin:round;stroke-miterlimit:10;}
	.st96{fill:url(#SVGID_28_);}
	.st97{fill:url(#SVGID_29_);}
	.st98{fill:url(#SVGID_30_);}
	.st99{fill:url(#SVGID_31_);}
	.st100{fill:url(#SVGID_32_);}
	.st101{fill:url(#SVGID_33_);}
	.st102{opacity:0.2;fill:url(#SVGID_34_);}
	.st103{fill:url(#SVGID_35_);}
	.st104{fill:url(#SVGID_36_);}
	.st105{fill:url(#SVGID_37_);}
	.st106{fill:url(#SVGID_38_);}
	.st107{fill:url(#SVGID_39_);}
	.st108{fill:#E5E5E6;}
	.st109{fill:url(#SVGID_40_);}
	.st110{fill:url(#SVGID_41_);}
	.st111{opacity:0.5;}
	.st112{fill:#871FA5;}
	.st113{fill:url(#SVGID_42_);}
	.st114{fill:url(#SVGID_43_);}
	.st115{fill:url(#SVGID_44_);}
	.st116{fill:url(#SVGID_45_);}
	.st117{fill:url(#SVGID_46_);}
	.st118{fill:url(#SVGID_47_);}
	.st119{fill:url(#SVGID_48_);}
	.st120{fill:url(#SVGID_49_);}
	.st121{fill:url(#SVGID_50_);}
	.st122{fill:url(#SVGID_51_);}
	.st123{fill:url(#SVGID_52_);}
	.st124{fill:url(#SVGID_53_);}
	.st125{fill:url(#SVGID_54_);}
	.st126{fill:url(#SVGID_55_);}
	.st127{fill:url(#SVGID_56_);}
	.st128{fill:url(#SVGID_57_);}
	.st129{fill:url(#SVGID_58_);}
	.st130{fill:url(#SVGID_59_);}
	.st131{fill:url(#SVGID_60_);}
	.st132{fill:url(#SVGID_61_);}
	.st133{fill:url(#SVGID_62_);}
	.st134{fill:#4479E6;}
	.st135{fill:url(#SVGID_63_);}
	.st136{fill:url(#SVGID_64_);}
	.st137{fill:url(#SVGID_65_);}
	.st138{fill:url(#SVGID_66_);}
	.st139{fill:url(#SVGID_67_);}
	.st140{fill:url(#SVGID_68_);}
	.st141{fill:url(#SVGID_69_);}
	.st142{fill:url(#SVGID_70_);}
	.st143{fill:url(#SVGID_71_);}
	.st144{fill:url(#SVGID_72_);}
	.st145{fill:url(#SVGID_73_);}
	.st146{opacity:0.5;fill:url(#SVGID_74_);}
	.st147{fill:url(#SVGID_75_);}
	.st148{fill:url(#SVGID_76_);}
	.st149{fill:url(#SVGID_77_);}
	.st150{opacity:0.5;fill:url(#SVGID_78_);}
	.st151{fill:url(#SVGID_79_);}
	.st152{fill:url(#SVGID_80_);}
	.st153{fill:url(#SVGID_81_);}
	.st154{opacity:0.5;fill:url(#SVGID_82_);}
	.st155{fill:url(#SVGID_83_);}
	.st156{fill:url(#SVGID_84_);}
	.st157{fill:#4070B7;}
	.st158{fill:#508CFA;}
	.st159{fill:#5E29D0;}
	.st160{fill:#3C6BBA;}
	.st161{fill:#29497D;}
	.st162{fill:url(#SVGID_85_);}
	.st163{opacity:0.6;fill:url(#SVGID_86_);}
	.st164{opacity:0.5;fill:url(#SVGID_87_);}
	.st165{opacity:0.5;fill:url(#SVGID_88_);}
	.st166{fill:url(#SVGID_89_);}
	.st167{opacity:0.5;fill:url(#SVGID_90_);}
	.st168{opacity:0.8;fill:url(#SVGID_91_);}
	.st169{fill:url(#SVGID_92_);}
	.st170{fill:url(#SVGID_93_);}
	.st171{fill:url(#SVGID_94_);}
	.st172{fill:url(#SVGID_95_);}
	.st173{fill:url(#SVGID_96_);}
	.st174{fill:url(#SVGID_97_);}
	.st175{fill:url(#SVGID_98_);}
	.st176{fill:url(#SVGID_99_);}
	.st177{fill:url(#SVGID_100_);}
	.st178{fill:url(#SVGID_101_);}
	.st179{fill:url(#SVGID_102_);}
	.st180{fill:url(#SVGID_103_);}
	.st181{fill:url(#SVGID_104_);}
</style>
<g>
	<g>
		<path class="st40" d="M216.5,103.2c6.2,35.7-11,85.2-94,95.9c-51.8,6.7-114.8-16.3-108.7-81.4C19,62.8,39.1,0.5,94.1,0.3
			C130,0.2,207.2,48.9,216.5,103.2z"/>
		<path class="st47" d="M4.5,113.7C-6,74.5,21.5,18.4,105.9,10.1c27.2-2.7,61.5,7.2,80.4,27.6c17.8,19.3,21,48.2,21,76
			c0,57.2-47.7,119.1-101.4,103.6c-16.3-4.7-21.6-37.2-42.2-56.9C45.5,142.9,11.5,139.6,4.5,113.7z"/>
	</g>
	<g>
		<path class="st2" d="M57.7,141.3V85.8h92v39.9c-0.1-6.7-1.7-13.2-4.9-19.1c-0.6-1.2-1.3-2.3-2-3.4l-5-7.6
			c-1.2-1.8-3.2-2.9-5.4-2.9c-2.2,0-4.2,1.1-5.4,2.9l-5,7.6c-0.7,1.1-1.4,2.3-2,3.4c-1.3,2.4-2.3,4.9-3.1,7.5
			c-1.2,3.9-1.8,7.9-1.8,11.9c0,1.6,0.1,3.2,0.3,4.8l-0.3,0l-10.4,8.7l-1.1,5.3l-0.7-0.1H61.2C59.3,144.8,57.7,143.2,57.7,141.3
			L57.7,141.3z M57.7,141.3"/>
		<path class="st18" d="M149.7,68.4v17.4h-92V68.4c0-1.9,1.6-3.5,3.5-3.5h85.1C148.2,64.9,149.7,66.5,149.7,68.4L149.7,68.4z
			 M149.7,68.4"/>
		<rect x="92.5" y="71.9" class="st22" width="6.9" height="6.9"/>
		<rect x="78.6" y="71.9" class="st21" width="6.9" height="6.9"/>
		<rect x="64.7" y="71.9" class="st37" width="6.9" height="6.9"/>
		<rect x="95.9" y="92.7" class="st25" width="6.9" height="34.7"/>
		<rect x="82" y="106.6" class="st48" width="6.9" height="20.8"/>
		<rect x="68.2" y="113.5" class="st49" width="6.9" height="13.9"/>
		<path class="st37" d="M121.5,148.2h-18.7l0.7-3.3l1.1-5.3l10.4-8.7l0.3,0c0.4,3.6,1.3,7.1,2.7,10.4c0.9,2.3,2,4.5,3.3,6.6
			L121.5,148.2z M121.5,148.2"/>
		<path class="st37" d="M160.1,139.6l1.7,8.7h-18.7l0.2-0.4c1.3-2.1,2.4-4.3,3.3-6.6c0.5-1.3,1-2.6,1.4-3.9c0.6-2.1,1.1-4.3,1.3-6.5
			l0.3,0L160.1,139.6z M160.1,139.6"/>
		<path class="st37" d="M141.8,153.6c1.7,4.2,1,9-1.9,12.5l-2.4,3h-1.7c0-3.3-1.3-6.5-3.7-8.9l-1.5-1.5l-3.5,6.9l-1.6-1.2
			c-3.1-2.4-4.3-6.5-2.9-10.2l1-2.5h17.4L141.8,153.6z M141.8,153.6"/>
		<path class="st37" d="M142.8,103.1c0.7,1.1,1.4,2.3,2,3.4h-25c0.6-1.2,1.3-2.3,2-3.4l5-7.6c1.2-1.8,3.2-2.9,5.4-2.9
			c2.2,0,4.2,1.1,5.4,2.9L142.8,103.1z M142.8,103.1"/>
		<path class="st50" d="M144.9,106.6h-25c-1.3,2.4-2.3,4.9-3.1,7.5c-1.2,3.9-1.8,7.9-1.8,11.9c0,1.6,0.1,3.2,0.3,4.8
			c0.4,3.6,1.3,7.1,2.7,10.4c0.9,2.3,2,4.5,3.3,6.6l0.2,0.4l2.2,3.5h17.4l2.2-3.5l0.2-0.4c1.3-2.1,2.4-4.3,3.3-6.6
			c0.5-1.3,1-2.6,1.4-3.9c0.6-2.1,1.1-4.3,1.3-6.5c0.2-1.6,0.3-3.2,0.3-4.8c0-0.1,0-0.2,0-0.3C149.7,119,148,112.5,144.9,106.6
			L144.9,106.6z M144.9,106.6"/>
		<path class="st51" d="M132.4,113.5c5.7,0,10.4,4.7,10.4,10.4c0,5.7-4.7,10.4-10.4,10.4c-5.7,0-10.4-4.7-10.4-10.4
			C122,118.2,126.6,113.5,132.4,113.5L132.4,113.5z M132.4,113.5"/>
		<path class="st52" d="M135.8,123.9c0,1.9-1.6,3.5-3.5,3.5c-1.9,0-3.5-1.6-3.5-3.5s1.6-3.5,3.5-3.5
			C134.3,120.5,135.8,122,135.8,123.9L135.8,123.9z M135.8,123.9"/>
		<path class="st42" d="M132.4,111.8c-6.7,0-12.2,5.5-12.2,12.2c0,6.7,5.5,12.2,12.2,12.2c6.7,0,12.2-5.5,12.2-12.2
			C144.5,117.2,139.1,111.8,132.4,111.8L132.4,111.8z M132.4,132.6c-4.8,0-8.7-3.9-8.7-8.7c0-4.8,3.9-8.7,8.7-8.7
			c4.8,0,8.7,3.9,8.7,8.7C141.1,128.7,137.2,132.6,132.4,132.6L132.4,132.6z M132.4,132.6"/>
		<path class="st42" d="M132.4,118.7c-2.9,0-5.2,2.3-5.2,5.2s2.3,5.2,5.2,5.2c2.9,0,5.2-2.3,5.2-5.2S135.2,118.7,132.4,118.7
			L132.4,118.7z M132.4,125.7c-1,0-1.7-0.8-1.7-1.7s0.8-1.7,1.7-1.7c1,0,1.7,0.8,1.7,1.7S133.3,125.7,132.4,125.7L132.4,125.7z
			 M132.4,125.7"/>
		<path class="st42" d="M143,151.9l1.2-1.9H164l-2.3-11.4l-10.5-8.7c0.1-1.3,0.2-2.6,0.2-3.9c0-0.1,0-0.2,0-0.3h0V68.4
			c0-2.9-2.3-5.2-5.2-5.2H61.2c-2.9,0-5.2,2.3-5.2,5.2v72.9c0,2.9,2.3,5.2,5.2,5.2h40.2l-0.7,3.5h19.8l1.2,1.9l-0.7,1.7
			c-1.7,4.4-0.3,9.4,3.4,12.2l3.3,2.5l3.3-6.6c1.9,2,3,4.7,3,7.5v1.7h4.3l2.9-3.6c3.2-4,4-9.5,2.1-14.3L143,151.9z M150.7,134
			l7.9,6.6l1.2,6h-13.5C148.4,142.6,149.9,138.3,150.7,134L150.7,134z M59.5,68.4c0-1,0.8-1.7,1.7-1.7h85.1c1,0,1.7,0.8,1.7,1.7V84
			H59.5V68.4z M102.1,143H61.2c-1,0-1.7-0.8-1.7-1.7V87.5H148v21.7c-1-2.4-2.3-4.8-3.7-7l-5-7.6c-1.5-2.3-4.1-3.7-6.8-3.7
			c-2.8,0-5.3,1.4-6.8,3.7l-5,7.6c-4.7,7.1-7.2,15.3-7.2,23.8c0,1.3,0.1,2.6,0.2,3.9l-10.5,8.7L102.1,143z M141.8,104.8h-18.9
			c0.2-0.2,0.3-0.5,0.5-0.7l5-7.6c0.9-1.3,2.4-2.1,4-2.1c1.6,0,3.1,0.8,4,2.1l5,7.6C141.5,104.3,141.7,104.6,141.8,104.8
			L141.8,104.8z M105,146.5l1.2-6l7.9-6.6c0.8,4.4,2.3,8.6,4.5,12.6H105z M119.2,139.6c-1.6-4.3-2.4-8.9-2.4-13.6
			c0-6.2,1.5-12.2,4.2-17.7h22.8c2.7,5.5,4.2,11.5,4.2,17.7c0,4.7-0.8,9.2-2.4,13.6H119.2z M138.6,165l-1.2,1.5
			c-0.5-2.9-1.9-5.5-4-7.6l-3.2-3.2l-3.6,7.2c-2.5-1.9-3.4-5.2-2.2-8.1l0.6-1.4h15l0.3,0.8C141.6,157.9,141,162,138.6,165L138.6,165
			z M140.1,150h-15.4l-1.9-3c-0.8-1.3-1.5-2.6-2.1-3.9h23.5c-0.6,1.3-1.3,2.6-2.1,3.9L140.1,150z M140.1,150"/>
		<path class="st42" d="M62.9,80.5h10.4V70.1H62.9V80.5z M66.4,73.6h3.5v3.5h-3.5V73.6z M66.4,73.6"/>
		<path class="st42" d="M76.8,80.5h10.4V70.1H76.8V80.5z M80.3,73.6h3.5v3.5h-3.5V73.6z M80.3,73.6"/>
		<path class="st42" d="M90.7,80.5h10.4V70.1H90.7V80.5z M94.2,73.6h3.5v3.5h-3.5V73.6z M94.2,73.6"/>
		<path class="st42" d="M104.6,91H94.2v34.7h-3.5v-20.8H80.3v20.8h-3.5v-13.9H66.4v13.9h-3.5v3.5h45.1v-3.5h-3.5V91z M73.4,125.7
			h-3.5v-10.4h3.5V125.7z M87.2,125.7h-3.5v-17.4h3.5V125.7z M101.1,125.7h-3.5V94.4h3.5V125.7z M101.1,125.7"/>
		<rect x="62.9" y="91" class="st42" width="3.5" height="3.5"/>
		<rect x="69.9" y="91" class="st42" width="17.4" height="3.5"/>
		<rect x="62.9" y="97.9" class="st42" width="3.5" height="3.5"/>
		<rect x="69.9" y="97.9" class="st42" width="17.4" height="3.5"/>
	</g>
</g>
</svg>
