<?xml version="1.0" encoding="utf-8"?>
<!-- Generator: Adobe Illustrator 22.0.1, SVG Export Plug-In . SVG Version: 6.00 Build 0)  -->
<svg version="1.1" id="Capa_1" xmlns="http://www.w3.org/2000/svg" xmlns:xlink="http://www.w3.org/1999/xlink" x="0px" y="0px"
	 viewBox="0 0 174 174" style="enable-background:new 0 0 174 174;" xml:space="preserve">
<style type="text/css">
	.st0{fill:#DFE2E4;}
	.st1{fill:url(#SVGID_1_);}
	.st2{fill:#FFFFFF;}
	.st3{fill:#CCCCCC;}
	.st4{fill:#10181B;}
	.st5{fill:#FBB03B;}
	.st6{fill:#8CC63F;}
</style>
<g>
	<g>
		<path class="st0" d="M152.1,38.4c19.6,19.7,30.5,58.3-16.8,101.4c-29.6,26.9-79.1,40.2-103.9-3.3C10.5,99.8-4.3,51.9,30.1,27.6
			C52.5,11.7,122.4,8.4,152.1,38.4z"/>
		
			<linearGradient id="SVGID_1_" gradientUnits="userSpaceOnUse" x1="517.2158" y1="283.3996" x2="618.3192" y2="182.2962" gradientTransform="matrix(0.8192 -0.5736 0.5736 0.8192 -509.0887 215.377)">
			<stop  offset="0" style="stop-color:#008EFF"/>
			<stop  offset="0.6173" style="stop-color:#00ADFF"/>
			<stop  offset="1" style="stop-color:#00BBFF"/>
		</linearGradient>
		<path class="st1" d="M23.7,138.1C-0.1,118.1-7.5,70.8,41.8,28.5c15.9-13.6,41.7-22.5,62.6-18c19.6,4.3,34.4,21,46.5,38.4
			c25.1,35.9,22.4,95.7-18.1,109.5c-12.3,4.2-29.9-13.8-51.5-17.2C62.2,138.4,39.5,151.2,23.7,138.1z"/>
	</g>
	<g>
		<path class="st2" d="M120.6,66.4h-0.3v-6l-11.7-12H74.3v18H52.9c-2.6,0-4.7,2.1-4.7,4.7v39.3h77V71.1
			C125.3,68.5,123.2,66.4,120.6,66.4z"/>
		<path class="st3" d="M48.3,110.4v2.5c0,3,2.5,5.5,5.5,5.5h16.5v7h34v-7h15.5c3,0,5.5-2.5,5.5-5.5v-2.5H48.3z"/>
		<path class="st4" d="M121.8,65.2v-5.8L109.5,47H72.8v18.1H53.5c-3.6,0-6.5,2.9-6.5,6.5v41.3c0,3.6,2.9,6.5,6.5,6.5h15.5v5.2h-3.9
			c-0.7,0-1.3,0.6-1.3,1.3v0c0,0.7,0.6,1.3,1.3,1.3h43.9c0.7,0,1.3-0.6,1.3-1.3v0c0-0.7-0.6-1.3-1.3-1.3h-3.9v-5.2h15.5
			c3.6,0,6.5-2.9,6.5-6.5V71.5C127,68.4,124.8,65.8,121.8,65.2L121.8,65.2z M108.9,50.1l9.8,9.8h-8.5c-0.7,0-1.3-0.6-1.3-1.3V50.1z
			 M75.4,49.6h31v11.6c0,0.7,0.6,1.3,1.3,1.3h11.6v41.3H75.4V49.6z M102.5,124.4h-31v-5.2h31V124.4z M124.4,112.8
			c0,2.1-1.7,3.9-3.9,3.9H53.5c-2.1,0-3.9-1.7-3.9-3.9v-1.3h74.8V112.8z M124.4,108.9H49.6V71.5c0-2.1,1.7-3.9,3.9-3.9h19.4v38.7h49
			V67.9c1.5,0.5,2.6,2,2.6,3.6V108.9z M124.4,108.9"/>
		<path class="st4" d="M93.5,57.2v-2.5H80.5v12.9h12.9v-7.3l3.6-2.6c0.6-0.4,0.7-1.2,0.3-1.8l0,0c-0.4-0.6-1.2-0.7-1.8-0.3
			L93.5,57.2z M90.9,59.1l-2.4,1.7l-0.9-0.9c-0.5-0.5-1.3-0.5-1.8,0h0c-0.5,0.5-0.5,1.3,0,1.8l2.4,2.4l2.7-1.9v2.8h-7.7v-7.7h7.7
			V59.1z M90.9,59.1"/>
		<path class="st4" d="M93.5,72.7v-2.5H80.5v12.9h12.9v-7.3l3.6-2.6c0.6-0.4,0.7-1.2,0.3-1.8v0c-0.4-0.6-1.2-0.7-1.8-0.3L93.5,72.7z
			 M90.9,74.5l-2.4,1.7l-0.9-0.9c-0.5-0.5-1.3-0.5-1.8,0h0c-0.5,0.5-0.5,1.3,0,1.8l2.4,2.4l2.7-1.9v2.8h-7.7v-7.7h7.7V74.5z
			 M90.9,74.5"/>
		<path class="st4" d="M93.5,88.2v-2.5H80.5v12.9h12.9v-7.3l3.6-2.6c0.6-0.4,0.7-1.2,0.3-1.8l0,0c-0.4-0.6-1.2-0.7-1.8-0.3
			L93.5,88.2z M90.9,90l-2.4,1.7l-0.9-0.9c-0.5-0.5-1.3-0.5-1.8,0h0c-0.5,0.5-0.5,1.3,0,1.8l2.4,2.4l2.7-1.9V96h-7.7v-7.7h7.7V90z
			 M90.9,90"/>
		<path class="st4" d="M99.7,65.1H113c0.6,0,1.1,0.5,1.1,1.1v0.5c0,0.6-0.5,1.1-1.1,1.1H99.7c-0.6,0-1.1-0.5-1.1-1.1v-0.5
			C98.6,65.5,99.1,65.1,99.7,65.1z"/>
		<path class="st4" d="M99.7,80.5H113c0.6,0,1.1,0.5,1.1,1.1v0.5c0,0.6-0.5,1.1-1.1,1.1H99.7c-0.6,0-1.1-0.5-1.1-1.1v-0.5
			C98.6,81,99.1,80.5,99.7,80.5z"/>
		<path class="st4" d="M99.7,96H113c0.6,0,1.1,0.5,1.1,1.1v0.5c0,0.6-0.5,1.1-1.1,1.1H99.7c-0.6,0-1.1-0.5-1.1-1.1v-0.5
			C98.6,96.5,99.1,96,99.7,96z"/>
		<path class="st4" d="M99.7,90.9H113c0.6,0,1.1,0.5,1.1,1.1v0.5c0,0.6-0.5,1.1-1.1,1.1H99.7c-0.6,0-1.1-0.5-1.1-1.1v-0.5
			C98.6,91.3,99.1,90.9,99.7,90.9z"/>
		<path class="st4" d="M99.7,75.4H113c0.6,0,1.1,0.5,1.1,1.1v0.5c0,0.6-0.5,1.1-1.1,1.1H99.7c-0.6,0-1.1-0.5-1.1-1.1v-0.5
			C98.6,75.9,99.1,75.4,99.7,75.4z"/>
		<path class="st4" d="M99.7,59.9h3.1c0.6,0,1.1,0.5,1.1,1.1v0.5c0,0.6-0.5,1.1-1.1,1.1h-3.1c-0.6,0-1.1-0.5-1.1-1.1V61
			C98.6,60.4,99.1,59.9,99.7,59.9z"/>
		<circle class="st5" cx="61.3" cy="79.4" r="8"/>
		<circle class="st6" cx="61.3" cy="97.4" r="8"/>
		<path class="st4" d="M70.2,79.3c0-5-4.1-9-9-9s-9,4.1-9,9c0,5,4.1,9,9,9S70.2,84.2,70.2,79.3L70.2,79.3z M62.5,76.7
			c0,0.7-0.6,1.3-1.3,1.3c-0.7,0-1.3-0.6-1.3-1.3s0.6-1.3,1.3-1.3C61.9,75.4,62.5,76,62.5,76.7L62.5,76.7z M61.2,85.7
			c-0.9,0-1.8-0.2-2.5-0.5c0.2-1.2,1.3-2.1,2.5-2.1c1.2,0,2.3,0.9,2.5,2.1C62.9,85.5,62.1,85.7,61.2,85.7L61.2,85.7z M61.2,80.5
			c-2.1,0-3.9,1.3-4.7,3.1c-1.1-1.2-1.7-2.7-1.7-4.4c0-3.3,2.5-6,5.7-6.4c-1.8,0.4-3.1,1.9-3.1,3.8C57.3,78.8,59.1,80.5,61.2,80.5
			c2.1,0,3.9-1.7,3.9-3.9c0-1.9-1.3-3.4-3.1-3.8c3.2,0.4,5.7,3.1,5.7,6.4c0,1.7-0.7,3.2-1.7,4.4C65.1,81.8,63.3,80.5,61.2,80.5
			L61.2,80.5z M61.2,80.5"/>
		<path class="st4" d="M52.2,97.3c0,5,4.1,9,9,9s9-4.1,9-9s-4.1-9-9-9S52.2,92.3,52.2,97.3L52.2,97.3z M61.2,103.8
			c-0.9,0-1.8-0.2-2.5-0.5c0.2-1.2,1.3-2.1,2.5-2.1c1.2,0,2.3,0.9,2.5,2.1C62.9,103.6,62.1,103.8,61.2,103.8L61.2,103.8z M62.5,94.7
			c0,0.7-0.6,1.3-1.3,1.3c-0.7,0-1.3-0.6-1.3-1.3c0-0.7,0.6-1.3,1.3-1.3C61.9,93.5,62.5,94,62.5,94.7L62.5,94.7z M60.4,90.9
			c-1.8,0.4-3.1,1.9-3.1,3.8c0,2.1,1.7,3.9,3.9,3.9c2.1,0,3.9-1.7,3.9-3.9c0-1.9-1.3-3.4-3.1-3.8c3.2,0.4,5.7,3.1,5.7,6.4
			c0,1.7-0.7,3.2-1.7,4.4c-0.8-1.8-2.6-3.1-4.7-3.1s-3.9,1.3-4.7,3.1c-1.1-1.2-1.7-2.7-1.7-4.4C54.7,94,57.2,91.3,60.4,90.9
			L60.4,90.9z M60.4,90.9"/>
	</g>
</g>
</svg>
