<?xml version="1.0" encoding="utf-8"?>
<!-- Generator: Adobe Illustrator 22.0.1, SVG Export Plug-In . SVG Version: 6.00 Build 0)  -->
<svg version="1.1" id="Capa_1" xmlns="http://www.w3.org/2000/svg" xmlns:xlink="http://www.w3.org/1999/xlink" x="0px" y="0px"
	 viewBox="0 0 174 174" style="enable-background:new 0 0 174 174;" xml:space="preserve">
<style type="text/css">
	.st0{fill:#DFE2E4;}
	.st1{fill:url(#SVGID_1_);}
	.st2{fill:#FFFFFF;}
	.st3{fill:#B3B3B3;}
	.st4{fill:#10181B;}
	.st5{fill:#A67C52;}
	.st6{fill:#FBB03B;}
	.st7{fill:#29ABE2;}
	.st8{fill:#8CC63F;}
	.st9{fill:#F15A24;}
</style>
<g>
	<g>
		<path class="st0" d="M81.3,168.2c-27.8,1.1-63.6-16.9-63.3-81c0.2-40,23.9-85.5,72.7-74.3c41.1,9.4,86.4,30.9,81,72.8
			C168.2,112.9,123.4,166.6,81.3,168.2z"/>
		
			<linearGradient id="SVGID_1_" gradientUnits="userSpaceOnUse" x1="-649.405" y1="1833.9974" x2="-546.8618" y2="1731.4542" gradientTransform="matrix(-0.1317 0.9913 -0.9913 -0.1317 1780.3434 920.5754)">
			<stop  offset="0" style="stop-color:#008EFF"/>
			<stop  offset="0.6173" style="stop-color:#00ADFF"/>
			<stop  offset="1" style="stop-color:#00BBFF"/>
		</linearGradient>
		<path class="st1" d="M94.7,6.2c30.8-4.1,70.6,22.5,68.4,87.4c-0.7,20.9-11.6,46-29.1,58.3c-16.4,11.6-38.7,11.1-59.8,8.3
			C30.8,154.4-11.4,112,5.8,72.7c5.2-11.9,23-18.5,40-32.1C60.9,28.6,74.3,8.9,94.7,6.2z"/>
	</g>
	<g>
		<path class="st2" d="M114,106.1H47.8V53.9c0-1,0.8-1.8,1.8-1.8h64.7c0.8,0,1.5,0.7,1.5,1.5v50.7C115.8,105.3,115,106.1,114,106.1z
			"/>
		<path class="st3" d="M125.2,110.6L125.2,110.6c-1.5,0.9-3.4,0.4-4.4-1l-7-11.4l5.4-3.3l7,11.4
			C127.2,107.8,126.7,109.7,125.2,110.6z"/>
		<circle class="st3" cx="108.8" cy="83.6" r="14.5"/>
		<circle class="st2" cx="108.8" cy="83.1" r="10"/>
		<path class="st4" d="M95.9,94.4c-0.7,0-1.2,0.5-1.2,1.2v3.5c0,0.7,0.5,1.2,1.2,1.2h4.9c0.7,0,1.2-0.5,1.2-1.2
			c0-0.7-0.5-1.2-1.2-1.2h-3.7v-2.3C97.1,95,96.5,94.4,95.9,94.4L95.9,94.4z"/>
		<path class="st4" d="M124.6,110.2c-1,0.6-2.4,0.2-3-0.8L115,97.9c0.7-0.3,1.3-0.6,1.9-1c0.6-0.4,1.2-0.8,1.8-1.2l6.6,11.5
			c0.2,0.3,0.3,0.7,0.3,1.1C125.6,109,125.2,109.8,124.6,110.2L124.6,110.2z M105.6,96.2c-3.4-0.9-6.3-3.1-8.1-6.2
			c-3.7-6.4-1.5-14.5,4.9-18.2c2.1-1.2,4.4-1.8,6.6-1.8c4.6,0,9.1,2.4,11.6,6.7c1.8,3.1,2.3,6.7,1.3,10.1c-0.9,3.4-3.1,6.3-6.2,8.1
			C112.6,96.6,109,97.1,105.6,96.2L105.6,96.2z M127.4,106l-6.9-12c1.7-1.9,3-4.1,3.7-6.7c1.1-4.1,0.5-8.3-1.6-11.9
			c-4.3-7.5-14-10.1-21.5-5.8c-7.5,4.3-10.1,14-5.8,21.5c2.1,3.6,5.5,6.2,9.5,7.3c1.4,0.4,2.7,0.5,4.1,0.5c1.2,0,2.4-0.1,3.5-0.4
			l6.9,12c0.8,1.5,2.4,2.3,4,2.3c0.8,0,1.6-0.2,2.3-0.6c1.4-0.8,2.3-2.3,2.3-4C128.1,107.5,127.8,106.7,127.4,106L127.4,106z"/>
		<path class="st4" d="M120,86.7c0.8-2.7,0.6-5.7-0.6-8.2c-0.3-0.6-1-0.9-1.6-0.6c-0.6,0.3-0.9,1-0.6,1.6c1,2,1.1,4.3,0.4,6.5
			c-0.7,2.2-2.1,4-4.1,5.1c-2.1,1.2-4.5,1.5-6.8,0.9c-2.3-0.6-4.3-2.1-5.5-4.2c-2.5-4.3-1-9.8,3.3-12.3c3.1-1.8,7.1-1.6,10,0.6
			c0.5,0.4,1.3,0.3,1.7-0.2c0.4-0.5,0.3-1.3-0.2-1.7c-3.7-2.8-8.6-3.1-12.6-0.8c-2.6,1.5-4.5,4-5.3,6.9c-0.8,2.9-0.4,6,1.1,8.7
			c1.5,2.6,4,4.5,6.9,5.3c1,0.3,2,0.4,3,0.4c2,0,3.9-0.5,5.7-1.5C117.3,91.7,119.1,89.4,120,86.7L120,86.7z"/>
		<rect x="76.8" y="47.1" class="st5" width="10" height="6"/>
		<rect x="58.8" y="106.1" class="st5" width="45" height="5"/>
		<path class="st4" d="M77.5,48.5c0-0.3,0.3-0.6,0.6-0.6h7.3c0.3,0,0.6,0.3,0.6,0.6v2.4h-8.5L77.5,48.5L77.5,48.5L77.5,48.5z
			 M59.8,53.2h16.5h10.9h26.9c0.5,0,1,0.4,1,1v11.4c0,0.7,0.5,1.2,1.2,1.2c0.7,0,1.2-0.5,1.2-1.2V54.2c0-1.9-1.5-3.4-3.4-3.4H88.4
			v-2.4c0-1.7-1.4-3-3-3h-7.3c-1.7,0-3,1.4-3,3v2.4H59.8c-0.7,0-1.2,0.5-1.2,1.2C58.6,52.7,59.2,53.2,59.8,53.2L59.8,53.2z"/>
		<path class="st4" d="M103.5,109.9c0,0.2-0.1,0.3-0.3,0.3H60.4c-0.2,0-0.3-0.1-0.3-0.3v-2.6h43.4V109.9L103.5,109.9z M113.1,104.9
			h-8.4H58.8h-9.5c-0.5,0-1-0.4-1-1V54.2c0-0.5,0.4-1,1-1H55c0.7,0,1.2-0.5,1.2-1.2c0-0.7-0.5-1.2-1.2-1.2h-5.7
			c-1.9,0-3.4,1.5-3.4,3.4v49.6c0,1.9,1.5,3.4,3.4,3.4h8.3v2.6c0,1.5,1.2,2.7,2.7,2.7h12l-5.7,11.1c-0.3,0.6-0.1,1.3,0.5,1.6
			c0.2,0.1,0.4,0.1,0.5,0.1c0.4,0,0.9-0.2,1.1-0.7l6.2-12.2h13.3l6.2,12.2c0.2,0.4,0.6,0.7,1.1,0.7c0.2,0,0.4,0,0.5-0.1
			c0.6-0.3,0.8-1,0.5-1.6l-5.7-11.1h12c1.5,0,2.7-1.2,2.7-2.7v-2.6h7.2c0.7,0,1.2-0.5,1.2-1.2C114.3,105.4,113.8,104.9,113.1,104.9
			L113.1,104.9z"/>
		<circle class="st6" cx="76.3" cy="71.1" r="2.5"/>
		<circle class="st6" cx="65.3" cy="77.6" r="2.5"/>
		<circle class="st6" cx="87.3" cy="77.6" r="2.5"/>
		<circle class="st6" cx="98.3" cy="61.6" r="2.5"/>
		<path class="st4" d="M87.3,78.8c-0.9,0-1.6-0.7-1.6-1.6s0.7-1.6,1.6-1.6c0.9,0,1.6,0.7,1.6,1.6S88.2,78.8,87.3,78.8L87.3,78.8z
			 M76.2,72.5c-0.9,0-1.6-0.7-1.6-1.6c0-0.9,0.7-1.6,1.6-1.6c0.9,0,1.6,0.7,1.6,1.6C77.9,71.8,77.1,72.5,76.2,72.5L76.2,72.5z
			 M65.2,78.8c-0.9,0-1.6-0.7-1.6-1.6s0.7-1.6,1.6-1.6s1.6,0.7,1.6,1.6S66.1,78.8,65.2,78.8L65.2,78.8z M98.3,60.1
			c0.9,0,1.6,0.7,1.6,1.6c0,0.9-0.7,1.6-1.6,1.6s-1.6-0.7-1.6-1.6C96.7,60.9,97.4,60.1,98.3,60.1L98.3,60.1z M98.3,65.7
			c2.2,0,4-1.8,4-4s-1.8-4-4-4c-2.2,0-4,1.8-4,4c0,0.9,0.3,1.7,0.8,2.4l-6.6,9.2c-0.4-0.1-0.8-0.2-1.2-0.2c-1.1,0-2,0.4-2.7,1.1
			l-4.4-2.5c0.1-0.3,0.1-0.6,0.1-0.8c0-2.2-1.8-4-4-4c-2.2,0-4,1.8-4,4c0,0.3,0,0.6,0.1,0.8l-4.4,2.5c-0.7-0.7-1.7-1.1-2.7-1.1
			c-2.2,0-4,1.8-4,4c0,2.2,1.8,4,4,4c2.2,0,4-1.8,4-4c0-0.3,0-0.6-0.1-0.8l4.4-2.5c0.7,0.7,1.7,1.1,2.7,1.1s2-0.4,2.7-1.1l4.4,2.5
			c-0.1,0.3-0.1,0.6-0.1,0.8c0,2.2,1.8,4,4,4c2.2,0,4-1.8,4-4c0-0.9-0.3-1.7-0.8-2.4l6.6-9.2C97.5,65.7,97.9,65.7,98.3,65.7
			L98.3,65.7z"/>
		<rect x="62.8" y="89.1" class="st7" width="5" height="10"/>
		<rect x="73.8" y="83.1" class="st8" width="5" height="16"/>
		<rect x="84.8" y="89.1" class="st9" width="5" height="10"/>
		<path class="st4" d="M66.4,97.9H64v-8.2h2.5V97.9L66.4,97.9z M62.8,87.3c-0.7,0-1.2,0.5-1.2,1.2v10.6c0,0.7,0.5,1.2,1.2,1.2h4.9
			c0.7,0,1.2-0.5,1.2-1.2V88.5c0-0.7-0.5-1.2-1.2-1.2H62.8L62.8,87.3z"/>
		<path class="st4" d="M77.5,97.9H75V83.6h2.5V97.9L77.5,97.9z M73.8,81.2c-0.7,0-1.2,0.5-1.2,1.2v16.8c0,0.7,0.5,1.2,1.2,1.2h4.9
			c0.7,0,1.2-0.5,1.2-1.2V82.4c0-0.7-0.5-1.2-1.2-1.2H73.8L73.8,81.2z"/>
		<path class="st4" d="M88.5,97.9H86v-8.2h2.5V97.9L88.5,97.9z M84.8,87.3c-0.7,0-1.2,0.5-1.2,1.2v10.6c0,0.7,0.5,1.2,1.2,1.2h4.9
			c0.7,0,1.2-0.5,1.2-1.2V88.5c0-0.7-0.5-1.2-1.2-1.2H84.8L84.8,87.3z"/>
	</g>
</g>
</svg>
