<?xml version="1.0" encoding="UTF-8"?>
<!-- Generator: Adobe Illustrator 22.0.1, SVG Export Plug-In . SVG Version: 6.00 Build 0)  -->
<svg version="1.1" id="Capa_1" xmlns="http://www.w3.org/2000/svg" xmlns:xlink="http://www.w3.org/1999/xlink" x="0px" y="0px" viewBox="0 0 370 156" style="enable-background:new 0 0 370 156;" xml:space="preserve">
<style type="text/css">
	.st0{fill:#545454;}
	.st1{fill:#2C2A2A;}
	.st2{fill:#FDFDFD;}
	.st3{fill:#D8AC53;}
	.st4{fill:#8E9193;}
	.st5{fill:#762A54;}
	.st6{fill:#B8BBBD;}
	.st7{fill:#DCDCDC;}
	.st8{fill:#BCD7E7;}
	.st9{fill:#DFDCD9;}
	.st10{fill:#B9BABB;}
	.st11{fill:#9D937B;}
	.st12{fill:#7E7263;}
	.st13{fill:none;}
	.st14{fill:#A6146C;}
	.st15{fill:#B5AC98;}
	.st16{fill:#9E937B;}
	.st17{fill:#2D2149;}
	.st18{fill:#BB2B6A;}
	.st19{fill:#9CBB34;}
	.st20{fill:#638B22;}
	.st21{fill:#FFFFFF;}
	.st22{fill:#1E120E;}
	.st23{fill-rule:evenodd;clip-rule:evenodd;fill:#9B5C8D;}
	.st24{fill-rule:evenodd;clip-rule:evenodd;fill:#FFFFFF;}
	.st25{fill-rule:evenodd;clip-rule:evenodd;}
	.st26{fill:#34313F;}
	.st27{fill:#DF6322;}
	.st28{fill:#4D4D4D;}
	.st29{fill:#6F7174;}
	.st30{fill:#97999C;}
	.st31{fill:#A1A3A6;}
	.st32{fill:#838588;}
	.st33{fill:#797B7E;}
	.st34{fill:#E6E6E6;}
	.st35{fill:#8D8F92;}
	.st36{fill-rule:evenodd;clip-rule:evenodd;fill:#97999C;}
	.st37{fill:#487496;}
	.st38{fill:#484848;}
</style>
<g>
	<path class="st37" d="M90.6,55.3c4.5,0,9,1.4,12.7,3.9c3.7,2.5,6.5,5.9,8.2,10c3,7.1,2.2,15.2-2.1,21.5c-2.5,3.7-5.9,6.5-10,8.2   c-7.1,3-15.2,2.2-21.5-2.1c-3.7-2.5-6.5-5.9-8.2-10c-3-7.1-2.2-15.2,2.1-21.5c2.5-3.7,5.9-6.5,10-8.2   C84.6,55.9,87.6,55.3,90.6,55.3 M90.6,53.8c-13.3,0-24.2,10.8-24.2,24.2s10.8,24.2,24.2,24.2s24.2-10.8,24.2-24.2   S104,53.8,90.6,53.8"/>
	<path class="st37" d="M70.5,78c0,7.7,4.4,14.8,11.4,18.1l-9.6-26.3C71.1,72.4,70.5,75.2,70.5,78 M104.2,77c0-2.5-0.9-4.2-1.7-5.6   c-0.8-1.4-2-3.1-2-4.7s1.4-3.6,3.4-3.6h0.3c-8.2-7.5-20.9-7-28.5,1.3c-0.7,0.8-1.4,1.6-2,2.5h1.3c2.1,0,5.4-0.3,5.4-0.3   c1.1-0.1,1.2,1.5,0.1,1.7c0,0-1.1,0.1-2.3,0.2l7.3,21.8L90,77.1l-3.1-8.6c-1.1-0.1-2.1-0.2-2.1-0.2c-1.1-0.1-1-1.7,0.1-1.7   c0,0,3.3,0.3,5.3,0.3s5.4-0.3,5.4-0.3c1.1-0.1,1.2,1.5,0.1,1.7c0,0-1.1,0.1-2.3,0.2l7.3,21.7l2.1-6.6   C103.7,80.7,104.2,78.7,104.2,77 M91,79.7l-6,17.6c4.1,1.2,8.4,1.1,12.4-0.3l-0.1-0.3L91,79.7z M108.3,68.3   c0.1,0.7,0.1,1.4,0.1,2.1c0,2.1-0.4,4.4-1.5,7.2l-6.2,17.8C110.2,89.9,113.6,77.9,108.3,68.3"/>
	<path class="st37" d="M201.3,71.8h-9.6v1c3,0,3.5,0.7,3.5,4.4v6.9c0,3.8-0.5,4.5-3.5,4.5c-2.3-0.3-3.9-1.5-6-3.9l-2.5-2.7   c3.3-0.6,5.1-2.7,5.1-5.1c0-2.9-2.5-5.2-7.3-5.2h-9.5v1c3,0,3.5,0.7,3.5,4.4v6.9c0,3.8-0.5,4.5-3.5,4.5v1h10.7v-1   c-3,0-3.5-0.7-3.5-4.5v-1.9h0.9l6,7.5h15.6c7.7,0,11-4.1,11-9S209,71.8,201.3,71.8 M178.8,80.5v-7.1h2.2c2.4,0,3.5,1.7,3.5,3.6   c0,1.9-1.1,3.6-3.5,3.6L178.8,80.5z M201.5,88h-0.4c-1.9,0-2.2-0.5-2.2-2.9V73.4h2.6c5.6,0,6.6,4.1,6.6,7.3S207.1,88,201.5,88"/>
	<path class="st37" d="M141.6,82.5l3.7-11c1.1-3.2,0.6-4.1-2.9-4.1v-1.1h10.1v1.1c-3.4,0-4.2,0.8-5.5,4.7l-6.1,18.4h-0.7l-5.5-16.8   l-5.6,16.8h-0.7l-6-18.4c-1.3-3.9-2.2-4.7-5.3-4.7v-1.1h11.9v1.1c-3.2,0-4,0.7-2.9,4.1l3.6,11l5.5-16.1h1L141.6,82.5z"/>
	<path class="st37" d="M159.9,90.4c-5.9,0-10.7-4.4-10.7-9.7c0-5.3,4.8-9.6,10.7-9.6c5.9,0,10.7,4.4,10.7,9.6S165.8,90.4,159.9,90.4    M159.9,72.7c-4.9,0-6.7,4.4-6.7,8s1.7,8,6.7,8s6.7-4.4,6.7-8S164.9,72.7,159.9,72.7"/>
	<path class="st38" d="M225.6,88.6v1.1h-12.3v-1.1c3.6,0,4.3-0.9,4.3-6.3v-8.6c0-5.4-0.7-6.2-4.3-6.2v-1.1h11.1   c5.5,0,8.6,2.9,8.6,6.7c0,3.8-3.1,6.6-8.6,6.6h-3.1v2.6C221.3,87.7,222,88.6,225.6,88.6 M224.4,68.3h-3.1v9.4h3.1   c3,0,4.4-2.1,4.4-4.6S227.4,68.3,224.4,68.3"/>
	<path class="st38" d="M269.9,84.6l-0.3,1c-0.5,1.8-1.1,2.4-4.9,2.4H264c-2.8,0-3.3-0.7-3.3-4.4v-2.5c4.2,0,4.5,0.4,4.5,3.2h1v-8h-1   c0,2.8-0.3,3.2-4.5,3.2v-6h2.9c3.8,0,4.4,0.7,4.9,2.4l0.3,1h0.9l-0.4-5.1h-15.8v1c3,0,3.5,0.7,3.5,4.4v6.9c0,3.5-0.4,4.4-2.8,4.5   c-2.2-0.3-3.8-1.6-5.9-3.9l-2.5-2.7c3.3-0.6,5.1-2.7,5.1-5.1c0-2.9-2.5-5.2-7.3-5.2h-9.4v1c3,0,3.5,0.7,3.5,4.4v6.9   c0,3.8-0.5,4.5-3.5,4.5v1h10.7v-1c-3,0-3.5-0.7-3.5-4.5v-1.9h0.9l5.9,7.5h22.1l0.3-5.1C270.7,84.6,269.9,84.6,269.9,84.6z    M241.4,80.5v-7.1h2.2c2.4,0,3.5,1.7,3.5,3.6c0,1.9-1.1,3.6-3.5,3.6L241.4,80.5z"/>
	<path class="st38" d="M280.8,90.4c-2.2,0-4-1.1-4.8-1.8c-0.5,0.5-0.7,1.2-0.9,1.8h-1v-7.4h1.1c0.4,3.6,2.9,5.6,6.1,5.6   c1.7,0,3.1-1,3.1-2.6c0-1.6-1.2-2.5-3.4-3.5l-3.1-1.5c-2.2-1-3.8-2.8-3.8-5.2c0-2.3,2.4-4.8,5.8-4.8c1.5,0,3,0.5,4.2,1.4   c0.3-0.2,0.5-0.8,0.7-1.5h1v6.3h-1.1c-0.4-2.5-1.8-4.6-4.6-4.6c-1.5,0-2.9,0.9-2.9,2.2s1.1,2.2,3.7,3.3l3,1.5   c2.6,1.2,3.6,3.2,3.6,4.8C287.3,88,284.3,90.4,280.8,90.4"/>
	<path class="st38" d="M297,90.4c-2.2,0-4-1.1-4.8-1.8c-0.5,0.5-0.7,1.2-0.9,1.8h-1v-7.4h1.1c0.4,3.6,2.9,5.6,6.1,5.6   c1.7,0,3.1-1,3.1-2.6c0-1.6-1.2-2.5-3.4-3.5l-3.1-1.5c-2.2-1-3.8-2.8-3.8-5.2c0-2.3,2.4-4.8,5.8-4.8c1.5,0,3,0.5,4.2,1.4   c0.3-0.2,0.5-0.8,0.7-1.5h1v6.3h-1.1c-0.4-2.5-1.8-4.6-4.6-4.6c-1.5,0-2.9,0.9-2.9,2.2s1.1,2.2,3.7,3.3l2.9,1.5   c2.6,1.2,3.6,3.2,3.6,4.8C303.5,88,300.6,90.4,297,90.4"/>
</g>
</svg>