<?xml version="1.0" encoding="UTF-8"?>
<!-- Generator: Adobe Illustrator 22.0.1, SVG Export Plug-In . SVG Version: 6.00 Build 0)  -->
<svg version="1.1" id="Capa_1" xmlns="http://www.w3.org/2000/svg" xmlns:xlink="http://www.w3.org/1999/xlink" x="0px" y="0px" viewBox="0 0 370 156" style="enable-background:new 0 0 370 156;" xml:space="preserve">
<style type="text/css">
	.st0{fill:#545454;}
	.st1{fill:#2C2A2A;}
	.st2{fill:#FDFDFD;}
	.st3{fill:#D8AC53;}
	.st4{fill:#8E9193;}
	.st5{fill:#762A54;}
	.st6{fill:#B8BBBD;}
	.st7{fill:#DCDCDC;}
	.st8{fill:#BCD7E7;}
	.st9{fill:#DFDCD9;}
	.st10{fill:#B9BABB;}
	.st11{fill:#9D937B;}
	.st12{fill:#7E7263;}
	.st13{fill:none;}
	.st14{fill:#A6146C;}
	.st15{fill:#B5AC98;}
	.st16{fill:#9E937B;}
	.st17{fill:#2D2149;}
	.st18{fill:#BB2B6A;}
	.st19{fill:#9CBB34;}
	.st20{fill:#638B22;}
	.st21{fill:#FFFFFF;}
	.st22{fill:#1E120E;}
	.st23{fill-rule:evenodd;clip-rule:evenodd;fill:#9B5C8D;}
	.st24{fill-rule:evenodd;clip-rule:evenodd;fill:#FFFFFF;}
	.st25{fill-rule:evenodd;clip-rule:evenodd;}
	.st26{fill:#34313F;}
	.st27{fill:#DF6322;}
	.st28{fill:#4D4D4D;}
	.st29{fill:#6F7174;}
	.st30{fill:#97999C;}
	.st31{fill:#A1A3A6;}
	.st32{fill:#838588;}
	.st33{fill:#797B7E;}
	.st34{fill:#E6E6E6;}
	.st35{fill:#8D8F92;}
	.st36{fill-rule:evenodd;clip-rule:evenodd;fill:#97999C;}
	.st37{fill:#487496;}
	.st38{fill:#484848;}
</style>
<g id="Layer_2">
	<g id="Layer_1-2">
		<polygon class="st27" points="105.3,42.8 80.2,57.3 80.2,86.2 87.3,90.4 87.3,61.4 105.2,51.1 123.1,61.4 123.1,90.3 130.3,86.2     130.3,57.3   "/>
		<polygon class="st27" points="108.8,90.4 105.2,92.4 101.6,90.4 101.6,61.4 94.5,65.6 94.5,94.5 105.2,100.7 116,94.5 116,65.6     108.8,61.4   "/>
		<path class="st28" d="M146.7,57.5l9.8,24.9h0.1l9.6-24.9h3.7V86h-2.6V61.1h-0.1c-0.1,0.4-0.3,0.9-0.4,1.3l-0.5,1.2L166,65    L157.7,86h-2.3L147,65c-0.2-0.4-0.3-0.8-0.5-1.2c-0.2-0.4-0.3-0.9-0.4-1.3l-0.5-1.4h-0.1V86h-2.5V57.5H146.7z"/>
		<path class="st28" d="M177.5,86.1c-0.8-0.2-1.5-0.6-2.1-1.1c-0.6-0.5-1.1-1.1-1.4-1.8c-0.4-0.8-0.5-1.6-0.5-2.5c0-1,0.2-2.1,0.7-3    c0.4-0.8,1.1-1.4,1.8-1.9c0.8-0.5,1.7-0.8,2.7-1.1c1.1-0.3,2.2-0.5,3.3-0.6c1-0.1,1.9-0.2,2.6-0.3c0.6-0.1,1.2-0.2,1.7-0.5    c0.4-0.1,0.7-0.4,1-0.7c0.2-0.4,0.3-0.8,0.3-1.3v-0.4c0.1-1.2-0.4-2.4-1.3-3.1c-1.1-0.7-2.4-1.1-3.7-1c-3.7,0-5.6,1.5-5.8,4.6    h-2.5c0.1-1.8,0.9-3.6,2.2-4.8c1.7-1.3,3.8-2,6-1.8c1.9-0.1,3.8,0.4,5.3,1.5c1.4,1.2,2.1,3,2,4.9v11.2c0,0.5,0.1,0.9,0.4,1.3    c0.3,0.3,0.6,0.5,1,0.5c0.1,0,0.3,0,0.4,0c0.2,0,0.3-0.1,0.5-0.1h0.1V86c-0.2,0.1-0.4,0.2-0.7,0.2c-0.3,0.1-0.7,0.1-1,0.1    c-0.8,0-1.5-0.2-2.2-0.7c-0.6-0.6-0.9-1.4-0.9-2.2V83h-0.1c-0.3,0.4-0.7,0.8-1.1,1.2c-0.4,0.5-0.9,0.9-1.5,1.2    c-0.6,0.3-1.3,0.6-2,0.8c-0.9,0.2-1.7,0.3-2.6,0.3C179.3,86.5,178.4,86.4,177.5,86.1 M183.6,83.9c0.8-0.3,1.5-0.8,2.2-1.3    c0.6-0.5,1-1.2,1.3-1.9c0.3-0.7,0.4-1.4,0.4-2.1v-3.8c-0.8,0.4-1.6,0.7-2.4,0.9c-0.9,0.2-1.9,0.4-2.9,0.5c-1,0.1-1.7,0.3-2.4,0.4    c-0.7,0.1-1.3,0.4-1.9,0.7c-0.5,0.3-1,0.8-1.3,1.3c-0.3,0.7-0.5,1.4-0.5,2.1c0,0.6,0.1,1.2,0.4,1.8c0.2,0.5,0.6,0.9,1,1.2    c0.4,0.3,0.9,0.5,1.5,0.6c0.6,0.1,1.2,0.2,1.8,0.2C181.7,84.5,182.7,84.3,183.6,83.9"/>
		<path class="st28" d="M196.5,91.7c-1.3-0.9-2.1-2.3-2.3-3.8h2.3c0.2,1.1,0.9,2.1,1.9,2.6c1.2,0.6,2.5,0.8,3.8,0.8    c1.8,0.2,3.6-0.4,4.9-1.5c1.1-1.2,1.7-2.7,1.6-4.3V82h-0.1c-0.7,1.1-1.6,2-2.7,2.7c-1.2,0.7-2.5,1-3.9,0.9c-1.3,0-2.5-0.2-3.7-0.8    c-1.1-0.5-2-1.2-2.8-2.1c-0.8-1-1.4-2.1-1.8-3.3c-0.4-1.3-0.6-2.8-0.6-4.2c0-1.5,0.2-3,0.7-4.4c0.4-1.2,1.1-2.3,1.9-3.3    c0.8-0.9,1.7-1.5,2.8-2c1.1-0.4,2.2-0.7,3.4-0.7c1.4-0.1,2.8,0.3,4,1c1,0.7,1.9,1.5,2.6,2.6h0.1v-3.2h2.4v19.8    c0.1,2-0.6,4-1.9,5.5c-1.9,1.8-4.4,2.7-6.9,2.5C200.3,93.3,198.3,92.8,196.5,91.7 M207.3,81.2c1.2-1.8,1.7-3.9,1.6-6    c0-1.1-0.1-2.3-0.4-3.4c-0.2-0.9-0.7-1.8-1.2-2.6c-0.6-0.7-1.3-1.3-2.1-1.7c-0.9-0.4-1.9-0.6-2.9-0.6c-1.9-0.1-3.7,0.8-4.8,2.3    c-1.2,1.8-1.8,3.9-1.7,6.1c0,1.1,0.1,2.2,0.4,3.3c0.2,0.9,0.6,1.8,1.2,2.6c0.5,0.7,1.2,1.3,2,1.7c0.9,0.4,1.9,0.6,2.8,0.6    C204.2,83.6,206.1,82.8,207.3,81.2"/>
		<path class="st28" d="M219.8,85.7c-1.2-0.5-2.2-1.3-3-2.3c-0.8-1-1.5-2.2-1.8-3.4c-0.4-1.4-0.7-2.8-0.6-4.3c0-1.5,0.2-2.9,0.7-4.3    c0.4-1.2,1.1-2.4,1.9-3.4c0.8-1,1.8-1.7,3-2.3c1.2-0.6,2.5-0.8,3.9-0.8c1.4-0.1,2.9,0.3,4.2,0.9c1.1,0.6,2.1,1.5,2.8,2.5    c0.7,1.1,1.2,2.3,1.5,3.6c0.3,1.4,0.4,2.8,0.4,4.2h-15.7c0,1.1,0.2,2.2,0.5,3.2c0.3,0.9,0.7,1.8,1.3,2.6c0.6,0.8,1.3,1.4,2.2,1.8    c1,0.4,2,0.7,3.1,0.6c1.4,0.1,2.9-0.4,4-1.3c1-0.9,1.7-2.1,2-3.4h2.3c-0.4,1.9-1.4,3.6-2.8,4.9c-1.6,1.3-3.6,1.9-5.6,1.8    C222.4,86.5,221,86.2,219.8,85.7 M229.5,71.3c-0.2-0.8-0.6-1.6-1.2-2.3c-0.5-0.7-1.2-1.2-1.9-1.5c-0.9-0.4-1.8-0.6-2.8-0.6    c-1,0-1.9,0.2-2.8,0.6c-0.8,0.4-1.5,0.9-2,1.5c-0.6,0.7-1,1.5-1.3,2.3c-0.3,0.9-0.6,1.9-0.7,2.9h13.1    C229.9,73.2,229.7,72.3,229.5,71.3"/>
		<path class="st28" d="M238.1,65.4v3.2h0.1c0.7-1.1,1.6-1.9,2.7-2.6c1.3-0.7,2.7-1.1,4.2-1c1.7-0.1,3.4,0.5,4.7,1.7    c1.3,1.2,2,3,1.8,4.8V86h-2.5V71.6c0.1-1.3-0.4-2.5-1.3-3.5c-1-0.8-2.2-1.2-3.5-1.1c-0.8,0-1.7,0.1-2.5,0.4    c-0.7,0.3-1.4,0.7-2,1.2c-1.2,1.1-1.9,2.6-1.9,4.2V86h-2.5V65.4H238.1z"/>
		<path class="st28" d="M258,85.3c-0.8-0.7-1.2-1.8-1.1-2.8v-15h-3.1v-2h3.1V59h2.5v6.3h3.8v2h-3.8V82c-0.1,0.6,0.1,1.1,0.5,1.5    c0.4,0.3,1,0.5,1.5,0.4c0.3,0,0.6,0,0.9-0.1c0.3,0,0.5-0.1,0.7-0.2h0.1v2.1c-0.7,0.2-1.5,0.4-2.3,0.4    C259.9,86.2,258.9,85.9,258,85.3"/>
		<path class="st28" d="M270.6,85.7c-1.2-0.5-2.2-1.3-3-2.3c-0.8-1-1.5-2.2-1.9-3.4c-0.9-2.8-0.9-5.8,0-8.6c0.4-1.3,1-2.4,1.9-3.4    c0.8-1,1.9-1.7,3-2.3c2.6-1.1,5.4-1.1,8,0c1.1,0.5,2.2,1.3,3,2.3c0.8,1,1.5,2.2,1.9,3.4c0.9,2.8,0.9,5.8,0,8.6    c-0.4,1.3-1,2.4-1.9,3.4c-0.8,1-1.8,1.7-3,2.3C276,86.8,273.1,86.8,270.6,85.7 M277.6,83.7c0.9-0.4,1.6-1.1,2.2-1.9    c0.6-0.8,1.1-1.8,1.3-2.8c0.6-2.2,0.6-4.6,0-6.8c-0.3-1-0.7-1.9-1.3-2.8c-0.6-0.8-1.3-1.4-2.2-1.9c-1.9-0.9-4.2-0.9-6.1,0    c-0.9,0.4-1.6,1.1-2.2,1.9c-0.6,0.8-1.1,1.8-1.3,2.8c-0.6,2.2-0.6,4.6,0,6.8c0.3,1,0.7,1.9,1.3,2.8c0.6,0.8,1.3,1.4,2.2,1.9    C273.5,84.7,275.7,84.7,277.6,83.7"/>
		<path class="st28" d="M287.2,68.8c-1.4,0.1-2.5-1-2.6-2.4c0-0.1,0-0.2,0-0.3c-0.1-1.4,1-2.6,2.4-2.7c0.1,0,0.1,0,0.2,0    c1.4-0.1,2.5,1,2.6,2.4c0,0.1,0,0.2,0,0.3c0.1,1.4-1,2.6-2.4,2.6C287.4,68.8,287.3,68.8,287.2,68.8 M287.2,63.8    c-1.2,0-2.2,0.9-2.2,2.1c0,0.1,0,0.1,0,0.2c0,1.2,1,2.2,2.2,2.2c1.2,0,2.2-1,2.2-2.2c0.1-1.2-0.8-2.2-2-2.3    C287.4,63.8,287.3,63.8,287.2,63.8 M288,67.6l-0.9-1.3h-0.3v1.2h-0.5v-2.9h0.9c0.6,0,1,0.3,1,0.9c0,0.4-0.2,0.7-0.6,0.8l0.8,1.2    L288,67.6z M287.2,65h-0.4v0.9h0.4c0.3,0,0.5-0.1,0.5-0.4C287.7,65.2,287.6,65,287.2,65"/>
		<path class="st28" d="M145.7,105.8l-1.3,3.5c0,0.1-0.1,0.1-0.1,0.1h-1.2c-0.1,0-0.1,0-0.1-0.1l3.8-10.5c0-0.1,0-0.1,0.1-0.2    c0-0.2,0-0.3,0-0.5c0,0,0-0.1,0.1-0.1c0,0,0,0,0,0h1.7c0.1,0,0.1,0,0.1,0.1l4.1,11.2c0,0.1,0,0.1-0.1,0.1h-1.2    c-0.1,0-0.1,0-0.1-0.1l-1.3-3.5L145.7,105.8z M149.7,104.5c-0.1-0.3-0.2-0.7-0.4-1.2s-0.3-1-0.5-1.5c-0.2-0.5-0.4-1-0.5-1.5    c-0.2-0.5-0.3-0.9-0.4-1.2l0,0c-0.1,0.3-0.2,0.6-0.3,1c-0.1,0.4-0.3,0.8-0.5,1.3l-0.5,1.5c-0.2,0.5-0.4,1-0.5,1.5L149.7,104.5z"/>
		<path class="st28" d="M154.4,102.9c0-0.1,0-0.3,0-0.5c0-0.2,0-0.4,0-0.5c0-0.2,0-0.3,0-0.5s0-0.3,0-0.3c0-0.1,0-0.1,0.1-0.1h1.1    c0.1,0,0.1,0,0.2,0.1c0,0.1,0,0.2,0,0.3c0,0.2,0,0.3,0,0.5c0.7-0.7,1.6-1.2,2.6-1.2c0.3,0,0.6,0,1,0.1c0.3,0.1,0.6,0.3,0.9,0.5    c0.3,0.3,0.6,0.7,0.7,1.1c0.2,0.5,0.3,1.1,0.3,1.7v5.1c0,0.1,0,0.1-0.1,0.1h-1.2c-0.1,0-0.1,0-0.1-0.1v-5c0-0.6-0.1-1.1-0.4-1.6    c-0.3-0.4-0.8-0.6-1.3-0.6c-0.4,0-0.8,0.1-1.2,0.3c-0.4,0.2-0.7,0.5-1,0.8v6.1c0,0.1,0,0.1-0.1,0.1h-1.3c-0.1,0-0.1,0-0.1-0.1    V102.9z"/>
		<path class="st28" d="M169.2,105.8l-1.2,3.5c0,0.1-0.1,0.1-0.1,0.1h-1.2c-0.1,0-0.1,0-0.1-0.1l3.8-10.5c0-0.1,0-0.1,0.1-0.2    c0-0.2,0-0.3,0-0.5c0,0,0-0.1,0.1-0.1h1.7c0,0,0.1,0,0.1,0.1l4.1,11.2c0,0.1,0,0.1-0.1,0.1H175c-0.1,0-0.1,0-0.1-0.1l-1.3-3.5    L169.2,105.8z M173.2,104.5c-0.1-0.3-0.2-0.7-0.4-1.2l-0.5-1.5c-0.2-0.5-0.4-1-0.5-1.5c-0.2-0.5-0.3-0.9-0.4-1.2l0,0    c-0.1,0.3-0.2,0.6-0.3,1c-0.1,0.4-0.3,0.8-0.4,1.3c-0.2,0.5-0.4,1-0.5,1.5c-0.2,0.5-0.3,1-0.5,1.5L173.2,104.5z"/>
		<path class="st28" d="M181.5,109.5c-0.6,0-1.1-0.1-1.7-0.3c-1-0.3-1.9-1.1-2.3-2.2c-0.2-0.6-0.3-1.2-0.3-1.9    c0-0.6,0.1-1.2,0.3-1.8c0.2-0.5,0.6-1,1-1.4c0.4-0.4,0.9-0.7,1.5-0.9c0.6-0.2,1.3-0.3,1.9-0.3c0.2,0,0.4,0,0.6,0l0.5,0.1v-3.8    c0-0.1,0-0.1,0.1-0.1c0,0,0,0,0,0h1.3c0.1,0,0.1,0,0.1,0.1v11.3c0,0.1,0,0.3,0,0.4c0,0.1,0,0.1-0.1,0.1c-0.5,0.2-1,0.4-1.5,0.5    C182.4,109.5,182,109.5,181.5,109.5z M183,102.2c-0.2-0.1-0.3-0.1-0.5-0.1c-0.2,0-0.4,0-0.6,0c-0.5,0-0.9,0.1-1.3,0.2    c-0.4,0.1-0.7,0.4-1,0.7c-0.3,0.3-0.5,0.6-0.6,1c-0.1,0.4-0.2,0.8-0.2,1.2c0,0.5,0.1,1,0.2,1.4c0.3,0.7,0.9,1.3,1.6,1.5    c0.4,0.1,0.7,0.2,1.1,0.2c0.2,0,0.5,0,0.7,0c0.2,0,0.5-0.1,0.7-0.2V102.2z"/>
		<path class="st28" d="M190.2,100.8c0.6,0,1.1,0.1,1.7,0.3c0.4,0.2,0.8,0.5,1.2,0.9c0.3,0.4,0.6,0.9,0.8,1.4    c0.2,0.6,0.3,1.1,0.3,1.7c0,0.6-0.1,1.2-0.3,1.8c-0.2,0.5-0.5,1-0.8,1.4c-0.3,0.4-0.8,0.7-1.2,0.9c-0.5,0.2-1,0.3-1.5,0.3    c-0.6,0-1.2-0.1-1.8-0.4c-0.5-0.2-0.9-0.6-1.2-1c-0.3-0.4-0.6-0.9-0.7-1.4c-0.2-0.5-0.2-1-0.2-1.6c0-0.6,0.1-1.2,0.3-1.7    c0.2-0.5,0.4-1,0.8-1.4c0.3-0.4,0.8-0.7,1.3-0.9C189.1,100.9,189.7,100.8,190.2,100.8z M190.2,102.1c-0.3,0-0.7,0.1-1,0.2    c-0.3,0.2-0.6,0.4-0.8,0.6c-0.2,0.3-0.4,0.6-0.5,1c-0.1,0.4-0.2,0.8-0.2,1.3c0,0.4,0,0.8,0.1,1.2c0.1,0.4,0.3,0.7,0.5,1    c0.2,0.3,0.5,0.5,0.8,0.7c0.6,0.3,1.4,0.3,2,0c0.3-0.1,0.6-0.3,0.8-0.6c0.2-0.3,0.4-0.6,0.6-1c0.1-0.4,0.2-0.9,0.2-1.4    c0-0.4-0.1-0.8-0.2-1.2c-0.1-0.4-0.2-0.7-0.4-1C191.7,102.4,191,102,190.2,102.1z"/>
		<path class="st28" d="M197.2,97L197.2,97C197.3,97,197.3,97,197.2,97l0.1,4.1c0.6-0.2,1.2-0.3,1.9-0.3c0.6,0,1.1,0.1,1.6,0.3    c0.5,0.2,0.9,0.5,1.2,0.8c0.3,0.4,0.6,0.8,0.8,1.3c0.4,1.2,0.4,2.5-0.1,3.7c-0.3,0.6-0.6,1.1-1.1,1.5c-0.4,0.4-1,0.7-1.5,0.9    c-0.6,0.2-1.1,0.3-1.7,0.3c-0.4,0-0.8,0-1.2,0c-0.4,0-0.8-0.1-1.2-0.3c-0.1,0-0.1,0-0.1-0.2v-12c0-0.1,0-0.1,0.1-0.1H197.2z     M201.7,105c0-0.8-0.2-1.5-0.7-2.1c-0.5-0.5-1.2-0.8-2-0.8c-0.3,0-0.6,0-0.9,0.1c-0.2,0.1-0.5,0.1-0.7,0.2v5.9    c0.2,0.1,0.3,0.1,0.5,0.1c0.2,0,0.4,0,0.6,0c0.4,0,0.8-0.1,1.2-0.2c0.4-0.1,0.7-0.3,1-0.6c0.3-0.3,0.6-0.7,0.7-1.1    C201.6,106,201.7,105.5,201.7,105L201.7,105z"/>
		<path class="st28" d="M206,105.4c0,0.4,0.1,0.8,0.2,1.2c0.1,0.3,0.3,0.7,0.5,0.9c0.3,0.3,0.6,0.5,0.9,0.6c0.4,0.2,0.8,0.2,1.3,0.2    c0.4,0,0.8,0,1.2-0.1c0.4-0.1,0.7-0.2,1-0.4c0,0,0.1,0,0.1,0.1v1c0,0.1,0,0.1-0.1,0.2c-0.3,0.2-0.7,0.3-1,0.4    c-0.5,0.1-0.9,0.1-1.4,0.1c-0.7,0-1.3-0.1-1.9-0.4c-0.5-0.2-0.9-0.6-1.3-1c-0.3-0.4-0.6-0.9-0.7-1.4c-0.1-0.5-0.2-1-0.2-1.6    c0-0.6,0.1-1.2,0.3-1.7c0.2-0.5,0.4-1,0.7-1.4c0.3-0.4,0.7-0.7,1.2-1c0.5-0.2,1.1-0.4,1.6-0.4c0.5,0,1.1,0.1,1.6,0.3    c0.4,0.2,0.8,0.5,1,0.8c0.3,0.3,0.5,0.7,0.6,1.2c0.1,0.4,0.2,0.8,0.2,1.2c0,0.2,0,0.4,0,0.6c0,0.1,0,0.2,0,0.3    c0,0.1,0,0.1-0.1,0.1c-0.2,0-0.5,0.1-0.7,0.1h-4.8L206,105.4z M209.3,104.3h0.9h0.3c0,0,0-0.1,0-0.1v-0.1c0-0.2,0-0.4-0.1-0.6    c-0.1-0.2-0.2-0.5-0.3-0.7c-0.2-0.2-0.4-0.4-0.6-0.6c-0.3-0.2-0.7-0.3-1-0.2c-0.3,0-0.6,0.1-0.9,0.2c-0.3,0.1-0.5,0.3-0.7,0.5    c-0.2,0.2-0.3,0.5-0.5,0.7c-0.1,0.3-0.2,0.6-0.2,0.9L209.3,104.3z"/>
		<path class="st28" d="M225.2,109.1c0,0.1,0,0.2-0.1,0.2c-0.3,0.1-0.6,0.3-1,0.3c-0.4,0-0.9,0.1-1.3,0.1c-0.7,0-1.4-0.1-2.1-0.3    c-0.7-0.2-1.3-0.6-1.9-1c-0.6-0.5-1-1.1-1.3-1.8c-0.4-0.9-0.5-1.8-0.5-2.7c0-0.8,0.1-1.6,0.4-2.3c0.5-1.4,1.7-2.5,3.1-3    c0.8-0.3,1.6-0.5,2.4-0.5c0.5,0,0.9,0,1.4,0.1c0.3,0,0.5,0.1,0.8,0.2c0.1,0,0.1,0.1,0.1,0.1v1.2c0,0.1,0,0.1-0.1,0.1    c-0.7-0.3-1.5-0.4-2.2-0.4c-0.6,0-1.3,0.1-1.9,0.3c-0.5,0.2-1,0.5-1.4,0.9c-0.4,0.4-0.7,0.9-0.9,1.4c-0.2,0.6-0.3,1.2-0.3,1.9    c0,0.8,0.1,1.5,0.5,2.2c0.5,1.1,1.5,1.9,2.6,2.2c0.5,0.1,1,0.2,1.5,0.2c0.4,0,0.8,0,1.2-0.1c0.3,0,0.7-0.1,1-0.2    c0.1,0,0.1,0,0.1,0.1L225.2,109.1z"/>
		<path class="st28" d="M230.3,100.8c0.6,0,1.1,0.1,1.7,0.3c0.4,0.2,0.8,0.5,1.2,0.9c0.3,0.4,0.6,0.9,0.8,1.4    c0.2,0.6,0.3,1.1,0.3,1.7c0,0.6-0.1,1.2-0.3,1.8c-0.2,0.5-0.5,1-0.8,1.4c-0.3,0.4-0.8,0.7-1.2,0.9c-0.5,0.2-1,0.3-1.6,0.3    c-0.6,0-1.2-0.1-1.8-0.4c-0.5-0.2-0.9-0.6-1.2-1c-0.3-0.4-0.6-0.9-0.7-1.4c-0.2-0.5-0.2-1-0.2-1.6c0-0.6,0.1-1.2,0.3-1.7    c0.2-0.5,0.4-1,0.8-1.4c0.3-0.4,0.8-0.7,1.3-0.9C229.1,100.9,229.7,100.8,230.3,100.8z M230.2,102.1c-0.3,0-0.7,0.1-1,0.2    c-0.3,0.2-0.6,0.4-0.8,0.6c-0.2,0.3-0.4,0.6-0.5,1c-0.2,0.8-0.2,1.7,0,2.5c0.1,0.4,0.3,0.7,0.5,1c0.2,0.3,0.5,0.5,0.8,0.7    c0.6,0.3,1.4,0.3,2,0c0.3-0.1,0.6-0.3,0.8-0.6c0.2-0.3,0.4-0.6,0.6-1c0.1-0.4,0.2-0.9,0.2-1.4c0-0.4,0-0.8-0.1-1.2    c-0.1-0.4-0.2-0.7-0.4-1C231.8,102.3,231,102,230.2,102.1L230.2,102.1z"/>
		<path class="st28" d="M236.2,109.4c-0.1,0-0.1,0-0.1-0.1v-6.5c0-0.4,0-0.7,0-1c0-0.3,0-0.5,0-0.7s0-0.1,0.1-0.1h1.1    c0.1,0,0.1,0,0.1,0.1c0,0.1,0.1,0.3,0.1,0.4c0,0.2,0,0.3,0,0.4c0.7-0.7,1.6-1.1,2.6-1.1c1-0.1,1.9,0.4,2.3,1.3    c0.4-0.4,0.8-0.7,1.2-0.9c0.5-0.3,1.1-0.4,1.6-0.4c0.3,0,0.7,0,1,0.1c0.3,0.1,0.6,0.3,0.9,0.5c0.3,0.3,0.5,0.6,0.7,1    c0.2,0.5,0.3,1.1,0.3,1.6v5.2c0,0.1,0,0.1-0.1,0.1h-1.2c-0.1,0-0.1,0-0.1-0.1v-5c0-0.5-0.1-1.1-0.4-1.5c-0.3-0.4-0.8-0.7-1.3-0.6    c-0.4,0-0.8,0.1-1.2,0.3c-0.4,0.2-0.7,0.4-0.9,0.7c0,0.1,0,0.3,0,0.5s0,0.4,0,0.6v5.1c0,0.1,0,0.1-0.1,0.1h-1.2    c-0.1,0-0.1,0-0.1-0.1c0,0,0,0,0,0v-5.1c0-0.5-0.1-1.1-0.4-1.5c-0.3-0.4-0.8-0.6-1.3-0.6c-0.4,0-0.8,0.1-1.1,0.2    c-0.4,0.2-0.7,0.4-1,0.7v6.2c0,0.1,0,0.1-0.1,0.1c0,0,0,0,0,0H236.2z"/>
		<path class="st28" d="M253.7,100.8c0.6,0,1.2,0.1,1.7,0.3c0.5,0.2,0.9,0.5,1.3,0.9c0.3,0.4,0.6,0.8,0.8,1.3    c0.2,0.5,0.3,1.1,0.3,1.6c0,0.7-0.1,1.4-0.4,2.1c-0.3,0.6-0.7,1.1-1.2,1.5c-0.5,0.4-1,0.7-1.6,0.9c-0.6,0.2-1.2,0.3-1.8,0.3    l-0.4,0h-0.4v3.5c0,0.1,0,0.1-0.1,0.1c0,0,0,0,0,0h-0.4h-0.4h-0.3h-0.2c-0.1,0-0.1,0-0.1-0.1v-11c0-0.2,0-0.3,0-0.4c0,0,0,0,0-0.1    c0.3-0.1,0.7-0.3,1.3-0.4C252.4,100.9,253,100.8,253.7,100.8z M253.5,102.1c-0.3,0-0.6,0-0.8,0.1c-0.3,0-0.5,0.1-0.8,0.2v5.9    c0.2,0,0.3,0.1,0.5,0.1h0.5c0.4,0,0.8-0.1,1.2-0.2c0.4-0.1,0.8-0.3,1.1-0.6c0.3-0.3,0.6-0.6,0.8-1c0.2-0.5,0.3-1,0.3-1.5    c0-0.8-0.2-1.5-0.7-2.1C254.9,102.3,254.2,102,253.5,102.1z"/>
		<path class="st28" d="M265.4,107.9v0.4c0,0.1,0,0.3,0,0.4c0,0,0,0,0,0.1c-0.5,0.3-1.1,0.5-1.7,0.6c-0.5,0.1-1,0.2-1.5,0.2    c-0.4,0-0.9-0.1-1.3-0.2c-0.4-0.1-0.7-0.3-1-0.5c-0.3-0.2-0.5-0.5-0.7-0.8c-0.2-0.4-0.3-0.8-0.2-1.2c0-0.4,0.1-0.8,0.3-1.2    c0.2-0.3,0.5-0.6,0.8-0.8c0.4-0.2,0.8-0.4,1.2-0.5c0.5-0.1,1-0.2,1.5-0.2h0.8h0.4v-0.4c0-0.2,0-0.3-0.1-0.5    c-0.1-0.2-0.1-0.4-0.3-0.6c-0.2-0.2-0.4-0.4-0.6-0.5c-0.3-0.1-0.7-0.2-1-0.2c-0.4,0-0.8,0-1.2,0.1c-0.3,0.1-0.7,0.2-1,0.4    c-0.1,0-0.1,0-0.1-0.1v-1.1c0-0.1,0-0.1,0.1-0.1c0.4-0.2,0.8-0.3,1.2-0.4c0.4-0.1,0.9-0.1,1.3-0.1c0.5,0,1,0.1,1.4,0.3    c0.4,0.2,0.7,0.4,1,0.7c0.3,0.3,0.4,0.7,0.6,1c0.1,0.4,0.2,0.8,0.2,1.3L265.4,107.9z M264,105.4c-0.2,0-0.3,0-0.5-0.1h-0.7    c-0.6,0-1.3,0.1-1.9,0.4c-0.4,0.3-0.6,0.7-0.6,1.2c0,0.2,0,0.4,0.1,0.6c0.1,0.2,0.2,0.4,0.4,0.5c0.2,0.2,0.4,0.3,0.6,0.3    c0.3,0.1,0.6,0.1,1,0.1c0.5,0,1.1-0.1,1.6-0.3V105.4z"/>
		<path class="st28" d="M267.9,102.9c0-0.1,0-0.3,0-0.5c0-0.2,0-0.4,0-0.5c0-0.2,0-0.3,0-0.5c0-0.1,0-0.2,0-0.3c0-0.1,0-0.1,0.1-0.1    c0,0,0,0,0,0h1.1c0.1,0,0.1,0,0.2,0.1c0,0.1,0,0.2,0,0.3c0,0.2,0,0.3,0.1,0.5c0.7-0.7,1.6-1.2,2.6-1.2c0.3,0,0.6,0,1,0.1    c0.3,0.1,0.7,0.3,0.9,0.5c0.3,0.3,0.5,0.6,0.7,1c0.2,0.5,0.3,1.1,0.3,1.7v5.1c0,0.1,0,0.1-0.1,0.1h-1.2c-0.1,0-0.1,0-0.1-0.1v-4.9    c0-0.6-0.1-1.1-0.4-1.6c-0.3-0.4-0.8-0.6-1.3-0.6c-0.4,0-0.8,0.1-1.2,0.3c-0.4,0.2-0.7,0.5-1,0.8v6.1c0,0.1,0,0.1-0.1,0.1h-1.2    c-0.1,0-0.1,0-0.1-0.1L267.9,102.9z"/>
		<path class="st28" d="M277.3,101c0.1,0,0.1,0,0.1,0.1c0.4,1,0.7,1.8,0.9,2.5c0.3,0.7,0.5,1.3,0.7,1.9c0.2,0.5,0.4,1,0.5,1.3    l0.3,0.8c0.3-0.8,0.6-1.7,1-2.8c0.4-1,0.8-2.3,1.4-3.8c0-0.1,0.1-0.1,0.1-0.1h1.2c0.1,0,0.1,0,0.1,0.1c-0.3,0.9-0.7,1.9-1.1,2.9    c-0.4,1-0.8,2-1.2,3c-0.4,1-0.8,2-1.2,3c-0.4,1-0.8,2-1.3,2.9c0,0.1-0.1,0.1-0.2,0.1l-1.3,0.1c-0.1,0-0.1,0,0-0.1l0.8-1.8    c0.3-0.7,0.6-1.3,0.9-2c0-0.1,0-0.2,0-0.2l-0.3-0.8l-0.5-1.2l-0.6-1.4c-0.2-0.5-0.4-1-0.6-1.6c-0.2-0.5-0.4-1.1-0.6-1.6l-0.6-1.5    c0-0.1,0-0.1,0.1-0.1L277.3,101z"/>
	</g>
</g>
</svg>