<?xml version="1.0" encoding="UTF-8"?>
<!-- Generator: Adobe Illustrator 22.0.1, SVG Export Plug-In . SVG Version: 6.00 Build 0)  -->
<svg version="1.1" id="Capa_1" xmlns="http://www.w3.org/2000/svg" xmlns:xlink="http://www.w3.org/1999/xlink" x="0px" y="0px" viewBox="0 0 370 156" style="enable-background:new 0 0 370 156;" xml:space="preserve">
<style type="text/css">
	.st0{fill:#545454;}
	.st1{fill:#2C2A2A;}
	.st2{fill:#FDFDFD;}
	.st3{fill:#D8AC53;}
	.st4{fill:#8E9193;}
	.st5{fill:#762A54;}
	.st6{fill:#B8BBBD;}
	.st7{fill:#DCDCDC;}
	.st8{fill:#BCD7E7;}
	.st9{fill:#DFDCD9;}
	.st10{fill:#B9BABB;}
	.st11{fill:#9D937B;}
	.st12{fill:#7E7263;}
	.st13{fill:none;}
	.st14{fill:#A6146C;}
	.st15{fill:#B5AC98;}
	.st16{fill:#9E937B;}
	.st17{fill:#2D2149;}
	.st18{fill:#BB2B6A;}
	.st19{fill:#9CBB34;}
	.st20{fill:#638B22;}
	.st21{fill:#FFFFFF;}
	.st22{fill:#1E120E;}
	.st23{fill-rule:evenodd;clip-rule:evenodd;fill:#9B5C8D;}
	.st24{fill-rule:evenodd;clip-rule:evenodd;fill:#FFFFFF;}
	.st25{fill-rule:evenodd;clip-rule:evenodd;}
	.st26{fill:#34313F;}
	.st27{fill:#DF6322;}
	.st28{fill:#4D4D4D;}
	.st29{fill:#6F7174;}
	.st30{fill:#97999C;}
	.st31{fill:#A1A3A6;}
	.st32{fill:#838588;}
	.st33{fill:#797B7E;}
	.st34{fill:#E6E6E6;}
	.st35{fill:#8D8F92;}
	.st36{fill-rule:evenodd;clip-rule:evenodd;fill:#97999C;}
	.st37{fill:#487496;}
	.st38{fill:#484848;}
</style>
<g>
	<path class="st19" d="M118.1,55c0.3,0,0.5,0.1,0.8,0.3c-2,0.9-4.1,3.3-5,8c-1.3,0.4-2.6,0.8-3.8,1.2C111.1,60.8,113.6,55,118.1,55   L118.1,55z M119.9,56.7c0.4,1,0.6,2.3,0.6,4.2c0,0.1,0,0.2,0,0.3c-1.5,0.5-3.2,1-4.8,1.5C116.7,59.1,118.4,57.4,119.9,56.7   L119.9,56.7z M124.5,60c-0.7,0.2-1.5,0.5-2.3,0.7c0-0.2,0-0.3,0-0.5c0-1.5-0.2-2.8-0.6-3.8C123,56.6,123.9,58.2,124.5,60L124.5,60z    M135.7,62.7c0-0.2-0.2-0.4-0.4-0.4c-0.2,0-3.9-0.3-3.9-0.3s-2.6-2.6-2.9-2.8c-0.3-0.3-0.8-0.2-1-0.1c0,0-0.6,0.2-1.4,0.4   c-0.9-2.5-2.4-4.7-5-4.7c-0.1,0-0.1,0-0.2,0c-0.8-1-1.7-1.4-2.5-1.4c-6.2,0-9.2,7.8-10.1,11.7c-2.4,0.7-4.1,1.3-4.4,1.4   c-1.3,0.4-1.4,0.5-1.6,1.7c-0.1,1-3.7,28.3-3.7,28.3l27.5,5.2l14.9-3.2C141,98.3,135.7,62.9,135.7,62.7L135.7,62.7z"/>
	<path class="st20" d="M135.3,62.3c-0.2,0-3.9-0.3-3.9-0.3s-2.6-2.6-2.9-2.8c-0.1-0.1-0.2-0.2-0.4-0.2l-2.1,42.5l14.9-3.2   c0,0-5.2-35.4-5.3-35.6C135.7,62.5,135.4,62.3,135.3,62.3L135.3,62.3z"/>
	<path class="st21" d="M121,70.5l-1.8,5.5c0,0-1.6-0.9-3.6-0.9c-2.9,0-3,1.8-3,2.3c0,2.5,6.5,3.5,6.5,9.3c0,4.6-2.9,7.6-6.9,7.6   c-4.7,0-7.1-2.9-7.1-2.9l1.3-4.2c0,0,2.5,2.1,4.6,2.1c1.4,0,1.9-1.1,1.9-1.9c0-3.3-5.3-3.4-5.3-8.8c0-4.5,3.2-8.9,9.8-8.9   C119.7,69.8,121,70.5,121,70.5L121,70.5z"/>
	<path class="st22" d="M158.3,80.8c-1.5-0.8-2.3-1.5-2.3-2.4c0-1.2,1.1-2,2.7-2c1.9,0,3.7,0.8,3.7,0.8l1.4-4.2c0,0-1.2-1-4.9-1   c-5.1,0-8.7,2.9-8.7,7c0,2.3,1.7,4.1,3.9,5.4c1.8,1,2.4,1.7,2.4,2.8c0,1.1-0.9,2-2.5,2c-2.5,0-4.8-1.3-4.8-1.3l-1.4,4.2   c0,0,2.2,1.4,5.8,1.4c5.3,0,9-2.6,9-7.3C162.5,83.9,160.6,82.1,158.3,80.8L158.3,80.8z"/>
	<path class="st22" d="M179.3,72c-2.6,0-4.6,1.2-6.2,3.1l-0.1,0l2.3-11.8h-5.9l-5.7,29.9h5.9l2-10.2c0.8-3.9,2.8-6.2,4.6-6.2   c1.3,0,1.8,0.9,1.8,2.2c0,0.8-0.1,1.8-0.3,2.6l-2.2,11.7h5.9l2.3-12.1c0.3-1.3,0.4-2.8,0.4-3.8C184.1,74,182.4,72,179.3,72   L179.3,72z"/>
	<path class="st22" d="M194.5,89.2c-2,0-2.8-1.7-2.8-3.8c0-3.4,1.7-8.8,4.9-8.8c2.1,0,2.8,1.8,2.8,3.5   C199.3,83.7,197.6,89.2,194.5,89.2L194.5,89.2z M197.4,72c-7,0-11.7,6.4-11.7,13.5c0,4.5,2.8,8.2,8.1,8.2c6.9,0,11.6-6.2,11.6-13.5   C205.3,76,202.8,72,197.4,72L197.4,72z"/>
	<path class="st22" d="M214.7,89.3c-1.5,0-2.4-0.8-2.4-0.8l1-5.5c0.7-3.7,2.6-6.1,4.6-6.1c1.8,0,2.3,1.7,2.3,3.2   C220.2,83.9,217.9,89.3,214.7,89.3L214.7,89.3z M220.3,72c-4,0-6.2,3.5-6.2,3.5H214l0.3-3.1h-5.2c-0.3,2.1-0.7,5.4-1.2,7.8   l-4.1,21.4h5.9l1.6-8.7h0.1c0,0,1.2,0.8,3.4,0.8c6.9,0,11.4-7,11.4-14.2C226.3,75.6,224.6,72,220.3,72L220.3,72z"/>
	<path class="st22" d="M234.7,63.6c-1.9,0-3.4,1.5-3.4,3.4c0,1.7,1.1,2.9,2.8,2.9h0.1c1.8,0,3.4-1.2,3.4-3.4   C237.6,64.9,236.5,63.6,234.7,63.6L234.7,63.6z"/>
	<polygon class="st22" points="226.5,93.3 232.3,93.3 236.3,72.5 230.4,72.5 226.5,93.3  "/>
	<path class="st22" d="M251.2,72.5h-4.1l0.2-1c0.3-2,1.5-3.8,3.5-3.8c1,0,1.9,0.3,1.9,0.3l1.1-4.6c0,0-1-0.5-3.2-0.5   c-2.1,0-4.2,0.6-5.7,2c-2,1.7-2.9,4.2-3.4,6.6l-0.2,1h-2.7l-0.8,4.4h2.7l-3.1,16.4h5.9l3.1-16.4h4L251.2,72.5L251.2,72.5z"/>
	<path class="st22" d="M265.3,72.5c0,0-3.7,9.2-5.3,14.3h-0.1c-0.1-1.6-1.4-14.3-1.4-14.3h-6.2l3.5,19.1c0.1,0.4,0,0.7-0.1,1   c-0.7,1.3-1.8,2.6-3.2,3.5c-1.1,0.8-2.3,1.3-3.3,1.7l1.6,5c1.2-0.3,3.7-1.2,5.7-3.2c2.7-2.5,5.1-6.4,7.7-11.6l7.2-15.4H265.3   L265.3,72.5z"/>
</g>
</svg>