<?xml version="1.0" encoding="UTF-8"?>
<!-- Generator: Adobe Illustrator 22.0.1, SVG Export Plug-In . SVG Version: 6.00 Build 0)  -->
<svg version="1.1" id="Capa_1" xmlns="http://www.w3.org/2000/svg" xmlns:xlink="http://www.w3.org/1999/xlink" x="0px" y="0px" viewBox="0 0 370 156" style="enable-background:new 0 0 370 156;" xml:space="preserve">
<style type="text/css">
	.st0{fill:#545454;}
	.st1{fill:#2C2A2A;}
	.st2{fill:#FDFDFD;}
	.st3{fill:#D8AC53;}
	.st4{fill:#8E9193;}
	.st5{fill:#762A54;}
	.st6{fill:#B8BBBD;}
	.st7{fill:#DCDCDC;}
	.st8{fill:#BCD7E7;}
	.st9{fill:#DFDCD9;}
	.st10{fill:#B9BABB;}
	.st11{fill:#9D937B;}
	.st12{fill:#7E7263;}
	.st13{fill:none;}
	.st14{fill:#A6146C;}
	.st15{fill:#B5AC98;}
	.st16{fill:#9E937B;}
	.st17{fill:#2D2149;}
	.st18{fill:#BB2B6A;}
	.st19{fill:#9CBB34;}
	.st20{fill:#638B22;}
	.st21{fill:#FFFFFF;}
	.st22{fill:#1E120E;}
	.st23{fill-rule:evenodd;clip-rule:evenodd;fill:#9B5C8D;}
	.st24{fill-rule:evenodd;clip-rule:evenodd;fill:#FFFFFF;}
	.st25{fill-rule:evenodd;clip-rule:evenodd;}
	.st26{fill:#34313F;}
	.st27{fill:#DF6322;}
	.st28{fill:#4D4D4D;}
	.st29{fill:#6F7174;}
	.st30{fill:#97999C;}
	.st31{fill:#A1A3A6;}
	.st32{fill:#838588;}
	.st33{fill:#797B7E;}
	.st34{fill:#E6E6E6;}
	.st35{fill:#8D8F92;}
	.st36{fill-rule:evenodd;clip-rule:evenodd;fill:#97999C;}
	.st37{fill:#487496;}
	.st38{fill:#484848;}
</style>
<g>
	<g>
		<g id="EbUka2_1_">
			<g>
				<path class="st0" d="M99.4,93.5c0-0.4-0.1-0.7-0.1-1.1c0-0.3-0.1-0.5-0.4-0.4c-0.3,0-0.4-0.1-0.4-0.4c-0.1-0.4-0.2-0.7-0.3-1.1      c-0.1-0.3-0.2-0.7-0.3-1c0.1-0.1,0.3-0.2,0.4-0.2c0.3,0,0.5-0.2,0.8-0.3c0.4-0.2,0.8-0.4,1.2-0.6c0.7-0.4,1.4-0.8,2-1.3      c0.4-0.3,0.8-0.6,1.2-0.9c0.4-0.3,0.8-0.7,1.2-1c0.1-0.1,0.2-0.2,0.4-0.2c-0.7,0.7-1.4,1.3-2.2,1.9c-1,0.8-2.1,1.5-3.3,2      c-0.1,0-0.1,0.1-0.2,0.1c0.4,0.2,0.7,0.5,1,0.7c1,0.7,1.8,1.5,2.6,2.3c0,0,0.1,0,0.1,0.1c-0.3,0.4-0.7,0.6-1.1,0.9      c-0.5,0.4-1,0.7-1.6,1.1c-0.1,0-0.1,0.1-0.2,0.1C99.9,93.9,99.7,93.7,99.4,93.5z"/>
				<path class="st0" d="M83.9,89.2c-0.1,0.4-0.3,0.9-0.4,1.3c-0.1,0.4-0.3,0.9-0.4,1.3c0,0.1-0.1,0.2-0.3,0.2      c-0.3,0-0.5,0.1-0.5,0.5c0,0.3,0,0.7-0.1,1c-0.1,0-0.2,0.1-0.2,0.2c-0.2,0.2-0.4,0.3-0.5,0.6c-1-0.6-1.9-1.2-2.8-2      c0,0-0.1-0.1-0.1-0.1c0.4-0.4,0.8-0.8,1.2-1.2c0.9-0.8,1.9-1.6,3-2.2c0.1,0,0.1-0.1,0.2-0.1c0.1,0,0.2,0,0.2,0.1      C83.4,88.8,83.6,89,83.9,89.2z"/>
				<path class="st1" d="M99.4,93.5c0.3,0.2,0.5,0.4,0.7,0.7c-0.2,0.2-0.4,0.3-0.6,0.4C99.5,94.2,99.4,93.9,99.4,93.5z"/>
				<path class="st1" d="M81.4,94.2c0.1-0.2,0.3-0.4,0.5-0.6c0.1-0.1,0.1-0.2,0.2-0.2c-0.1,0.4-0.1,0.7-0.2,1.1      C81.8,94.5,81.6,94.4,81.4,94.2z"/>
				<path class="st2" d="M83.9,89.2c-0.2-0.2-0.5-0.3-0.7-0.5c-0.1-0.1-0.1-0.1-0.2-0.1c0-0.1,0-0.1-0.1-0.2c-1.1-0.8-2-1.8-2.7-2.9      c-0.7-1-1.2-2-1.6-3.1c-0.1-0.2-0.1-0.3-0.1-0.5c0.2-1.1,0.6-2.1,1.1-3.1c0.1-0.3,0.2-0.6,0.4-0.8c0.1,0,0.2,0,0.2,0      c1.8,0,3.6,0,5.4,0c0,0,0,0,0.1,0c1,0.3,2,0.5,3.1,0.7c0.6,0.1,1.1,0.3,1.7,0.4c0.1,0.1,0.2,0.1,0.3,0.2      c0.4,0.3,0.9,0.5,1.4,0.4c0.9-0.2,1.4-0.8,1.5-1.7c0.5,0,1,0,1.5,0c0,0.2-0.1,0.4-0.1,0.6c-0.1,0.5-0.2,1-0.4,1.4      c-0.4,1.1-1,2.1-1.4,3.1c-0.1,0.3-0.3,0.6-0.3,0.9c-0.2,0.3-0.3,0.7-0.4,1c-0.1,0.2-0.1,0.2-0.3,0.1c-1.2-0.5-2.4-1.1-3.5-1.8      c-0.1-0.1-0.2-0.2-0.4-0.2c0.1,0.1,0.2,0.2,0.2,0.3c1,1.1,2.1,2.1,3.4,3c0.1,0.1,0.2,0.2,0.2,0.4c0,1,0.4,1.7,1.2,2.2      c1,0.6,2.1,0.8,3.3,0.7c0,0.1-0.1,0.1-0.2,0.2c-0.2,0.1-0.3,0.2-0.5,0.2c-0.5,0.2-1,0.3-1.5,0.5c-0.5,0.1-0.9,0.2-1.4,0.3      c-1.4,0.2-2.7,0.2-4.1,0c-0.5-0.1-1-0.2-1.5-0.3c-0.5-0.2-1-0.3-1.4-0.5c-0.6-0.3-1.1-0.5-1.7-0.9C84.1,89.3,84,89.2,83.9,89.2z      "/>
				<path class="st0" d="M79.9,78.1c-0.2,0.2-0.3,0.5-0.4,0.8c-0.5,1-0.8,2-1.1,3.1c-0.1-0.1-0.1-0.2-0.2-0.3      c-0.4-1.5-0.6-3-0.5-4.5c0.1-2,0.7-3.9,1.7-5.6c1-1.7,2.3-3.1,3.8-4.2c1.8-1.3,3.8-2,5.9-2.3c3-0.4,5.8,0.2,8.4,1.8      c2.3,1.3,3.9,3.2,5.1,5.6c0.2,0.4,0.3,0.8,0.5,1.1c0,0.1,0.1,0.1,0,0.3c-0.2-0.2-0.4-0.4-0.5-0.6c0.1,0,0.1-0.1,0-0.2      c0-0.1-0.1-0.2-0.1-0.3c-0.3-0.7-0.6-1.3-1.2-1.8c-0.7-0.6-1.6-0.6-2.3,0c-0.5,0.4-0.9,1-1.2,1.7c-0.3,0.6-0.4,1.2-0.6,1.8      c0,0.2-0.1,0.3,0,0.5c-0.1,0.1-0.1,0.2-0.2,0.3c-0.1,0-0.1,0-0.1,0c-0.2-0.2-0.4-0.4-0.7-0.6c-0.4-0.3-0.7-0.6-1.2-0.8      c0,0-0.1-0.1-0.1-0.1c-0.1-0.2-0.1-0.3-0.2-0.5c-0.5-0.8-1.1-1.4-1.8-2c-1.2-0.9-2.5-1.3-3.9-1.3c-0.8,0-1.7,0.2-2.5,0.4      c-0.4,0.2-0.9,0.4-1.2,0.6c-0.7,0.5-1.3,1-1.8,1.7c-0.4,0.6-0.8,1.3-1,2c-0.4,0.4-0.9,0.8-1.3,1.3      C80.9,76.6,80.3,77.3,79.9,78.1z"/>
				<path class="st3" d="M97.2,75.2c0,0.3,0.1,0.5,0.2,0.8c0.1,0.4,0.2,0.8,0.3,1.2c0,0.1,0,0.3,0,0.4c-0.3,1.1-0.9,2.1-1.6,3.1      c-0.8,1-1.7,1.9-2.6,2.8c-0.3,0.3-0.5,0.6-0.8,0.8c0-0.3,0.2-0.6,0.3-0.9c0.4-1.1,1-2.1,1.4-3.1c0.2-0.5,0.3-0.9,0.4-1.4      c0-0.2,0.2-0.4,0.1-0.6c0.1-0.1,0-0.3,0.1-0.5c0.1-0.8,0.2-1.6,0.2-2.4c0-0.5,0-1,0-1.6c0.4,0.2,0.8,0.5,1.2,0.8      c0.2,0.2,0.4,0.4,0.7,0.6C97.1,75.1,97.1,75.1,97.2,75.2C97.1,75.1,97.2,75.1,97.2,75.2z"/>
				<path class="st1" d="M97.3,74.8c-0.1-0.2,0-0.3,0-0.5c0.2-0.6,0.3-1.2,0.6-1.8c0.3-0.6,0.6-1.2,1.2-1.7c0.7-0.6,1.6-0.6,2.3,0      c0.6,0.5,0.9,1.1,1.2,1.8c0,0.1,0.1,0.2,0.1,0.3c0,0.1,0,0.1,0,0.2c-0.4-0.4-0.9-0.8-1.4-0.9c-0.9-0.2-1.7,0-2.3,0.6      c-0.6,0.5-1.1,1.1-1.4,1.8C97.4,74.6,97.3,74.7,97.3,74.8z"/>
				<path class="st2" d="M103.3,82.2c-0.1-0.1-0.2-0.2-0.3-0.3c-0.9-1.2-1.8-2.4-2.8-3.6c0,0,0-0.1,0-0.1c0-0.1,0.1-0.1,0.1-0.1      c0.4,0,0.8,0,1.3,0c0,0.4,0.1,0.7,0.3,1c0.3,0.3,0.6,0.4,0.9,0c0.1-0.2,0.2-0.4,0.3-0.6c0.2-0.1,0.3-0.3,0.4-0.4      c0.1,0,0.1,0,0.2,0c0.3,0,0.4,0,0.3,0.3c-0.1,1-0.2,1.9-0.4,2.9C103.5,81.7,103.4,81.9,103.3,82.2z"/>
				<path class="st1" d="M103.1,78.6c-0.1,0.2-0.1,0.4-0.3,0.6c-0.3,0.3-0.6,0.3-0.9,0c-0.2-0.3-0.3-0.7-0.3-1      c0-0.3,0.1-0.6,0.2-0.9c0,0,0.1,0,0.1-0.1c0.3-0.4,0.6-0.4,0.9,0c0,0,0.1,0.1,0.1,0.1c0.1,0.1,0.1,0.3,0.2,0.4      C103.1,78,103.1,78.3,103.1,78.6z M102.6,77.5c0-0.3-0.1-0.5-0.3-0.5c-0.2,0-0.3,0.2-0.3,0.5c0,0.3,0.1,0.5,0.3,0.5      C102.5,78,102.6,77.8,102.6,77.5z"/>
				<path class="st4" d="M102.9,77.3c0,0-0.1-0.1-0.1-0.1c-0.3-0.4-0.6-0.4-0.9,0c0,0-0.1,0-0.1,0.1c-0.1-0.2,0-0.3,0.1-0.5      c0.1-0.6,0.3-1.2,0.4-1.8c0-0.1,0-0.2,0.1-0.2c0,0,0,0,0.1,0c0.1,0.7,0.3,1.3,0.4,2C102.9,76.9,103,77.1,102.9,77.3z"/>
				<path class="st0" d="M103.1,78.6c0-0.3,0-0.6,0-0.9c0.2,0.1,0.3,0.3,0.4,0.4C103.3,78.3,103.2,78.5,103.1,78.6z"/>
				<path class="st1" d="M92.7,84.2c0.3-0.2,0.5-0.5,0.8-0.8c0.9-0.9,1.8-1.8,2.6-2.8c0.7-0.9,1.3-1.9,1.6-3.1      c0.1,0.1,0.1,0.3,0.1,0.4c0,0.6,0.1,1.3,0,1.9c-0.2,1-0.5,1.9-1,2.8c-0.4,0.6-0.7,1.3-1.1,1.9c-0.1,0-0.1,0.1-0.1,0.2      c0,0,0,0.1-0.1,0.1c-0.1,0-0.1,0-0.1,0.1c0,0,0,0.1,0,0.1c-0.1,0-0.1,0.1-0.1,0.2c0,0.1,0,0.1,0,0.2c-0.1,0.1-0.1,0.2-0.1,0.3      c0,0.1,0,0.1,0,0.2c-0.1,0-0.1,0.1-0.1,0.2c-0.1,1,0.1,1.9,0.7,2.7c0,0.1,0.1,0.1,0.2,0.2l0,0c0,0.1,0,0.1,0.1,0.2      c0.1,0.2,0.3,0.3,0.5,0.5c0,0-0.1,0-0.1,0c-1.2,0.1-2.3-0.1-3.3-0.7C92.4,88.7,92,87.9,92,87c0-0.2-0.1-0.3-0.2-0.4      c-1.3-0.8-2.4-1.8-3.4-3c-0.1-0.1-0.1-0.2-0.2-0.3c0.2,0,0.3,0.1,0.4,0.2c1.1,0.7,2.3,1.3,3.5,1.8c0.2,0.1,0.2,0,0.3-0.1      C92.4,84.9,92.5,84.5,92.7,84.2z"/>
				<path class="st1" d="M87.3,90.7c0.5,0.1,1,0.2,1.5,0.3c1.4,0.2,2.7,0.2,4.1,0c0.5-0.1,0.9-0.2,1.4-0.3c0,0,0.1,0.1,0.1,0.1      c0.4,0.1,0.8,0.2,1.2,0.4c0.2,0.1,0.4,0.2,0.6,0.2c0.2,0.6,0.2,0.6-0.4,0.6c-3.4,0-6.7,0-10.1,0c-0.4,0-0.4,0-0.3-0.4      c0-0.1,0.1-0.1,0.1-0.2c0.6-0.2,1.1-0.4,1.7-0.6C87.2,90.8,87.3,90.7,87.3,90.7z"/>
				<path class="st0" d="M96.1,91.4c-0.2,0-0.4-0.2-0.6-0.2c-0.4-0.1-0.8-0.3-1.2-0.4c0,0-0.1,0-0.1-0.1c0.5-0.2,1-0.3,1.5-0.5      C95.9,90.6,96,91,96.1,91.4z"/>
				<path class="st0" d="M87.3,90.7c0,0,0,0.1-0.1,0.1c-0.6,0.1-1.1,0.4-1.7,0.6c0.1-0.3,0.2-0.7,0.3-1c0-0.1,0-0.1,0-0.2      C86.3,90.4,86.8,90.5,87.3,90.7z"/>
				<path class="st5" d="M96.6,89.8c-0.2-0.2-0.3-0.3-0.5-0.5c0-0.1-0.1-0.1-0.1-0.2c0.1,0,0.2,0.1,0.2,0.1c0.3,0.5,0.7,0.5,1.1,0.4      c0.1,0,0.2-0.1,0.3,0C97.3,89.7,96.9,89.8,96.6,89.8z"/>
				<path class="st6" d="M91.6,72.3c-1.8-0.4-3.7-0.2-5.5,0.4c-1.1,0.4-2.2,1-3.1,1.7c-0.1,0.1-0.2,0.2-0.3,0.2      c-0.4,0.4-0.9,0.8-1.3,1.3c-0.6,0.7-1.2,1.4-1.6,2.3c0.1,0,0.2,0,0.2,0c1.8,0,3.6,0,5.4,0c0.1-0.1,0.2-0.1,0.4-0.1      c1.4-0.4,2.9-0.7,4.3-1.1c0.1,0,0.2-0.1,0.2,0c0.1,0,0.1-0.1,0.2-0.2c-0.1-0.2,0.1-0.4,0.2-0.6c0.3-1,0.6-1.9,0.9-2.9      c0,0,0,0,0-0.1C91.6,72.9,91.6,72.6,91.6,72.3z"/>
				<path class="st7" d="M95.2,73.7C95.2,73.7,95.1,73.6,95.2,73.7c-0.8-0.5-1.5-0.8-2.3-1.1c-0.4-0.1-0.9-0.3-1.3-0.3      c0,0.3,0,0.6,0.1,1c0,0,0,0,0,0c0.1,0.2,0.2,0.4,0.2,0.6c0.3,0.9,0.6,1.9,0.9,2.9c0,0,0,0.1,0,0.1c0.3,0.3,0.5,0.6,0.6,1      c0,0.1,0,0.2,0,0.3c0.5,0,1,0,1.5,0c0.1-0.1,0-0.3,0.1-0.5c0.1-0.8,0.2-1.6,0.2-2.4C95.3,74.7,95.2,74.2,95.2,73.7z"/>
				<path class="st1" d="M90.4,76.9c0.1,0,0.1-0.1,0.2-0.2c0,0,0.1,0,0.1-0.1c0.7-0.4,1.3-0.4,2,0c0,0,0.1,0.1,0.1,0.1      c0.3,0.3,0.5,0.6,0.6,1c0,0.1,0,0.2,0,0.3c-0.1,1-0.6,1.6-1.5,1.7c-0.5,0.1-1,0-1.4-0.4c-0.1-0.1-0.2-0.1-0.3-0.2      c0-0.1-0.1-0.1-0.1-0.2c-0.3-0.5-0.4-1-0.2-1.6C90.2,77.3,90.4,77.2,90.4,76.9z M92.4,77.3c0-0.4-0.3-0.7-0.7-0.7      c-0.4,0-0.7,0.3-0.7,0.6c0,0.4,0.3,0.7,0.7,0.7C92.1,77.9,92.4,77.6,92.4,77.3z"/>
				<path class="st0" d="M90.4,76.9c0,0.2-0.2,0.4-0.3,0.6c-0.2,0.6-0.1,1.1,0.2,1.6c0,0.1,0.1,0.1,0.1,0.2      c-0.6-0.1-1.1-0.3-1.7-0.4c-1-0.2-2-0.5-3.1-0.7c0,0,0,0-0.1,0c0.1-0.1,0.2-0.1,0.4-0.1c1.4-0.4,2.9-0.7,4.3-1.1      C90.2,76.9,90.3,76.9,90.4,76.9z"/>
				<path class="st1" d="M95.1,73.6c-0.7-0.4-1.4-0.7-2.2-1c-2.3-0.7-4.5-0.7-6.8,0.1c-1.1,0.4-2.2,1-3.1,1.7      c-0.1,0.1-0.2,0.2-0.3,0.2c0.2-0.8,0.6-1.4,1-2c0.5-0.7,1.1-1.2,1.8-1.7c0.4-0.3,0.8-0.5,1.2-0.6c0.8-0.3,1.6-0.5,2.5-0.4      c1.4,0.1,2.7,0.5,3.9,1.3c0.7,0.5,1.3,1.2,1.8,2C95,73.3,95,73.4,95.1,73.6z"/>
				<path class="st1" d="M95.9,88.9C96,88.9,96,89,96,89c-0.1,0-0.1-0.1-0.2-0.2c-0.6-0.8-0.7-1.8-0.7-2.7c0-0.1,0-0.1,0.1-0.2      c0,0.1,0,0.2,0,0.2c-0.1,0.7,0.1,1.3,0.3,1.9"/>
				<path class="st1" d="M95.5,85.1c0,0.1,0,0.2-0.1,0.2"/>
				<path class="st1" d="M95.8,84.5c0,0.1,0,0.1-0.1,0.2"/>
				<path class="st2" d="M102.6,77.5c0,0.3-0.1,0.5-0.3,0.5c-0.1,0-0.3-0.2-0.3-0.5c0-0.3,0.1-0.5,0.3-0.5      C102.5,77,102.6,77.2,102.6,77.5z"/>
				<path class="st4" d="M92.9,76.8c-0.1,0-0.1,0-0.1-0.1c-0.7-0.4-1.3-0.4-2,0c0,0-0.1,0-0.1,0.1c-0.1-0.2,0.1-0.4,0.2-0.6      c0.3-1,0.6-1.9,0.9-2.9c0,0,0,0,0-0.1c0.1,0.2,0.2,0.4,0.2,0.6C92.3,74.8,92.6,75.7,92.9,76.8C92.9,76.7,92.9,76.8,92.9,76.8z"/>
				<path class="st2" d="M92.4,77.3c0,0.4-0.3,0.7-0.7,0.7c-0.4,0-0.7-0.3-0.7-0.7c0-0.4,0.3-0.7,0.7-0.6      C92.1,76.6,92.4,76.9,92.4,77.3z"/>
			</g>
		</g>
		<g>
			<path class="st8" d="M109.4,75.5c-0.1-0.9-0.3-1.7-0.5-2.6c-0.3-1.1-0.7-2.2-1.3-3.3c-0.3-0.7-0.7-1.3-1.1-1.9     c-0.4-0.7-0.9-1.3-1.5-1.9c-0.9-1-1.8-1.9-2.9-2.7c-0.8-0.6-1.7-1.2-2.6-1.6c-1.1-0.6-2.2-1-3.3-1.3c-0.8-0.2-1.6-0.4-2.4-0.6     c-0.6-0.1-1.3-0.2-1.9-0.2c-0.8,0-1.6,0-2.4,0c-1,0.1-2,0.2-3,0.5c-1.4,0.3-2.7,0.8-3.9,1.4c-1.5,0.7-2.9,1.7-4.1,2.8     c-0.7,0.6-1.3,1.3-1.9,2c-0.8,0.9-1.5,1.9-2,3c-0.5,1-1,2-1.3,3c-0.4,1-0.6,2.1-0.8,3.2c-0.1,0.6-0.2,1.2-0.2,1.8     c0,1.4,0,2.7,0.2,4c0.2,1,0.4,2,0.7,2.9c0.4,1.1,0.8,2.1,1.4,3.1c0.3,0.5,0.6,1,0.9,1.5c0.8,1.1,1.6,2.1,2.6,3.1     c0.2,0.2,0.3,0.4,0.6,0.5c0.4-0.4,0.8-0.8,1.2-1.2c0.9-0.8,1.9-1.6,3-2.2c0.1,0,0.1-0.1,0.2-0.1c0-0.1,0-0.1-0.1-0.2     c-1.1-0.8-2-1.8-2.7-2.9c-0.7-1-1.2-2-1.6-3.1c-0.1-0.2-0.1-0.3-0.1-0.5c-0.1-0.1-0.1-0.2-0.2-0.3c-0.4-1.5-0.6-3-0.5-4.5     c0.1-2,0.7-3.9,1.7-5.6c1-1.7,2.3-3.1,3.8-4.2c1.8-1.3,3.8-2,5.9-2.3c3-0.4,5.8,0.2,8.4,1.8c2.3,1.3,3.9,3.2,5.1,5.6     c0.2,0.4,0.3,0.8,0.5,1.1c0,0,0,0.1,0,0.1c0.5,1.2,0.8,4.7,0.8,4.7l0,0c0,0,0,0.1,0,0.2c-0.1,1-0.2,1.9-0.4,2.9     c-0.1,0.3-0.2,0.6-0.2,0.9c0.2,0.3,0.4,0.6,0.6,0.9c0.4,0.5,0.7,1,1.1,1.6c0.1,0.1,0.1,0.2-0.1,0.3c-0.7,0.7-1.4,1.3-2.2,1.9     c-1,0.8-2.1,1.5-3.3,2c-0.1,0-0.1,0.1-0.2,0.1c0.4,0.2,0.7,0.5,1,0.7c1,0.7,1.8,1.5,2.6,2.3c0,0,0.1,0,0.1,0.1     c0.2-0.1,0.4-0.3,0.6-0.5c0.7-0.7,1.4-1.4,2-2.2c0.3-0.4,0.6-0.7,0.8-1.1c0.6-0.9,1.1-1.9,1.6-2.9c0.4-0.9,0.7-1.8,0.9-2.7     c0.2-0.7,0.3-1.3,0.4-2c0.1-0.8,0.2-1.6,0.2-2.4C109.6,77.4,109.5,76.5,109.4,75.5z"/>
			<path class="st9" d="M104,78.3C104,78.3,104,78.3,104,78.3L104,78.3z"/>
			<path class="st7" d="M102.1,72.6c-0.3-0.2-0.5-0.3-0.9-0.4c-0.9-0.2-1.7,0-2.3,0.6c-0.6,0.5-1.1,1.1-1.4,1.8     c0,0.1-0.1,0.1-0.1,0.2c-0.1,0.1-0.1,0.2-0.2,0.3c0,0,0,0.1,0,0.1c1,0.9,2,1.9,2.9,3c0,0,0,0.1,0.1,0.1c0-0.1,0.1-0.1,0.1-0.1     c0.4,0,0.8,0,1.3,0c0-0.3,0.1-0.6,0.2-0.9c-0.1-0.2,0-0.3,0.1-0.5c0.1-0.6,0.3-1.2,0.4-1.8c0-0.1,0-0.2,0.1-0.2c0,0,0,0,0,0     C102.3,74,102.1,73.3,102.1,72.6z"/>
			<path class="st10" d="M103.2,73.5c0,0,0,0.1,0,0.1c-0.2-0.2-0.4-0.4-0.5-0.6c-0.2-0.2-0.4-0.3-0.6-0.5c0,0.7,0.2,1.4,0.3,2.1     c0,0,0,0,0,0c0.1,0.7,0.3,1.3,0.4,2c0,0.2,0.2,0.4,0.1,0.6c0.1,0.1,0.1,0.3,0.2,0.4c0.2,0.1,0.3,0.3,0.4,0.4c0.1,0,0.1,0,0.2,0     c0.2,0,0.3,0,0.3,0.1c0,0,0,0,0,0l0,0C104,78.3,103.7,74.8,103.2,73.5z"/>
		</g>
		<g>
			<path class="st11" d="M98.5,91.6c-0.1-0.4-0.2-0.7-0.3-1.1c-0.1-0.3-0.2-0.7-0.3-1c-0.1,0-0.1,0-0.2,0c-0.3,0.1-0.7,0.2-1.1,0.2     c0,0-0.1,0-0.1,0c0,0.1-0.1,0.1-0.2,0.2c-0.2,0.1-0.3,0.2-0.5,0.2c0.2,0.4,0.2,0.8,0.4,1.2c0.1,0.3,0.1,0.4,0.1,0.5     c0.8,0,1.6-0.1,2.4-0.1C98.5,91.8,98.5,91.7,98.5,91.6z"/>
			<path class="st12" d="M99.4,93.5c0-0.4-0.1-0.7-0.1-1.1c0-0.3-0.1-0.5-0.4-0.4c-0.2,0-0.3,0-0.3-0.1c0,0-0.1,0-0.1,0.1     c0.1,0,0.1,0.1,0.2,0c-0.1,0-0.1-0.1-0.2,0c0,0,0.1-0.1,0.1-0.1c0,0,0,0,0,0c-0.8,0-1.6,0-2.4,0.1C96.2,92,96,92,95.7,92     c-3.3,0-6.6,0-9.9,0c-0.2,0-0.3,0-0.5,0c0,0-0.1,0-0.1,0c0,0,0.1,0,0.1,0c0.2,0,0.3,0,0.5,0c-0.1,0-0.2,0-0.2,0     c-0.2,0-0.3,0-0.3-0.1c-0.8,0-1.6,0-2.4,0.1c0,0-0.1,0-0.1,0c-0.3,0-0.5,0.1-0.5,0.5c0,0.3,0,0.7-0.1,1c-0.1,0.4-0.1,0.7-0.2,1.1     c0.3,0.2,0.6,0.3,0.8,0.4l0.4-2h15.1l0.4,2c0.3-0.1,0.6-0.3,0.8-0.4C99.5,94.2,99.4,93.9,99.4,93.5z"/>
			<path class="st11" d="M85.3,92C85.3,92,85.3,92,85.3,92C85.3,92,85.3,92,85.3,92z"/>
			<path class="st11" d="M85.3,91.9c0-0.1,0-0.1,0.1-0.3c0-0.1,0.1-0.1,0.1-0.2c0.1-0.3,0.2-0.7,0.3-1c0-0.1,0-0.1,0-0.2     c-0.6-0.3-1.1-0.5-1.7-0.9c-0.1-0.1-0.2-0.1-0.3-0.2c-0.1,0.4-0.3,0.9-0.4,1.3c-0.1,0.4-0.3,0.9-0.4,1.3c0,0.1-0.1,0.2-0.2,0.2     C83.7,91.9,84.5,91.9,85.3,91.9z"/>
		</g>
		<g>
			<path class="st13" d="M105,85c-0.1,0-0.2,0.1-0.3,0.2C104.9,85,105,85,105,85z"/>
			<path class="st14" d="M105,84.7c-0.4-0.5-0.7-1-1.1-1.6c-0.2-0.3-0.4-0.6-0.6-0.9c-0.1-0.1-0.2-0.2-0.3-0.3     c-0.9-1.2-1.8-2.4-2.8-3.6c0,0,0-0.1,0-0.1c-0.1,0-0.1-0.1-0.1-0.1c-0.9-1.1-1.9-2.1-2.9-3c0,0.3,0.1,0.5,0.2,0.8     c0.1,0.4,0.2,0.8,0.3,1.2c0,0.1,0,0.3,0,0.4c0.1,0.1,0.1,0.3,0.1,0.4c0,0.6,0.1,1.3,0,1.9c-0.2,1-0.5,1.9-1,2.8     c-0.4,0.6-0.7,1.3-1.1,1.9c0,0.1,0,0.1-0.1,0.2c0,0,0,0.1-0.1,0.1c0,0.1,0,0.1-0.1,0.1c0,0,0,0.1,0,0.1c0,0.1,0,0.2-0.1,0.2     c0,0.1,0,0.1,0,0.2c0,0.1,0,0.3-0.1,0.3c0,0,0,0.1,0,0.1c5.6,0.7,8.5-0.4,9.4-0.8c0.1-0.1,0.2-0.2,0.3-0.2l0,0l0,0l0,0     C105.1,84.9,105.2,84.8,105,84.7z"/>
			<path class="st5" d="M95.2,85.9C95.2,86,95.2,86,95.2,85.9c0,0.1,0,0.2,0,0.3c-0.1,0.7,0.1,1.3,0.3,1.9c0.1,0.3,0.2,0.5,0.4,0.7     C96,88.9,96,89,96,89l0,0c0.1,0,0.2,0.1,0.2,0.1c0.3,0.5,0.7,0.5,1.1,0.4c0.1,0,0.2-0.1,0.3,0c0.1,0,0.1,0,0.2,0     c0.1-0.1,0.3-0.2,0.4-0.2c0.3,0,0.5-0.2,0.8-0.3c0.4-0.2,0.8-0.4,1.2-0.6c0.7-0.4,1.4-0.8,2-1.3c0.4-0.3,0.8-0.6,1.2-0.9     c0.4-0.3,0.8-0.7,1.2-1c0,0,0,0,0.1-0.1C103.8,85.6,100.8,86.7,95.2,85.9z"/>
		</g>
		<g>
			<path class="st15" d="M83.3,93l-0.4,2c0.6,0.3,1.2,0.5,1.8,0.7c1.3,0.5,2.7,0.8,4.2,0.9c0.7,0.1,1.3,0.1,2,0.1V93H83.3z"/>
			<path class="st16" d="M98.3,93h-7.6v3.7c1,0,2.1-0.1,3.1-0.2c1.6-0.3,3.1-0.7,4.5-1.4c0.1,0,0.2-0.1,0.3-0.1L98.3,93z"/>
		</g>
	</g>
	<g>
		<g>
			<path class="st17" d="M119,77.9c0-3.6,0-7.1,0-10.7c0-0.6-0.1-1.1,0.8-1.1c3.4,0.1,6.9-0.2,10.3,0.2c6.4,0.8,9.6,7.2,6.4,12.8     c-1.5,2.7-4.2,3.4-7,3.6c-1.8,0.2-3.5,0.1-5.3,0.1c-0.9,0-1.2,0.2-1.2,1.1c0.1,1.7,0,3.3,0,5c0,0.6-0.1,0.9-0.8,0.8     c-0.8,0-1.6-0.1-2.4,0c-0.9,0.1-1-0.3-1-1.1C119,85.1,119,81.5,119,77.9z M123,74.4c0,1.3,0,2.6,0,3.9c0,0.4-0.1,0.9,0.6,0.8     c2.3-0.1,4.6,0.3,6.8-0.3c2-0.5,2.9-2,3-4.5c0-2.3-0.8-3.6-2.8-4.2c-2.3-0.7-4.6-0.4-6.9-0.5c-0.7,0-0.6,0.4-0.6,0.8     C123,71.8,123,73.1,123,74.4z"/>
			<path class="st18" d="M283.3,87.4c0,2.7,0,5.2,0,7.7c0,1.1-0.3,1.3-1.3,1.3c-2.5-0.1-2.5,0-2.5-2.5c0-6.9,0-13.9,0-20.8     c0-1.1,0.3-1.4,1.4-1.4c2.2,0.1,2.2,0,2.6,2.8c1.7-2,3.6-3.2,6.3-3c2.6,0.2,4.6,1.2,6.2,3.2c2.8,3.5,2.6,9.3-0.4,12.6     C292.2,90.8,288.4,90.9,283.3,87.4z M294.1,80.9c0-3.4-2.2-6-5.3-6.1c-3.1-0.1-5.5,2.4-5.5,5.9c0,3.3,2.3,5.9,5.3,5.9     C291.6,86.7,294,84.2,294.1,80.9z"/>
			<path class="st18" d="M228.6,90c-3.6,0.1-6.5-1.1-9.2-3.2c-0.6-0.4-0.7-0.7-0.2-1.3c0.6-0.7,1.1-1.7,1.8-2     c0.8-0.3,1.5,0.8,2.3,1.3c2.2,1.2,4.4,1.9,6.9,1.3c1.3-0.3,2.3-1,2.5-2.4c0.2-1.3-0.4-2.4-2-3c-1.4-0.5-2.8-0.8-4.2-1.3     c-1-0.3-2-0.6-2.9-1c-3.1-1.4-4.2-3.2-4-6.4c0.1-2.8,1.6-4.9,4.6-5.8c4-1.3,7.8-0.5,11.3,1.6c0.7,0.4,0.7,0.9,0.2,1.4     c-0.5,0.6-0.8,1.5-1.4,1.8c-0.7,0.4-1.3-0.6-2-0.9c-1.9-0.8-3.8-1.1-5.8-0.8c-1.3,0.2-2.3,0.8-2.6,2.2c-0.3,1.4,0.3,2.4,1.8,3.1     c1.4,0.7,3,0.9,4.5,1.4c1,0.3,1.9,0.6,2.9,1c2.8,1.2,4.1,3.3,4,6.4c-0.1,2.6-1.8,4.9-4.5,6C231.2,89.9,229.8,90.1,228.6,90z"/>
			<path class="st17" d="M211.8,74.6c0.1-3,0.1-3,3-2.9c0.7,0,0.9,0.2,0.9,0.9c0,5.4,0,10.8,0,16.3c0,0.6-0.2,0.9-0.9,0.9     c-2.8,0.1-2.8,0.2-3-2.5c-0.1,0-0.2,0-0.2,0c-4.5,5.1-12.2,2.6-13.9-3.5c-1.5-5.1,0.8-10.2,5.4-11.8     C206.3,70.8,208.6,71.5,211.8,74.6z M211.9,80.8c0-3.4-2.4-6-5.4-6c-3.1,0-5.4,2.7-5.4,6c0,3.3,2.4,5.8,5.5,5.8     C209.6,86.7,211.9,84.2,211.9,80.8z"/>
			<path class="st17" d="M155.7,84.5c2.4,2.6,6.3,2.9,8.8,0.6c0.8-0.8,1.2-0.6,1.8,0.1c1.5,1.7,1.5,1.7-0.4,3     c-4.1,2.9-9.7,2.4-12.9-1.2c-3-3.3-3-8.7-0.1-12.3c3.2-3.9,9.8-4.4,13.5-1c1.2,1.1,1.9,2.5,2.2,4.1c0.1,0.8,0,1.2-0.8,1.6     c-3.8,1.5-7.5,3.1-11.3,4.7C156.3,84.2,156.1,84.3,155.7,84.5z M160.5,75c-3.5,0-6,2.4-6.1,5.6c0,0.5-0.2,1,0.7,0.7     c2.9-1.3,5.7-2.5,8.6-3.7c0.7-0.3,0.5-0.6,0.2-1C163,75.3,161.7,75,160.5,75z"/>
			<path class="st18" d="M243.4,74.9c1.8-2.5,4-3.5,6.8-3.3c3.2,0.2,5.8,2.5,5.9,5.7c0.2,3.9,0.1,7.8,0.1,11.7     c0,0.6-0.2,0.8-0.8,0.8c-3,0.3-2.9,0.3-3-2.7c0-2.8,0.2-5.6-0.1-8.3c-0.3-2.3-1.4-3.6-3.4-3.8c-2.3-0.2-4.4,1-5.1,2.9     c-0.3,0.9-0.4,1.9-0.4,2.9c0,2.6,0,5.2,0,7.8c0,0.9-0.2,1.2-1.1,1.2c-2.6,0-2.6,0-2.6-2.6c0-7,0-14,0-21c0-1.2,0.3-1.6,1.5-1.5     c2.3,0.1,2.3,0,2.3,2.3C243.4,69.4,243.4,72,243.4,74.9z"/>
			<path class="st18" d="M267.6,90c-5.4,0-9.3-4-9.3-9.3c0-5.3,4.1-9.2,9.4-9.2c5.4,0,9.5,4.1,9.5,9.4     C277.2,86.1,273.1,90.1,267.6,90z M273.4,80.8c0-3.5-2.3-5.9-5.6-5.9c-3.3,0-5.7,2.4-5.7,5.8c0,3.4,2.3,5.9,5.6,5.9     C271,86.7,273.4,84.2,273.4,80.8z"/>
			<path class="st17" d="M177.3,90c-2.4-0.1-4.6-0.8-6.7-2c-0.7-0.4-0.9-0.8-0.4-1.6c1.2-1.9,1.2-1.9,3.1-0.8     c1.5,0.8,3.2,1.3,4.9,1.1c1-0.1,1.8-0.6,2-1.6c0.3-1.1-0.6-1.6-1.4-2c-1-0.5-2.1-0.8-3.1-1.2c-1-0.3-2-0.7-2.9-1.3     c-2.9-1.9-2.9-5.7-0.1-7.7c2.7-1.9,7.6-1.9,10.3,0c0.4,0.3,0.5,0.6,0.2,1c-0.2,0.3-0.4,0.7-0.5,1c-0.3,0.8-0.7,1.2-1.7,0.6     c-1.5-0.9-3.2-1.1-5-0.7c-0.9,0.2-1.7,0.6-1.7,1.7c0,1.1,0.8,1.4,1.6,1.7c1.3,0.4,2.7,0.7,4,1.2c3.3,1.2,4.5,3,4,6     c-0.4,2.5-2.7,4.3-5.8,4.5C178,90,177.6,90,177.3,90z"/>
			<path class="st17" d="M186.6,76.1c0-3.4,0-6.1,0-8.8c0-0.9,0.2-1.2,1.1-1.2c2.7,0,2.7,0,2.7,2.8c0,2.9,0,2.9,3,2.9     c0.6,0,1.5-0.3,1.7,0.2c0.3,0.7,0.1,1.6,0.1,2.5c0,0.3-0.3,0.3-0.5,0.3c-0.2,0-0.5,0-0.7,0c-1.1,0.1-2.6-0.5-3.3,0.3     c-0.6,0.7-0.2,2.1-0.2,3.2c0,1.8,0,3.6,0,5.4c0,1.1,0.2,2.2,1.3,2.7c1,0.5,2.1,0.4,3-0.3c0.6-0.5,0.8-0.2,1.1,0.3     c1.3,2,1.2,2.4-1,3.2c-3.7,1.5-7.6-0.8-8-4.7C186.4,81.8,186.7,78.6,186.6,76.1z"/>
			<path class="st17" d="M144,75.1c1.3-1.8,2.6-3,4.5-3.5c0.9-0.2,1.5-0.2,1.3,1c0,0.2,0,0.5,0,0.7c0.2,1.4-0.1,2.1-1.8,2.3     c-2.3,0.2-3.9,2.6-4,5.5c-0.1,2.5-0.1,5.1,0,7.6c0,0.9-0.2,1.1-1.1,1.1c-2.8,0-2.8,0.1-2.8-2.7c0-4.7,0-9.5,0-14.2     c0-0.9,0.3-1.2,1.2-1.2C143.9,71.7,143.9,71.7,144,75.1z"/>
		</g>
	</g>
</g>
</svg>