<?xml version="1.0" encoding="UTF-8"?>
<!-- Generator: Adobe Illustrator 22.0.1, SVG Export Plug-In . SVG Version: 6.00 Build 0)  -->
<svg version="1.1" id="Capa_1" xmlns="http://www.w3.org/2000/svg" xmlns:xlink="http://www.w3.org/1999/xlink" x="0px" y="0px" viewBox="0 0 370 156" style="enable-background:new 0 0 370 156;" xml:space="preserve">
<style type="text/css">
	.st0{fill:#545454;}
	.st1{fill:#2C2A2A;}
	.st2{fill:#FDFDFD;}
	.st3{fill:#D8AC53;}
	.st4{fill:#8E9193;}
	.st5{fill:#762A54;}
	.st6{fill:#B8BBBD;}
	.st7{fill:#DCDCDC;}
	.st8{fill:#BCD7E7;}
	.st9{fill:#DFDCD9;}
	.st10{fill:#B9BABB;}
	.st11{fill:#9D937B;}
	.st12{fill:#7E7263;}
	.st13{fill:none;}
	.st14{fill:#A6146C;}
	.st15{fill:#B5AC98;}
	.st16{fill:#9E937B;}
	.st17{fill:#2D2149;}
	.st18{fill:#BB2B6A;}
	.st19{fill:#9CBB34;}
	.st20{fill:#638B22;}
	.st21{fill:#FFFFFF;}
	.st22{fill:#1E120E;}
	.st23{fill-rule:evenodd;clip-rule:evenodd;fill:#9B5C8D;}
	.st24{fill-rule:evenodd;clip-rule:evenodd;fill:#FFFFFF;}
	.st25{fill-rule:evenodd;clip-rule:evenodd;}
	.st26{fill:#34313F;}
	.st27{fill:#DF6322;}
	.st28{fill:#4D4D4D;}
	.st29{fill:#6F7174;}
	.st30{fill:#97999C;}
	.st31{fill:#A1A3A6;}
	.st32{fill:#838588;}
	.st33{fill:#797B7E;}
	.st34{fill:#E6E6E6;}
	.st35{fill:#8D8F92;}
	.st36{fill-rule:evenodd;clip-rule:evenodd;fill:#97999C;}
	.st37{fill:#487496;}
	.st38{fill:#484848;}
</style>
<g id="Page-1">
	<g id="Style-Guide---Navigation-Elements" transform="translate(-77.000000, -1573.000000)">
		<path id="BG---Logo-Main" class="st26" d="M219.3,1655.4c-0.8-1.1-2.2-2-3.8-2c-3.1,0-5.3,2.3-5.3,5.5c0,3.2,2.2,5.5,5.3,5.5    c1.4,0,2.8-0.6,3.5-1.2c0,0,0.1-0.1,0.1-0.2v-1.7c0-0.1-0.1-0.2-0.2-0.2h-3.9c-0.2,0-0.3-0.1-0.3-0.3v-2.6c0-0.2,0.1-0.3,0.3-0.3    h7.1v-3.8l-2.3,1.3C219.6,1655.6,219.4,1655.5,219.3,1655.4z M186.1,1657.2h4.2c1.2,0,2-0.7,2-1.8c0-1-0.8-1.8-2-1.8h-4.2    c-0.1,0-0.3,0.1-0.3,0.3v3C185.8,1657.1,186,1657.2,186.1,1657.2z M203.3,1667.1c0,0.1-0.1,0.2-0.2,0.2h-3.1    c-0.1,0-0.2-0.1-0.2-0.2v-16.3c0-0.1,0.1-0.2,0.2-0.2h3.1c0.1,0,0.2,0.1,0.2,0.2V1667.1z M221.1,1628l-30.8,22.5h0.8    c3.2,0,4.8,2,4.8,4.3c0,1.7-0.9,3-2.1,3.6c-0.2,0.1-0.2,0.4,0,0.5c1.4,0.6,2.4,2.1,2.4,3.9c0,2.5-1.7,4.6-4.9,4.6h-8.8    c-0.1,0-0.3-0.1-0.3-0.3v-10.7l-22.8,16.7c-0.4,0.3-0.2,1,0.3,1h61.7c0.3,0,0.6-0.3,0.6-0.6v-8.5c-1.7,1.5-3.8,2.5-6.5,2.5    c-4.9,0-9-3.4-9-8.7c0-5.3,4-8.7,9-8.7c3.1,0,5.2,1.4,6.5,3.1v-24.9C222,1628,221.5,1627.7,221.1,1628z M186.1,1664.2h4.4    c1.3,0,2.1-0.7,2.1-1.9c0-1.1-0.8-1.9-2.1-1.9h-4.4c-0.1,0-0.3,0.1-0.3,0.3v3.3C185.8,1664.1,186,1664.2,186.1,1664.2z     M239.9,1663.7l-1.9-1c-0.1-0.1-0.3,0-0.4,0.1c-0.8,1.3-2.3,2.2-3.9,2.2c-3.2,0-5.6-2.6-5.6-6.1c0-3.6,2.4-6.1,5.6-6.1    c1.6,0,3.1,0.9,3.9,2.2c0.1,0.1,0.2,0.2,0.4,0.1l1.9-1c0.1-0.1,0.2-0.3,0.1-0.4c-1.2-1.9-3.2-3.5-6.3-3.5c-4.8,0-8.5,3.5-8.5,8.7    c0,5.2,3.7,8.7,8.5,8.7c3.1,0,5.1-1.6,6.3-3.5C240.1,1663.9,240.1,1663.7,239.9,1663.7z M249.9,1665c-3.3,0-5.4-2.6-5.4-6.1    c0-3.5,2.1-6.1,5.4-6.1c3.3,0,5.4,2.6,5.4,6.1C255.3,1662.4,253.2,1665,249.9,1665z M247.6,1650.5c-3.6,1-6,4.2-6,8.4    c0,5,3.4,8.7,8.3,8.7c4.1,0,7.3-2.7,8.1-6.6C259.3,1654.6,253.7,1648.9,247.6,1650.5z M278.4,1650.5h-3.7c-0.2,0-0.3,0.1-0.4,0.3    l-4.5,11.5l-4.5-11.5c-0.1-0.2-0.2-0.3-0.4-0.3h-3.7c-0.1,0-0.2,0.1-0.2,0.2v16.4c0,0.1,0.1,0.2,0.2,0.2h2.6    c0.1,0,0.2-0.1,0.2-0.2v-12.8l5.1,12.9c0,0.1,0.1,0.1,0.1,0.1h1.1c0.1,0,0.1,0,0.1-0.1l5.1-12.9v12.8c0,0.1,0.1,0.2,0.2,0.2h2.5    c0.1,0,0.2-0.1,0.2-0.2v-16.4C278.6,1650.6,278.5,1650.5,278.4,1650.5z M316,1650.5h-10.9c-0.2,0-0.3,0.1-0.3,0.3v16.2    c0,0.2,0.1,0.3,0.3,0.3H316c0.2,0,0.3-0.1,0.3-0.3v-2c0-0.2-0.1-0.3-0.3-0.3h-8c-0.2,0-0.3-0.1-0.3-0.3v-4.1    c0-0.2,0.1-0.3,0.3-0.3h7.8c0.2,0,0.3-0.1,0.3-0.3v-2c0-0.2-0.1-0.3-0.3-0.3h-7.8c-0.2,0-0.3-0.1-0.3-0.3v-3.7    c0-0.2,0.1-0.3,0.3-0.3h8c0.2,0,0.3-0.1,0.3-0.3v-2C316.3,1650.6,316.2,1650.5,316,1650.5z M327.5,1658.4h-3.8    c-0.2,0-0.3-0.1-0.3-0.3v-4.7c0-0.2,0.1-0.3,0.3-0.3h3.8c1.7,0,2.9,1,2.9,2.6C330.4,1657.4,329.2,1658.4,327.5,1658.4z     M329.8,1660.6c1.9-0.5,3.6-2.1,3.6-4.9c0-3.1-2.2-5.3-5.5-5.3h-7.1c-0.2,0-0.3,0.1-0.3,0.3v16.2c0,0.2,0.1,0.3,0.3,0.3h2.3    c0.2,0,0.3-0.1,0.3-0.3v-5.7c0-0.2,0.1-0.3,0.3-0.3h2.5c0.1,0,0.2,0.1,0.3,0.1l3.5,6c0.1,0.1,0.2,0.1,0.3,0.1h2.7    c0.2,0,0.4-0.3,0.3-0.5c-0.8-1.2-2.9-4.7-3.6-5.8C329.5,1660.9,329.6,1660.7,329.8,1660.6z M356.5,1653.1h8c0.2,0,0.3-0.1,0.3-0.3    v-2c0-0.2-0.1-0.3-0.3-0.3h-10.9c-0.2,0-0.3,0.1-0.3,0.3v16.2c0,0.2,0.1,0.3,0.3,0.3h10.9c0.2,0,0.3-0.1,0.3-0.3v-2    c0-0.2-0.1-0.3-0.3-0.3h-8c-0.2,0-0.3-0.1-0.3-0.3v-4.1c0-0.2,0.1-0.3,0.3-0.3h7.8c0.2,0,0.3-0.1,0.3-0.3v-2    c0-0.2-0.1-0.3-0.3-0.3h-7.8c-0.2,0-0.3-0.1-0.3-0.3v-3.7C356.3,1653.2,356.4,1653.1,356.5,1653.1z M350.3,1663.6l-1.9-1    c-0.1-0.1-0.3,0-0.4,0.1c-0.8,1.3-2.3,2.2-3.9,2.2c-3.2,0-5.6-2.6-5.6-6.1c0-3.6,2.4-6.1,5.6-6.1c1.6,0,3.1,0.9,3.9,2.2    c0.1,0.1,0.2,0.2,0.4,0.1l1.9-1c0.1-0.1,0.2-0.3,0.1-0.4c-1.2-1.9-3.2-3.5-6.3-3.5c-4.8,0-8.5,3.5-8.5,8.7c0,5.2,3.7,8.7,8.5,8.7    c3.1,0,5.1-1.6,6.3-3.5C350.5,1663.9,350.5,1663.7,350.3,1663.6z M300.1,1650.5h-3.7c-0.2,0-0.3,0.1-0.4,0.3l-4.5,11.5l-4.5-11.5    c-0.1-0.2-0.2-0.3-0.4-0.3h-3.7c-0.1,0-0.2,0.1-0.2,0.2v16.4c0,0.1,0.1,0.2,0.2,0.2h2.6c0.1,0,0.2-0.1,0.2-0.2v-12.8l5.1,12.9    c0,0.1,0.1,0.1,0.1,0.1h1.1c0.1,0,0.1,0,0.1-0.1l5.1-12.9v12.8c0,0.1,0.1,0.2,0.2,0.2h2.5c0.1,0,0.2-0.1,0.2-0.2v-16.4    C300.3,1650.6,300.2,1650.5,300.1,1650.5z"/>
	</g>
</g>
</svg>