<?xml version="1.0" encoding="UTF-8"?>
<!-- Generator: Adobe Illustrator 22.0.1, SVG Export Plug-In . SVG Version: 6.00 Build 0)  -->
<svg version="1.1" id="Capa_1" xmlns="http://www.w3.org/2000/svg" xmlns:xlink="http://www.w3.org/1999/xlink" x="0px" y="0px" viewBox="0 0 370 156" style="enable-background:new 0 0 370 156;" xml:space="preserve">
<style type="text/css">
	.st0{fill:#545454;}
	.st1{fill:#2C2A2A;}
	.st2{fill:#FDFDFD;}
	.st3{fill:#D8AC53;}
	.st4{fill:#8E9193;}
	.st5{fill:#762A54;}
	.st6{fill:#B8BBBD;}
	.st7{fill:#DCDCDC;}
	.st8{fill:#BCD7E7;}
	.st9{fill:#DFDCD9;}
	.st10{fill:#B9BABB;}
	.st11{fill:#9D937B;}
	.st12{fill:#7E7263;}
	.st13{fill:none;}
	.st14{fill:#A6146C;}
	.st15{fill:#B5AC98;}
	.st16{fill:#9E937B;}
	.st17{fill:#2D2149;}
	.st18{fill:#BB2B6A;}
	.st19{fill:#9CBB34;}
	.st20{fill:#638B22;}
	.st21{fill:#FFFFFF;}
	.st22{fill:#1E120E;}
	.st23{fill-rule:evenodd;clip-rule:evenodd;fill:#9B5C8D;}
	.st24{fill-rule:evenodd;clip-rule:evenodd;fill:#FFFFFF;}
	.st25{fill-rule:evenodd;clip-rule:evenodd;}
	.st26{fill:#34313F;}
	.st27{fill:#DF6322;}
	.st28{fill:#4D4D4D;}
	.st29{fill:#6F7174;}
	.st30{fill:#97999C;}
	.st31{fill:#A1A3A6;}
	.st32{fill:#838588;}
	.st33{fill:#797B7E;}
	.st34{fill:#E6E6E6;}
	.st35{fill:#8D8F92;}
	.st36{fill-rule:evenodd;clip-rule:evenodd;fill:#97999C;}
	.st37{fill:#487496;}
	.st38{fill:#484848;}
</style>
<g>
	<path class="st23" d="M73.6,59.7c1-2.5,3.7-4.3,6.4-4.3c20.6,0,41.2,0,61.7,0c1.8,0,3.6,0.6,4.9,1.8c1.5,1.3,2.4,3.4,2.3,5.4   c0,7.9,0,15.8,0,23.7c0,3.6-3.1,6.7-6.7,6.8c-7.5,0-15,0-22.5,0c1,2.5,2,5,3,7.5c-4.5-2.5-8.9-5-13.4-7.4c-9.9-0.1-19.8,0-29.6,0   C76.1,93,73,89.8,73,86.3c0-7.7,0-15.4,0-23.2C73,62,73.1,60.8,73.6,59.7L73.6,59.7z"/>
	<path class="st24" d="M103.7,60.3c1.1-1.2,3.3-0.8,4.1,0.6c0.5,0.7,0.5,1.7,0.1,2.4c-1.6,3.1-2.2,6.6-2.9,10   c-0.7,4.5-1.3,9-1.1,13.5c0.1,1.2-0.5,2.6-1.7,2.8c-1.2,0.3-2.2-0.5-3-1.3c-3.4-3.6-5.3-8.3-6.6-13c-1.4,2.7-2.8,5.5-4.1,8.2   c-0.9,1.9-1.9,3.8-3.4,5.2c-0.6,0.6-1.7,1.2-2.5,0.6c-1.2-1.1-1.5-2.8-2.1-4.3c-2-6.8-3.1-13.9-4.3-20.9c-0.3-1.2,0.2-2.6,1.4-3   c0.9-0.4,2.2-0.4,3,0.3c0.6,0.5,0.7,1.3,0.8,2c0.8,5.4,1.8,10.9,3.1,16.2c2.2-4.3,4.5-8.5,6.7-12.8c0.3-0.6,0.7-1.3,1.3-1.6   c0.8-0.5,2-0.5,2.7,0.2c0.6,0.6,0.8,1.4,0.9,2.2c0.7,3.5,1.6,7,2.9,10.4c0.6-5,1.3-10.1,3.1-14.9C102.7,62.1,103.1,61.1,103.7,60.3   L103.7,60.3z M116.4,63c2.4-0.3,5,0.5,6.7,2.3c1.3,1.5,2.1,3.5,2.4,5.5c0.4,3.4-0.2,7-1.8,10c-0.9,1.7-2.1,3.4-3.9,4.4   c-2.5,1.5-5.9,1.3-8.3-0.3c-1.9-1.3-3-3.6-3.5-5.8c-0.9-5.1,0.6-10.8,4.5-14.3C113.5,63.8,114.9,63.2,116.4,63L116.4,63z    M116.9,68.2c-1.2,0.4-1.9,1.5-2.5,2.4c-1.6,2.5-2,5.8-0.8,8.6c0.3,0.7,0.9,1.5,1.7,1.6c0.9,0.1,1.7-0.4,2.4-0.9   c1.4-1.2,2.1-3.1,2.5-4.9c0.4-2.1,0.2-4.3-1-6.1C118.7,68.3,117.7,67.9,116.9,68.2L116.9,68.2z M135.8,63c2.4-0.3,4.9,0.4,6.6,2.2   c1.5,1.6,2.3,3.7,2.5,5.9c0.3,3.3-0.3,6.7-1.8,9.6c-0.9,1.8-2.2,3.5-3.9,4.5c-2.4,1.4-5.6,1.3-8-0.1c-1.6-1-2.7-2.6-3.3-4.4   c-1.7-5.3-0.3-11.6,3.6-15.6C132.6,64,134.2,63.2,135.8,63L135.8,63z M136.3,68.2c-1.3,0.5-2,1.7-2.7,2.8c-1.4,2.5-1.8,5.8-0.5,8.4   c0.3,0.7,1,1.5,1.8,1.5c1,0,1.8-0.6,2.4-1.2c1.4-1.4,2.1-3.4,2.3-5.4c0.2-1.8-0.1-3.8-1.1-5.4C138.1,68.2,137.1,67.9,136.3,68.2   L136.3,68.2z"/>
	<path class="st25" d="M161.7,63.7c2.1-0.5,4.2-0.4,6.3,0.1c0,1.7,0,3.4,0,5c-1.7-0.4-3.6-0.8-5.2,0c-2,1-3,3.2-3,5.3   c-0.1,2.1,0.6,4.5,2.5,5.6c1.7,1.1,3.9,0.9,5.8,0.4c0,1.7,0,3.4,0,5c-2.5,0.7-5.2,0.6-7.6-0.3c-2.9-1.1-5.2-3.6-6.1-6.6   c-0.7-2.3-0.8-4.7-0.2-7C154.9,67.5,158,64.5,161.7,63.7L161.7,63.7z M176.8,63.4c2.5-0.3,5.3,0.1,7.4,1.7c2,1.5,3,4,3.3,6.4   c0.3,2.6,0.3,5.4-0.5,8c-0.7,2.2-2.2,4.2-4.3,5.2c-2.1,1-4.6,1.1-6.9,0.6c-2.1-0.5-4-1.9-5-3.8c-1.4-2.5-1.7-5.6-1.6-8.4   c0.1-2.5,0.7-5.1,2.4-7C172.9,64.6,174.8,63.7,176.8,63.4L176.8,63.4z M177.6,68.3c-1.1,0.3-1.7,1.4-2,2.4c-0.5,2-0.4,4.1-0.3,6.2   c0.1,1.1,0.3,2.3,1,3.2c1,1.2,3.2,1,4.1-0.2c0.6-0.8,0.8-1.8,0.9-2.8c0.2-1.7,0.3-3.5,0-5.2c-0.2-1-0.5-2.1-1.2-2.9   C179.5,68.2,178.5,68,177.6,68.3L177.6,68.3z M277.2,63.8c2.2-0.6,4.4-0.5,6.6,0c0,1.7,0,3.4,0,5.1c-1.7-0.4-3.5-0.8-5.1-0.1   c-1.9,0.8-3,2.8-3.1,4.8c-0.2,2.2,0.4,4.8,2.4,6.1c1.7,1.2,4,1,5.9,0.4c0,1.7,0,3.4,0,5.1c-2.7,0.7-5.5,0.6-8.1-0.5   c-2.8-1.2-4.9-3.7-5.7-6.6c-0.6-2.2-0.7-4.6-0.1-6.9C270.7,67.6,273.7,64.7,277.2,63.8L277.2,63.8z M190.9,63.9c2.4,0,4.8,0,7.2,0   c0.9,3.9,1.7,7.8,2.4,11.7c0.7-3.9,1.6-7.8,2.5-11.7c2.5,0,4.9,0,7.4,0c1,7,1.9,14.1,2.9,21.1c-1.9,0-3.8,0-5.7,0   c-0.5-4.8-1-9.7-1.5-14.5c-1.1,4.8-2.3,9.7-3.5,14.5c-1.3,0-2.6,0-3.9,0c-1.2-4.8-2.4-9.7-3.7-14.5c-0.5,4.8-1,9.7-1.5,14.5   c-1.8,0-3.6,0-5.4,0C189,78,190,71,190.9,63.9L190.9,63.9z M216.7,63.9c2.4,0,4.8,0,7.2,0c0.9,3.9,1.7,7.8,2.4,11.7   c0.7-3.9,1.6-7.8,2.5-11.7c2.5,0,4.9,0,7.4,0c1,7,1.9,14.1,2.9,21.1c-1.9,0-3.8,0-5.6,0c-0.5-4.8-1-9.7-1.5-14.5   c-1.2,4.8-2.3,9.7-3.5,14.5c-1.3,0-2.6,0-3.8,0c-1.2-4.8-2.5-9.7-3.7-14.5c-0.5,4.8-1,9.7-1.5,14.5c-1.8,0-3.6,0-5.4,0   C214.9,78,215.8,71,216.7,63.9L216.7,63.9z M240.7,64c3.9-0.1,7.7,0,11.6,0c0,1.5,0,3,0,4.5c-1.9,0-3.9,0-5.8,0c0,1.3,0,2.6,0,3.9   c1.7,0,3.4,0,5.1,0c0,1.5,0,2.9,0,4.4c-1.7,0-3.4,0-5.1,0c0,1.3,0,2.6,0,3.9c2,0,3.9,0,5.9,0c0,1.5,0,3,0,4.5c-3.9,0-7.7,0-11.6,0   C240.7,78.1,240.7,71,240.7,64L240.7,64z M253.9,63.9c2.4,0,4.8,0,7.2,0c2.3,0.1,4.7,0.6,6.4,2.3c1.5,1.4,2.1,3.8,1.5,5.7   c-0.5,1.6-1.7,2.9-3.2,3.6c1.5,3.2,3,6.3,4.5,9.5c-2,0-4,0-6,0c-1.6-3.2-3.1-6.5-4.7-9.7c0,3.2,0,6.5,0,9.7c-1.9,0-3.8,0-5.7,0   C253.9,78,253.9,71,253.9,63.9L253.9,63.9z M259.6,68c0,1.7,0,3.4,0,5c1-0.1,2.2-0.1,3-0.7c1-0.7,0.9-2.3,0.3-3.2   C262.1,68.1,260.7,68.1,259.6,68L259.6,68z M285.4,63.9c3.9,0,7.7,0,11.6,0c0,1.5,0,3,0,4.5c-2,0-3.9,0-5.9,0c0,1.3,0,2.6,0,3.9   c1.7,0,3.4,0,5.1,0c0,1.5,0,2.9,0,4.4c-1.7,0-3.4,0-5.1,0c0,1.3,0,2.6,0,3.9c2,0,3.9,0,5.9,0c0,1.5,0,3,0,4.5c-3.9,0-7.7,0-11.6,0   C285.4,78,285.4,71,285.4,63.9L285.4,63.9z"/>
</g>
</svg>