<?xml version="1.0" encoding="utf-8"?>
<!-- Generator: Adobe Illustrator 22.0.1, SVG Export Plug-In . SVG Version: 6.00 Build 0)  -->
<svg version="1.1" id="Capa_1" xmlns="http://www.w3.org/2000/svg" xmlns:xlink="http://www.w3.org/1999/xlink" x="0px" y="0px"
	 viewBox="0 0 150 150" style="enable-background:new 0 0 150 150;" xml:space="preserve">
<style type="text/css">
	.st0{fill:#0086DB;}
	.st1{fill:#008DE6;}
	.st2{fill:#734A4A;}
	.st3{fill:#F7B076;}
	.st4{fill:#E6E6E6;}
	.st5{fill:#FFC084;}
	.st6{fill:#C4CFE3;}
	.st7{fill:#FFFFFF;}
	.st8{fill:#031014;}
</style>
<g>
	<g>
		<path class="st0" d="M89.2,11.9C80,7.5,71.4,5,64.9,5c-16,0.1-27.3,8.3-35.3,20.6C40,18.3,54.1,13,72.4,11.2
			C77.7,10.7,83.5,10.9,89.2,11.9z"/>
		<path class="st0" d="M45.5,107.1c-8.9-8.5-23.6-11.7-32-20.1c0.8,28,23.5,42,48.2,44.9C57.3,124.2,53,114.3,45.5,107.1z"/>
		<path class="st0" d="M143,70.7c-1.2-7.1-4.3-14.1-8.6-20.7c2.1,8.7,2.7,18.1,2.7,27.4c0,13-3.9,26.4-10.4,37.8
			C142.1,102.2,145.4,84.8,143,70.7z"/>
		<path class="st1" d="M134.4,50c-2-7.9-5.3-15.2-10.7-21.1c-8.4-9.1-21.5-14.8-34.5-17c-5.8-0.9-11.5-1.2-16.8-0.7
			C54.1,13,40,18.3,29.6,25.6C9.4,39.6,3.2,60.8,7.7,77.3c1.1,3.9,3.1,7,5.8,9.7c8.5,8.4,23.2,11.6,32,20.1
			c7.5,7.2,11.9,17.1,16.2,24.8c3.2,5.7,6.4,10.2,10.8,11.5c22.1,6.4,42.6-7.7,54.4-28.3c6.5-11.4,10.4-24.8,10.4-37.8
			C137.1,68.1,136.6,58.7,134.4,50z"/>
	</g>
	<g>
		<path class="st2" d="M57.7,74.5c-0.4-5.3-4.3-9.7-9.7-9.7c-3.3,0-6,1.6-7.8,4.1c0,0,0,0,0,0.1c-0.1,0.1-0.1,0.2-0.2,0.3
			c0,0,0,0.1-0.1,0.1c-0.1,0.1-0.1,0.2-0.2,0.3c0,0,0,0.1-0.1,0.1c0,0.1-0.1,0.2-0.1,0.3c0,0,0,0.1-0.1,0.1c0,0.1-0.1,0.2-0.1,0.3
			c0,0,0,0.1-0.1,0.1c-0.1,0.2-0.2,0.3-0.2,0.5c0,0,0,0.1-0.1,0.1c0,0.1,0,0.1-0.1,0.2c0,0.1-0.1,0.1-0.1,0.2c0,0.1,0,0.1-0.1,0.2
			c0,0.1-0.1,0.2-0.1,0.2c0,0.1,0,0.1-0.1,0.2c0,0.1,0,0.2-0.1,0.2c0,0.1,0,0.1,0,0.2c0,0.1,0,0.2-0.1,0.3c0,0.1,0,0.1,0,0.2
			c0,0.1,0,0.2,0,0.3c0,0.1,0,0.1,0,0.2c0,0.1,0,0.2,0,0.3c0,0.1,0,0.1,0,0.2c0,0.2,0,0.3,0,0.5c-0.2,3.2,0,8.3-1.4,11.1
			c0,0,1.4,2.8,6.5,4.2l4.4,0l0,0l4.8,0c5.1-1.4,6.5-4.2,6.5-4.2C57.7,82.8,57.9,77.7,57.7,74.5z"/>
		<path class="st3" d="M58.2,93.1l-4.5-2.2c-0.9-0.5-1.5-1.4-1.5-2.5l0-4.2h-8.3v4.2c0,1.1-0.6,2-1.5,2.5l-4.5,2.2
			c-1.4,0.7-2.3,2.1-2.3,3.7v9.6h25v-9.6C60.5,95.2,59.6,93.8,58.2,93.1z"/>
		<path class="st4" d="M60.5,96.8c0-1.6-0.9-3-2.3-3.7l-4.5-2.2c-0.3-0.1-0.5-0.3-0.7-0.5l-1.6,1.8c-1.9,2.1-5,2.1-6.8,0L43,90.3
			c-0.2,0.2-0.4,0.4-0.7,0.5l-4.5,2.2c-1.4,0.7-2.3,2.1-2.3,3.7v9.6h25L60.5,96.8L60.5,96.8z"/>
		<path class="st5" d="M48,87L48,87c-3.2,0-5.9-1.8-7.3-4.4c-1-1.8-0.3-4,1.3-5.2c0.3-0.2,0.6-0.5,1-0.8c1-0.9,1.6-1.8,1.9-2.5
			c0.3-0.6,0.9-0.9,1.6-0.8c4.9,1.2,8.2,3.8,9.4,4.8c0.3,0.3,0.5,0.7,0.5,1.1C56,83.6,52.4,87,48,87z"/>
		<path class="st5" d="M55.8,78.2c-1.2-1-4.5-3.6-9.4-4.8c-0.6-0.2-1.3,0.2-1.6,0.8c-0.2,0.5-0.7,1.2-1.3,1.8c0,0,0,0,0,0
			c-0.2,0.2-0.4,0.4-0.6,0.6c-0.3,0.3-0.6,0.5-0.9,0.7c-2,1.4-2.3,3.8-1.1,5.7c1.3,2,3.3,3.4,5.8,3.8c-1.7-1.1-2.9-2.7-2.9-5.4v-1.1
			c0.3-0.2,0.6-0.5,1-0.7c0.8-0.7,1.4-1.5,2-2.3c3.7,1.2,6.3,3.1,7.2,3.9c0.3,0.2,0.6,0.6,1.4,1.3c0.5-0.8,0.8-2.3,0.9-3.2
			C56.3,78.9,56.1,78.5,55.8,78.2z"/>
		<g>
			<path class="st6" d="M59.6,94.3c0.5,0.7,0.8,1.6,0.8,2.5v9.6h-5.5v-7c0-0.8,0.4-1.6,1-2.2L59.6,94.3z"/>
		</g>
		<path class="st2" d="M104.8,64.8c-1.2,0-2.3,0.5-3.1,1.4c-2.1,0.2-3.8,2-3.8,4.1v1c0,1.2,0.2,2.4,0.6,3.5l2.2,6.6h4.2v-8.5
			l9.7,8.5l2.5-8.6c0.2-0.7,0.3-1.5,0.3-2.3v-5.8H104.8z"/>
		<rect x="103.5" y="85.6" class="st3" width="8.3" height="8.3"/>
		<path class="st4" d="M118.5,90.9l-6.7-1.9l-4.2,5l-4.2-5l-6.7,1.9c-1.8,0.5-3,2.1-3,4v11.5h27.7V94.9
			C121.5,93,120.2,91.4,118.5,90.9z"/>
		<path class="st5" d="M115.1,74.9c-2.1-2.1-6.1-3-10.5-3.2c-0.1,0-0.2,0-0.3,0c0,0,0,0-0.1,0c-0.1,0-0.1,0-0.2,0c0,0-0.1,0-0.1,0
			c0,0-0.1,0-0.1,0c0,0-0.1,0-0.1,0c0,0-0.1,0-0.1,0c-0.1,0-0.2,0.1-0.2,0.1c0,0,0,0,0,0c-0.2,0.1-0.5,0.3-0.7,0.5l-1.4,1.4
			c-1.3,1.3-2,3-2,4.7c0,0.1,0,0.3,0,0.4c0,0,0,0.1,0,0.1c0,0.1,0,0.2,0,0.3c0,0,0,0.1,0,0.1c0,0.1,0,0.2,0,0.3c0,0,0,0.1,0,0.1
			c0,0.1,0,0.2,0,0.3c0,0,0,0.1,0,0.1c0,0.1,0.1,0.2,0.1,0.4c0,0,0,0.1,0,0.1c0,0.1,0,0.2,0.1,0.3c0,0.1,0,0.1,0.1,0.2
			c0,0.1,0,0.1,0.1,0.2c0,0.1,0,0.1,0.1,0.2c0,0.1,0,0.1,0.1,0.2c0,0.1,0.1,0.1,0.1,0.2c0,0,0,0.1,0.1,0.1c0.1,0.3,0.3,0.5,0.4,0.8
			c0,0,0,0,0,0c0.1,0.1,0.1,0.2,0.2,0.3c0,0,0,0,0,0c1.5,2.3,4.1,3.8,7,3.8c4.6,0,8.3-3.7,8.3-8.3v-1.8
			C115.9,76.2,115.7,75.4,115.1,74.9z"/>
		<path class="st7" d="M98.4,91.2L86.8,87l-8.3,2.8L70.2,87l-11.6,4.2c-2.2,0.8-3.7,2.9-3.7,5.2v10h47.1v-10
			C102.1,94.1,100.6,92,98.4,91.2z"/>
		<path class="st2" d="M91,44L91,44H75.8h-1.5c-6.1,0-11.1,5-11.1,11.1v3.3c0,1.5,0.2,3,0.7,4.4l0.5,1.4c0.1,0.4,0.2,0.9,0.2,1.3
			v0.7H77l0,0h15.4v-0.7c0-0.4,0.1-0.9,0.2-1.3l0.5-1.4c0.5-1.4,0.7-2.9,0.7-4.4V46.8C93.7,45.2,92.5,44,91,44z"/>
		<polygon class="st3" points="86.8,77.3 86.8,77.3 86.8,77.3 70.2,77.3 70.2,89.7 86.8,89.7 86.8,83.5 86.8,83.5 		"/>
		<g>
			<path class="st7" d="M78.5,89.7l-4.4,4.4c-0.6,0.6-1.6,0.5-2.1-0.1l-4.6-6l1.2-2.5c0.4-0.7,1.3-1,2-0.6L78.5,89.7z"/>
			<path class="st7" d="M78.5,89.7l4.4,4.4c0.6,0.6,1.6,0.5,2.1-0.1l4.6-6l-1.2-2.5c-0.4-0.7-1.3-1-2-0.6L78.5,89.7z"/>
		</g>
		<path class="st5" d="M90.1,64.6c-1.2-0.8-1.9-2.1-1.9-3.5c0-1,0-1.9,0-1.9c0,0,0,0,0,0v0c-8.3-6.9-19.4-2.8-19.4-2.8v4.7
			c0,1.4-0.7,2.7-1.9,3.5l-2.3,1.5v0v1.4v0c0,0,0,0,0,0c0,0.2,0,0.5,0,0.7c0,0.1,0,0.2,0,0.2c0,0.1,0,0.3,0,0.4c0,0.1,0,0.2,0,0.3
			c0,0.1,0,0.3,0,0.4c0,0.1,0,0.2,0,0.3c0,0.1,0,0.2,0.1,0.4c0,0.1,0,0.2,0.1,0.3c0,0.1,0,0.2,0.1,0.3c0,0.1,0.1,0.2,0.1,0.3
			c0,0.1,0.1,0.2,0.1,0.3c0,0.1,0.1,0.2,0.1,0.3c0,0.1,0.1,0.2,0.1,0.3c0,0.1,0.1,0.2,0.1,0.3c0,0.1,0.1,0.2,0.1,0.2
			c0,0.1,0.1,0.2,0.2,0.4c0,0.1,0.1,0.1,0.1,0.2c0.1,0.1,0.1,0.3,0.2,0.4c0,0,0,0.1,0.1,0.1c0.1,0.2,0.2,0.3,0.2,0.4c0,0,0,0,0,0
			c2.4,4.3,6.9,7.1,12.1,7.1c7.7,0,13.9-6.2,13.9-13.9v-1.4L90.1,64.6z"/>
		<path class="st8" d="M111.2,74.3c0.2,0.1,0.4,0.1,0.6,0.1c0.5,0,0.9-0.3,1.2-0.7c0.3-0.6,0.1-1.4-0.6-1.7c-3-1.5-8.7-1.5-8.9-1.5
			c-0.7,0-1.3,0.6-1.3,1.3c0,0.7,0.6,1.3,1.3,1.3C104.9,73,109.1,73.2,111.2,74.3z"/>
		<path class="st8" d="M118.8,90.4l-5.4-1.5c-0.2-0.1-0.4-0.3-0.4-0.5v-1.8c0.4-0.3,0.9-0.6,1.2-1c1.9-1.8,2.9-4.3,2.9-6.9v-2.5
			l0.5-1c0.6-1.1,0.9-2.4,0.9-3.7v-6.7c0-0.7-0.6-1.3-1.3-1.3h-12.5c-4.5,0-8.2,3.7-8.2,8.2v0.1c0,1.1,0.2,2.1,0.7,3.1l0.7,1.3v2.1
			c0,3.4,1.7,6.4,4.2,8.2l0,1.9c0,0.3,0,0.4-1.1,0.7l-2.6,0.7l-7.6-2.7c0-0.4-0.1-0.7-0.4-1l-2.4-2.5v-4.3c0.3-0.2,0.5-0.4,0.8-0.7
			c3-2.9,4.8-6.9,4.8-11.1v-3.4c0.9-2,1.4-4.1,1.4-6.3V44c0-0.7-0.6-1.3-1.3-1.3H74.4c-6.8,0-12.4,5.6-12.4,12.4v2.8
			c0,2.2,0.5,4.3,1.4,6.3v2.9c0,4.8,2.2,9.2,5.5,12.1v4.4l-2.4,2.5c-0.3,0.3-0.4,0.6-0.4,1l-8,2.9c-0.6,0.2-1.1,0.5-1.6,0.8
			l-1.3-0.6c3.7-1.6,4.9-3.9,5-4c0.2-0.4,0.2-0.8,0-1.2c-0.9-1.9-1-5.3-1.1-8.1c0-0.9-0.1-1.8-0.1-2.6c-0.4-6.2-5.2-10.9-11-10.9
			s-10.6,4.7-11,10.9C37,75.2,36.9,76,36.9,77c-0.1,2.8-0.2,6.2-1.1,8.1c-0.2,0.4-0.2,0.8,0,1.2c0.1,0.1,1.2,2.4,5,4l-3.5,1.7
			c-1.9,0.9-3,2.8-3,4.9v9.6c0,0.7,0.6,1.3,1.3,1.3c0.7,0,1.3-0.6,1.3-1.3v-9.6c0-1.1,0.6-2.1,1.6-2.6l4.3-2.2l1.5,1.4
			c1.1,1,2.4,1.5,3.8,1.5c1.4,0,2.7-0.5,3.8-1.5l1.5-1.4l1.4,0.7c-0.7,1.1-1,2.3-1,3.6v10c0,0.7,0.6,1.3,1.3,1.3
			c0.7,0,1.3-0.6,1.3-1.3v-10c0-1.8,1.1-3.4,2.8-4l8.4-3.1l3.5,5.3c0.4,0.7,1.2,1.1,2,1.2c0.1,0,0.2,0,0.3,0c0.7,0,1.4-0.3,1.9-0.8
			l2.1-2.1v13.5c0,0.7,0.6,1.3,1.3,1.3c0.7,0,1.3-0.6,1.3-1.3V92.9L82,95c0.5,0.5,1.2,0.8,1.9,0.8c0.1,0,0.2,0,0.3,0
			c0.8-0.1,1.5-0.5,2-1.2l3.5-5.3l8.4,3.1c1.7,0.6,2.8,2.2,2.8,4v10c0,0.7,0.6,1.3,1.3,1.3c0.7,0,1.3-0.6,1.3-1.3v-10
			c0-1.8-0.7-3.5-1.9-4.7l0.3-0.1c0.3-0.1,0.8-0.2,1.2-0.4l3.3,3.3v11.9c0,0.7,0.6,1.3,1.3,1.3c0.7,0,1.3-0.6,1.3-1.3V94.5l3.3-3.3
			c0.2,0.1,0.4,0.2,0.6,0.2l5.4,1.5c1.2,0.3,2.1,1.5,2.1,2.8v10.7c0,0.7,0.6,1.3,1.3,1.3c0.7,0,1.3-0.6,1.3-1.3V95.7
			C122.8,93.2,121.1,91.1,118.8,90.4z M53.5,88.1l0-1.5c1.5-1,2.7-2.5,3.4-4.2c0.2,1.1,0.4,2.2,0.7,3.1
			C57.1,86.1,55.9,87.3,53.5,88.1z M39.6,74.6c0.2-2.3,1.1-4.5,2.6-6c1.5-1.6,3.6-2.5,5.8-2.5c2.2,0,4.3,0.9,5.8,2.5
			c1.5,1.6,2.5,3.7,2.6,6c0.1,0.7,0.1,1.6,0.1,2.5c0,0.1,0,0.2,0,0.2c-1.4-2.2-3.6-3.8-6.4-4.7c-2.6-0.8-4.8-0.8-4.9-0.8
			c-0.3,0-0.7,0.2-0.9,0.4L42,74.6c-0.5,0.5-0.5,1.3,0,1.8s1.3,0.5,1.8,0l1.9-2c1.7,0.1,7.1,0.7,9.2,5.3c-0.5,3.4-3.5,5.9-6.9,5.9
			c-3.9,0-7-3.2-7-7c0-0.7-0.6-1.3-1.3-1.3c-0.1,0-0.1,0-0.2,0c0-0.1,0-0.2,0-0.3C39.5,76.2,39.5,75.3,39.6,74.6z M38.4,85.5
			c0.4-0.9,0.6-2,0.7-3.1c0.7,1.7,1.9,3.2,3.4,4.2v1.6C40.1,87.3,38.9,86.1,38.4,85.5z M46,91.6l-1.2-1.1c0.2-0.4,0.3-0.8,0.3-1.3
			v-1.4c0.9,0.3,1.9,0.4,2.9,0.4c1,0,2-0.2,2.9-0.4l0,1.4c0,0.5,0.1,0.9,0.3,1.3L50,91.6C48.9,92.7,47.1,92.7,46,91.6z M65.9,67.1
			v-3.2c0-0.2,0-0.4-0.1-0.6c-0.8-1.7-1.3-3.6-1.3-5.5v-2.8c0-5.4,4.4-9.8,9.8-9.8h18.1v12.6c0,1.9-0.4,3.7-1.3,5.5
			c-0.1,0.2-0.1,0.4-0.1,0.6v3.7c0,3.5-1.4,6.8-4,9.2c-0.3,0.3-0.7,0.6-1,0.8c0,0,0,0,0,0c-2.4,1.8-5.3,2.7-8.4,2.5
			C71.1,79.7,65.9,74,65.9,67.1z M77.5,82.7c0.3,0,0.7,0,1,0c2.5,0,4.9-0.6,7-1.7v2.4l-7,4.8l-7-4.8V81
			C73.3,81.9,75.3,82.6,77.5,82.7z M73.2,93.2C73.2,93.2,73.2,93.2,73.2,93.2c-0.1,0-0.1,0-0.1,0l-4-6.1l1.3-1.4l6.1,4.2L73.2,93.2z
			 M83.9,93.2C83.9,93.2,83.9,93.2,83.9,93.2c-0.1,0-0.1,0-0.1,0l-3.2-3.2l6.1-4.2l1.3,1.4L83.9,93.2z M100.6,78.3v-2.4
			c0-0.2,0-0.4-0.1-0.6l-0.8-1.6c-0.3-0.6-0.4-1.2-0.4-1.9v-0.1c0-3.1,2.5-5.6,5.6-5.6H116v5.4c0,0.9-0.2,1.7-0.6,2.5l-0.7,1.3
			c-0.1,0.2-0.1,0.4-0.1,0.6v2.8c0,1.9-0.8,3.7-2.1,5c-1.4,1.3-3.2,2-5.1,2C103.6,85.6,100.6,82.3,100.6,78.3z M107.3,88.3
			c0.1,0,0.2,0,0.3,0c1,0,1.9-0.1,2.9-0.4v0.5c0,0.3,0,0.5,0.1,0.8l-3,3l-2.9-2.9c0.1-0.2,0.1-0.5,0.1-0.8l0-0.5
			C105.6,88.1,106.4,88.2,107.3,88.3z"/>
		<path class="st8" d="M115.9,96.8c-0.7,0-1.3,0.6-1.3,1.3v8.3c0,0.7,0.6,1.3,1.3,1.3c0.7,0,1.3-0.6,1.3-1.3v-8.3
			C117.2,97.4,116.6,96.8,115.9,96.8z"/>
		<path class="st8" d="M41.1,98.5c-0.7,0-1.3,0.6-1.3,1.3v6.6c0,0.7,0.6,1.3,1.3,1.3c0.7,0,1.3-0.6,1.3-1.3v-6.6
			C42.4,99.1,41.8,98.5,41.1,98.5z"/>
		<path class="st8" d="M70.1,57.6C70.1,57.6,70.1,57.6,70.1,57.6c1.7-0.3,5.1-0.7,8.5-0.5c4,0.3,7,1.3,8.7,3c0.5,0.5,1.3,0.5,1.8,0
			c0.5-0.5,0.5-1.3,0-1.8c-4.9-4.9-15.2-4-19.4-3.3c-1.3,0.2-2.3,1.3-2.3,2.7v3c0,0.7,0.6,1.3,1.3,1.3c0.7,0,1.3-0.6,1.3-1.3V57.6
			L70.1,57.6z"/>
		<path class="st8" d="M63.3,99.6c-0.7,0-1.3,0.6-1.3,1.3v5.5c0,0.7,0.6,1.3,1.3,1.3c0.7,0,1.3-0.6,1.3-1.3v-5.5
			C64.6,100.1,64,99.6,63.3,99.6z"/>
		<path class="st8" d="M93.8,99.6c-0.7,0-1.3,0.6-1.3,1.3v5.5c0,0.7,0.6,1.3,1.3,1.3c0.7,0,1.3-0.6,1.3-1.3v-5.5
			C95.1,100.1,94.5,99.6,93.8,99.6z"/>
	</g>
</g>
</svg>
