<?xml version="1.0" encoding="utf-8"?>
<!-- Generator: Adobe Illustrator 22.0.1, SVG Export Plug-In . SVG Version: 6.00 Build 0)  -->
<svg version="1.1" id="Capa_1" xmlns="http://www.w3.org/2000/svg" xmlns:xlink="http://www.w3.org/1999/xlink" x="0px" y="0px"
	 viewBox="0 0 150 150" style="enable-background:new 0 0 150 150;" xml:space="preserve">
<style type="text/css">
	.st0{fill:#0086DB;}
	.st1{fill:#008DE6;}
	.st2{fill:#FFFFFF;}
	.st3{fill:#D9E021;}
	.st4{fill:#031014;}
	.st5{fill:#ED1C24;}
	.st6{fill:#22B573;}
	.st7{fill:#29ABE2;}
	.st8{fill:#FBB03B;}
</style>
<g>
	<g>
		<path class="st0" d="M89.2,11.9C80,7.5,71.4,5,64.9,5c-16,0.1-27.3,8.3-35.3,20.6C40,18.3,54.1,13,72.4,11.2
			C77.7,10.7,83.5,10.9,89.2,11.9z"/>
		<path class="st0" d="M45.5,107.1c-8.9-8.5-23.6-11.7-32-20.1c0.8,28,23.5,42,48.2,44.9C57.3,124.2,53,114.3,45.5,107.1z"/>
		<path class="st0" d="M143,70.7c-1.2-7.1-4.3-14.1-8.6-20.7c2.1,8.7,2.7,18.1,2.7,27.4c0,13-3.9,26.4-10.4,37.8
			C142.1,102.2,145.4,84.8,143,70.7z"/>
		<path class="st1" d="M134.4,50c-2-7.9-5.3-15.2-10.7-21.1c-8.4-9.1-21.5-14.8-34.5-17c-5.8-0.9-11.5-1.2-16.8-0.7
			C54.1,13,40,18.3,29.6,25.6C9.4,39.6,3.2,60.8,7.7,77.3c1.1,3.9,3.1,7,5.8,9.7c8.5,8.4,23.2,11.6,32,20.1
			c7.5,7.2,11.9,17.1,16.2,24.8c3.2,5.7,6.4,10.2,10.8,11.5c22.1,6.4,42.6-7.7,54.4-28.3c6.5-11.4,10.4-24.8,10.4-37.8
			C137.1,68.1,136.6,58.7,134.4,50z"/>
	</g>
	<g>
		<path class="st2" d="M105.1,69.7c5,10.7,0,28.3-23.9,35c-7.7,2.2-18.1,1.1-24.6-3.8c-6.1-4.6-8.5-12.8-9.9-20.8
			c-2.9-16.5,7.6-36.7,23.9-35c4.9,0.5,8.1,9.6,15.1,14.2C91.8,63.4,101.8,62.6,105.1,69.7z"/>
		<circle class="st3" cx="101" cy="50.7" r="9"/>
		<path class="st4" d="M100.8,40.3c-6,0-10.7,4.8-10.7,10.7c0,6,4.8,10.7,10.7,10.7s10.7-4.8,10.7-10.7
			C111.6,45,106.8,40.3,100.8,40.3L100.8,40.3z M100.8,59.3c-4.6,0-8.4-3.8-8.4-8.4c0-4.6,3.8-8.3,8.4-8.3c4.6,0,8.4,3.8,8.4,8.4
			C109.2,55.6,105.5,59.3,100.8,59.3L100.8,59.3z M100.8,59.3"/>
		<path class="st4" d="M104.2,52.6c-0.1-0.2-0.1-0.4-0.2-0.6c-0.1-0.1-0.1-0.4-0.3-0.5c-0.1-0.1-0.2-0.3-0.4-0.4
			c-0.1-0.1-0.3-0.3-0.5-0.4c-0.1-0.1-0.4-0.2-0.5-0.3c-0.2-0.1-0.4-0.2-0.6-0.3c-0.2-0.1-0.4-0.1-0.6-0.2c-0.1,0-0.2-0.1-0.3-0.1
			s-0.2-0.1-0.3-0.1c-0.1-0.1-0.2-0.1-0.3-0.1c-0.1-0.1-0.1-0.1-0.2-0.2c-0.1-0.1-0.1-0.1-0.1-0.3c-0.1-0.1-0.1-0.2-0.1-0.3
			c0-0.1,0-0.2,0-0.4c0-0.1,0.1-0.2,0.1-0.3c0.1-0.1,0.1-0.2,0.1-0.3c0.1-0.1,0.1-0.1,0.2-0.2c0.1-0.1,0.2-0.1,0.4-0.1
			c0.1-0.1,0.2-0.1,0.4-0.1c0.1,0,0.1,0,0.2,0s0.1,0,0.2,0c0.1,0,0.2,0,0.4,0.1c0.1,0,0.3,0.1,0.4,0.1s0.2,0.1,0.3,0.1
			c0.1,0,0.2,0.1,0.3,0.1l0.4,0.1l0.1-0.4l0.1-1.2v-0.3l-0.3-0.1c-0.1,0-0.2-0.1-0.3-0.1c-0.1,0-0.1-0.1-0.3-0.1
			c-0.1,0-0.2-0.1-0.4-0.1c-0.1,0-0.2-0.1-0.4-0.1h-0.1V44h-1.8v1.5h-0.1c-0.2,0.1-0.4,0.1-0.7,0.3c-0.2,0.1-0.4,0.2-0.5,0.4
			c-0.1,0.1-0.3,0.3-0.4,0.5C98,46.8,98,47,97.9,47.2c-0.1,0.2-0.1,0.4-0.2,0.7c-0.1,0.2-0.1,0.5-0.1,0.7c0,0.2,0,0.4,0.1,0.6
			c0.1,0.2,0.1,0.4,0.2,0.6c0.1,0.1,0.2,0.4,0.3,0.5c0.1,0.1,0.2,0.3,0.4,0.4c0.1,0.1,0.3,0.3,0.5,0.4c0.1,0.1,0.4,0.2,0.5,0.3
			c0.2,0.1,0.4,0.2,0.6,0.3c0.2,0.1,0.4,0.1,0.6,0.2c0.1,0,0.2,0.1,0.3,0.1c0.1,0.1,0.2,0.1,0.3,0.1c0.1,0.1,0.1,0.1,0.2,0.1
			c0.1,0.1,0.1,0.1,0.2,0.2c0.1,0.1,0.1,0.1,0.1,0.3c0,0.1,0.1,0.2,0.1,0.4c0,0.1,0,0.2,0,0.4c0,0.1-0.1,0.2-0.1,0.3
			c-0.1,0.1-0.1,0.1-0.2,0.2c-0.1,0.1-0.1,0.1-0.3,0.2c-0.1,0.1-0.2,0.1-0.3,0.1c-0.1,0-0.2,0.1-0.4,0.1c-0.1,0-0.1,0-0.3,0
			c-0.1,0-0.2,0-0.3,0c-0.1,0-0.3,0-0.4,0c-0.1,0-0.3-0.1-0.4-0.1c-0.1,0-0.3-0.1-0.4-0.1c-0.1-0.1-0.3-0.1-0.4-0.1
			c-0.1,0-0.1-0.1-0.2-0.1s-0.1-0.1-0.2-0.1l-0.4-0.2l-0.1,0.5l-0.1,1.3v0.2l0.2,0.1c0.3-0.1,0.4,0,0.7,0.1c0.1,0.1,0.4,0.1,0.5,0.1
			c0.1,0.1,0.4,0.1,0.6,0.1c0.2,0.1,0.4,0.1,0.6,0.1h0.1v1.5h1.8v-1.5h0.1c0.2-0.1,0.4-0.1,0.7-0.3c0.2-0.1,0.4-0.2,0.6-0.4
			c0.1-0.1,0.3-0.3,0.4-0.5c0.1-0.1,0.2-0.4,0.4-0.6c0.1-0.2,0.1-0.4,0.2-0.7c0.1-0.2,0.1-0.4,0.1-0.7
			C104.3,53,104.3,52.8,104.2,52.6L104.2,52.6z M104.2,52.6"/>
		<path class="st4" d="M95.7,63.1c-0.4-0.5-1.2-0.6-1.7-0.2l-11.9,9.5l-15.4-6.4c-0.4-0.1-0.8-0.1-1.1,0.1L49.1,77.9
			c-0.5,0.4-0.7,1.1-0.3,1.6c0.2,0.4,0.6,0.5,1,0.5c0.2,0,0.4-0.1,0.7-0.2l16-11.4l15.5,6.4c0.4,0.1,0.9,0.1,1.2-0.1l12.4-9.9
			C96,64.4,96,63.6,95.7,63.1L95.7,63.1z M95.7,63.1"/>
		<rect x="95" y="68.7" class="st5" width="11" height="36"/>
		<rect x="78" y="81.7" class="st6" width="11" height="22"/>
		<rect x="61" y="78.7" class="st7" width="11" height="26"/>
		<rect x="43" y="85.7" class="st8" width="12" height="18"/>
		<path class="st4" d="M112.9,103.4h-5.4V69.3c0-0.7-0.5-1.2-1.2-1.2H95.5c-0.7,0-1.2,0.5-1.2,1.2v34.1h-4V81.1
			c0-0.7-0.5-1.2-1.2-1.2H78.2c-0.7,0-1.2,0.5-1.2,1.2v22.3h-4V79.3c0-0.7-0.5-1.2-1.2-1.2H61.1c-0.7,0-1.2,0.5-1.2,1.2v24.1h-4
			V86.2c0-0.7-0.5-1.2-1.2-1.2H43.9c-0.7,0-1.2,0.5-1.2,1.2v17.1h-5.5c-0.7,0-1.2,0.5-1.2,1.2c0,0.7,0.5,1.2,1.2,1.2h75.6
			c0.7,0,1.2-0.5,1.2-1.2C114.1,103.9,113.6,103.4,112.9,103.4L112.9,103.4z M53.5,103.4H45v-16h8.5V103.4z M70.7,103.4h-8.5V80.5
			h8.5V103.4z M87.9,103.4h-8.5V82.3h8.5V103.4z M105.1,103.4h-8.5V70.5h8.5V103.4z M105.1,103.4"/>
	</g>
</g>
</svg>
