<?xml version="1.0" encoding="utf-8"?>
<!-- Generator: Adobe Illustrator 22.0.1, SVG Export Plug-In . SVG Version: 6.00 Build 0)  -->
<svg version="1.1" id="Capa_1" xmlns="http://www.w3.org/2000/svg" xmlns:xlink="http://www.w3.org/1999/xlink" x="0px" y="0px"
	 viewBox="0 0 150 150" style="enable-background:new 0 0 150 150;" xml:space="preserve">
<style type="text/css">
	.st0{fill:#0086DB;}
	.st1{fill:#008DE6;}
	.st2{fill:#FFFFFF;}
	.st3{fill:#D9E021;}
	.st4{fill:#10181B;}
	.st5{fill:#CCCCCC;}
	.st6{fill:#999999;}
	.st7{fill:#808080;}
</style>
<g>
	<g>
		<path class="st0" d="M89.2,11.9C80,7.5,71.4,5,64.9,5c-16,0.1-27.3,8.3-35.3,20.6C40,18.3,54.1,13,72.4,11.2
			C77.7,10.7,83.5,10.9,89.2,11.9z"/>
		<path class="st0" d="M45.5,107.1c-8.9-8.5-23.6-11.7-32-20.1c0.8,28,23.5,42,48.2,44.9C57.3,124.2,53,114.3,45.5,107.1z"/>
		<path class="st0" d="M143,70.7c-1.2-7.1-4.3-14.1-8.6-20.7c2.1,8.7,2.7,18.1,2.7,27.4c0,13-3.9,26.4-10.4,37.8
			C142.1,102.2,145.4,84.8,143,70.7z"/>
		<path class="st1" d="M134.4,50c-2-7.9-5.3-15.2-10.7-21.1c-8.4-9.1-21.5-14.8-34.5-17c-5.8-0.9-11.5-1.2-16.8-0.7
			C54.1,13,40,18.3,29.6,25.6C9.4,39.6,3.2,60.8,7.7,77.3c1.1,3.9,3.1,7,5.8,9.7c8.5,8.4,23.2,11.6,32,20.1
			c7.5,7.2,11.9,17.1,16.2,24.8c3.2,5.7,6.4,10.2,10.8,11.5c22.1,6.4,42.6-7.7,54.4-28.3c6.5-11.4,10.4-24.8,10.4-37.8
			C137.1,68.1,136.6,58.7,134.4,50z"/>
	</g>
	<g>
		<path class="st2" d="M94.5,61.2c0-10.8-8.7-19.5-19.5-19.5s-19.5,8.7-19.5,19.5c0,6.2,2.9,11.7,7.4,15.2l0.6,2.3l1,5l21,0l1-5
			l0.5-2.1C91.5,73,94.5,67.4,94.5,61.2z"/>
		<circle class="st3" cx="75" cy="61.2" r="5.5"/>
		<path class="st4" d="M70.7,65.7c0.7,0.6,0.9,0.9,0.9,1.3c0,0.6,0.5,1.1,1.1,1.1h4.6c0.6,0,1.1-0.5,1.1-1.1c0-0.4,0.2-0.7,0.9-1.3
			c1.7-1.3,2.6-3.4,2.5-5.5c0-3.8-3.5-5.7-6.9-5.7c-3.4,0-6.9,2-6.9,5.7C68.1,62.3,69,64.3,70.7,65.7L70.7,65.7z M75,56.7
			c2.2,0,4.6,1.1,4.6,3.4c0.1,1.5-0.6,3-1.8,3.9c-0.6,0.5-1.1,1.1-1.4,1.8h-2.7c-0.3-0.7-0.8-1.3-1.4-1.8c-1.2-0.9-1.9-2.4-1.8-3.9
			C70.4,57.8,72.8,56.7,75,56.7L75,56.7z M75,56.7"/>
		<path class="st4" d="M75,49.8L75,49.8c0.6,0,1.1,0.5,1.1,1.1v0c0,0.6-0.5,1.1-1.1,1.1h0c-0.6,0-1.1-0.5-1.1-1.1v0
			C73.9,50.4,74.4,49.8,75,49.8z"/>
		<path class="st4" d="M69.3,51.4L69.3,51.4c0.5-0.3,1.2-0.1,1.6,0.4l0,0c0.3,0.5,0.1,1.2-0.4,1.6l0,0c-0.5,0.3-1.2,0.1-1.6-0.4l0,0
			C68.5,52.4,68.7,51.7,69.3,51.4z M68.3,51.9"/>
		<path class="st4" d="M65.1,55.6L65.1,55.6c0.3-0.5,1-0.7,1.6-0.4v0c0.5,0.3,0.7,1,0.4,1.6v0c-0.3,0.5-1,0.7-1.6,0.4l0,0
			C65,56.8,64.8,56.1,65.1,55.6z M64.5,56.6"/>
		<path class="st4" d="M64.7,60.1L64.7,60.1c0.6,0,1.1,0.5,1.1,1.1v0c0,0.6-0.5,1.1-1.1,1.1h0c-0.6,0-1.1-0.5-1.1-1.1v0
			C63.6,60.6,64.1,60.1,64.7,60.1z"/>
		<path class="st4" d="M79.2,51.8L79.2,51.8c0.3-0.5,1-0.7,1.6-0.4l0,0c0.5,0.3,0.7,1,0.4,1.6l0,0c-0.3,0.5-1,0.7-1.6,0.4h0
			C79,53,78.8,52.3,79.2,51.8z M78.6,52.8"/>
		<path class="st4" d="M83.3,55.1L83.3,55.1c0.5-0.3,1.2-0.1,1.6,0.4v0c0.3,0.5,0.1,1.2-0.4,1.6l0,0c-0.5,0.3-1.2,0.1-1.6-0.4h0
			C82.6,56.2,82.8,55.5,83.3,55.1z M82.3,55.7"/>
		<path class="st4" d="M85.3,60.1L85.3,60.1c0.6,0,1.1,0.5,1.1,1.1v0c0,0.6-0.5,1.1-1.1,1.1h0c-0.6,0-1.1-0.5-1.1-1.1v0
			C84.1,60.6,84.7,60.1,85.3,60.1z"/>
		<g>
			<path class="st5" d="M49.5,65.7c-0.2,0-0.1,0.1,0.1,0.2C49.6,65.8,49.6,65.7,49.5,65.7z"/>
			<path class="st5" d="M62.5,93.7v-2v-1.1c-0.3,0-0.7,0.1-1,0.1c-5,0-9-4-9-9c0-4.3,3-7.9,7-8.8l-3-5.2l-2,1c0,0-4.1-2-4.9-2.8
				c-0.5,1-5.1,4.8-5.1,4.8l3,4v3l-5,1v7l5,1l1,2l-3,4l4,4l5-1l2,1l2,4l6,1l-2-4V93.7z"/>
		</g>
		<g>
			<path class="st5" d="M100.5,65.7c0.2,0,0.1,0.1-0.1,0.2C100.4,65.8,100.4,65.7,100.5,65.7z"/>
			<path class="st5" d="M87.5,93.7v-2v-1.1c0.3,0,0.7,0.1,1,0.1c5,0,9-4,9-9c0-4.3-3-7.9-7-8.8l3-5.2l2,1c0,0,4.1-2,4.9-2.8
				c0.5,1,5.1,4.8,5.1,4.8l-3,4v3l5,1v7l-5,1l-1,2l3,4l-4,4l-5-1l-2,1l-2,4l-6,1l2-4V93.7z"/>
		</g>
		<rect x="62.5" y="83.7" class="st6" width="25" height="17"/>
		<rect x="67.5" y="101.7" class="st7" width="15" height="6"/>
		<g>
			<path class="st4" d="M72.7,69.3h4.6c0.6,0,1.1,0.5,1.1,1.1l0,0c0,0.6-0.5,1.1-1.1,1.1h-4.6c-0.6,0-1.1-0.5-1.1-1.1l0,0
				C71.6,69.8,72.1,69.3,72.7,69.3z"/>
			<path class="st4" d="M108.3,77.3l-4.5-0.8c-0.2-0.5-0.4-1.1-0.7-1.6l2.7-3.7c0.3-0.5,0.3-1.1-0.1-1.5l-4.8-4.8
				c-0.4-0.4-1-0.4-1.5-0.1l-3.7,2.7c-0.2-0.1-0.5-0.2-0.7-0.3c0.5-1.9,0.7-3.9,0.7-5.9c0-11.4-9.2-20.6-20.6-20.6
				s-20.6,9.2-20.6,20.6c0,2,0.2,3.9,0.7,5.9c-0.2,0.1-0.5,0.2-0.7,0.3l-3.7-2.7c-0.5-0.3-1.1-0.3-1.5,0.1l-4.8,4.8
				c-0.4,0.4-0.4,1-0.1,1.5l2.7,3.7c-0.3,0.5-0.5,1.1-0.7,1.6l-4.5,0.8c-0.6,0.1-1,0.6-1,1.1v6.9c0,0.6,0.4,1,1,1.1l4.5,0.8
				c0.2,0.5,0.4,1.1,0.7,1.6l-2.7,3.7c-0.3,0.5-0.3,1.1,0.1,1.5l4.8,4.8c0.4,0.4,1,0.4,1.5,0.1l3.7-2.7c0.5,0.2,1.1,0.5,1.6,0.7
				l0.8,4.5c0.1,0.6,0.6,1,1.1,1h8v3.4c0,1.9,1.5,3.4,3.4,3.4h11.4c1.9,0,3.4-1.5,3.4-3.4v-3.4h8c0.6,0,1-0.4,1.1-1L94,97
				c0.5-0.2,1.1-0.4,1.6-0.7l3.7,2.7c0.5,0.3,1.1,0.3,1.5-0.1l4.8-4.8c0.4-0.4,0.4-1,0.1-1.5l-2.7-3.7c0.3-0.5,0.5-1.1,0.7-1.6
				l4.5-0.8c0.6-0.1,1-0.6,1-1.1v-6.9C109.3,77.9,108.9,77.4,108.3,77.3L108.3,77.3z M75,43c10.1,0,18.3,8.2,18.3,18.3
				c0,7.4-2.8,10.5-5.2,13.3c-1.8,2.1-3.5,4.1-3.9,7.3h-8.1V75h1.1c0.6,0,1.1-0.5,1.1-1.1l0,0c0-0.6-0.5-1.1-1.1-1.1h-4.6
				c-0.6,0-1.1,0.5-1.1,1.1l0,0c0,0.6,0.5,1.1,1.1,1.1h1.1v6.9h-8.1c-0.3-3.2-2.1-5.2-3.9-7.3c-2.4-2.8-5.2-6-5.2-13.3
				C56.7,51.2,64.9,43,75,43L75,43z M61.5,100.2h-2.7l-0.7-4.3c-0.1-0.4-0.4-0.8-0.8-0.9c-0.9-0.3-1.7-0.6-2.5-1
				c-0.4-0.2-0.8-0.2-1.2,0.1l-3.5,2.5l-3.5-3.5l2.5-3.5c0.3-0.4,0.3-0.8,0.1-1.2c-0.4-0.8-0.8-1.6-1-2.5c-0.1-0.4-0.5-0.7-0.9-0.8
				L43,84.3v-4.9l4.3-0.7c0.4-0.1,0.8-0.4,0.9-0.8c0.3-0.9,0.6-1.7,1-2.5c0.2-0.4,0.2-0.9-0.1-1.2l-2.5-3.5l3.5-3.5l3.5,2.5
				c0.4,0.3,0.8,0.3,1.2,0.1c0.3-0.2,0.6-0.3,1-0.5c0.4,1.1,0.9,2.1,1.5,3.1c-4.5,1.9-7.1,6.7-6.1,11.5c1,4.8,5.2,8.3,10.1,8.3
				c0.3,0,0.6,0,0.8-0.1c0,0,0,0,0,0.1c-0.6,0.6-0.9,1.4-0.9,2.3V99C61.3,99.4,61.3,99.8,61.5,100.2L61.5,100.2z M61.3,85.3v4.6
				c-3.9,0-7.3-2.8-7.9-6.7c-0.6-3.9,1.6-7.6,5.3-8.9c0.5,0.6,1,1.2,1.5,1.8c1.7,1.9,3,3.5,3.3,6C62.2,82.6,61.3,83.9,61.3,85.3
				L61.3,85.3z M81.9,105.9c0,0.6-0.5,1.1-1.1,1.1H69.3c-0.6,0-1.1-0.5-1.1-1.1v-3.4h13.7V105.9z M86.4,99c0,0.6-0.5,1.1-1.1,1.1
				H64.7c-0.6,0-1.1-0.5-1.1-1.1v-4.6c0-0.6,0.5-1.1,1.1-1.1h20.6c0.6,0,1.1,0.5,1.1,1.1V99z M86.4,89.9c0,0.6-0.5,1.1-1.1,1.1H64.7
				c-0.6,0-1.1-0.5-1.1-1.1v-4.6c0-0.6,0.5-1.1,1.1-1.1h20.6c0.6,0,1.1,0.5,1.1,1.1V89.9z M86.5,82.1c0.3-2.5,1.6-4.1,3.3-6
				c0.5-0.6,1-1.1,1.5-1.8c3.7,1.3,5.9,5,5.3,8.9c-0.6,3.9-4,6.7-7.9,6.7v-4.6C88.7,83.9,87.8,82.6,86.5,82.1L86.5,82.1z M107,84.3
				l-4.3,0.7c-0.4,0.1-0.8,0.4-0.9,0.8c-0.3,0.9-0.6,1.7-1,2.5c-0.2,0.4-0.2,0.9,0.1,1.2l2.5,3.5l-3.5,3.5L96.4,94
				c-0.4-0.3-0.8-0.3-1.2-0.1c-0.8,0.4-1.6,0.8-2.5,1c-0.4,0.1-0.7,0.5-0.8,0.9l-0.7,4.3h-2.7c0.1-0.4,0.2-0.8,0.2-1.1v-4.6
				c0-0.8-0.3-1.7-0.9-2.3c0,0,0,0,0-0.1c0.3,0,0.6,0.1,0.8,0.1c4.9,0,9.1-3.5,10.1-8.3c1-4.8-1.6-9.6-6.1-11.5c0.6-1,1.1-2,1.5-3.1
				c0.3,0.1,0.6,0.3,1,0.5c0.4,0.2,0.8,0.2,1.2-0.1l3.5-2.5l3.5,3.5l-2.5,3.5c-0.3,0.4-0.3,0.8-0.1,1.2c0.4,0.8,0.8,1.6,1,2.5
				c0.1,0.4,0.5,0.7,0.9,0.8l4.3,0.7V84.3z M107,84.3"/>
		</g>
	</g>
</g>
</svg>
