<?xml version="1.0" encoding="utf-8"?>
<!-- Generator: Adobe Illustrator 22.0.1, SVG Export Plug-In . SVG Version: 6.00 Build 0)  -->
<svg version="1.1" id="Capa_1" xmlns="http://www.w3.org/2000/svg" xmlns:xlink="http://www.w3.org/1999/xlink" x="0px" y="0px"
	 viewBox="0 0 260 260" style="enable-background:new 0 0 260 260;" xml:space="preserve">
<style type="text/css">
	.st0{fill:#DFE2E4;}
	.st1{fill:url(#SVGID_1_);}
	.st2{fill:#FFFFFF;}
	.st3{fill:#CECECE;}
	.st4{fill:#323436;}
	.st5{fill:#00D1FD;}
	.st6{fill:#FF6B82;}
	.st7{fill:#FFD867;}
	.st8{fill:#15E0DC;}
	.st9{fill:#B3B3B3;}
	.st10{fill:#CCCCCC;}
	.st11{fill:#0078F3;}
	.st12{fill:#B7EFFF;}
	.st13{fill:#39B54A;}
	.st14{fill:#FFB500;}
	.st15{fill:#10181B;}
</style>
<g>
	<g>
		<path class="st0" d="M11.8,103.9C16,62.6,50.2,13.4,145,27.4c59.2,8.7,121.5,53.5,94.6,123.3c-22.7,58.9-64,121.3-124.8,104.5
			C75.3,244.3,5.2,166.7,11.8,103.9z"/>
		<linearGradient id="SVGID_1_" gradientUnits="userSpaceOnUse" x1="50.2805" y1="216.6502" x2="212.3743" y2="54.5563">
			<stop  offset="0" style="stop-color:#00BBFF"/>
			<stop  offset="0.3827" style="stop-color:#00ADFF"/>
			<stop  offset="1" style="stop-color:#008EFF"/>
		</linearGradient>
		<path class="st1" d="M248.7,158c-0.5,46.4-48.2,99.8-143.9,82.8c-30.8-5.5-65.6-26.9-80.1-55.4c-13.6-26.7-8.2-59.7,0.4-90.2
			C42.8,32.2,114.5-21.3,169,12.5c16.5,10.2,22.7,33.9,39.3,62C222.9,99.3,249,127.3,248.7,158z"/>
	</g>
	<g>
		<path class="st2" d="M190.5,208.3h-121c-3.8,0-6.9-3.1-6.9-6.9v-121c0-3.8,3.1-6.9,6.9-6.9h121c3.8,0,6.9,3.1,6.9,6.9v121
			C197.4,205.2,194.3,208.3,190.5,208.3L190.5,208.3z M190.5,208.3"/>
		<path class="st3" d="M197.4,80.4"/>
		<path class="st4" d="M197.4,97.1H62.6V80.4c0-3.8,3.1-6.9,6.9-6.9h121c3.8,0,6.9,3.1,6.9,6.9V97.1z M197.4,97.1"/>
		<path class="st5" d="M197.4,80.4"/>
		<path class="st6" d="M79.3,85.2c0,2.2-1.8,3.9-3.9,3.9c-2.2,0-3.9-1.8-3.9-3.9c0-2.2,1.8-3.9,3.9-3.9
			C77.6,81.3,79.3,83.1,79.3,85.2L79.3,85.2z M79.3,85.2"/>
		<path class="st7" d="M94.5,85.2c0,2.2-1.8,3.9-3.9,3.9c-2.2,0-3.9-1.8-3.9-3.9c0-2.2,1.8-3.9,3.9-3.9
			C92.8,81.3,94.5,83.1,94.5,85.2L94.5,85.2z M94.5,85.2"/>
		<path class="st8" d="M109.7,85.2c0,2.2-1.8,3.9-3.9,3.9c-2.2,0-3.9-1.8-3.9-3.9c0-2.2,1.8-3.9,3.9-3.9
			C108,81.3,109.7,83.1,109.7,85.2L109.7,85.2z M109.7,85.2"/>
		<path class="st9" d="M119.7,193.7H80.4c-2.4,0-4.4-2-4.4-4.4v-20c0-2.4,2-4.4,4.4-4.4h39.4c2.4,0,4.4,2,4.4,4.4v20
			C124.1,191.7,122.2,193.7,119.7,193.7L119.7,193.7z M119.7,193.7"/>
		<path class="st10" d="M179.3,193.7h-39.4c-2.4,0-4.4-2-4.4-4.4v-20c0-2.4,2-4.4,4.4-4.4h39.4c2.4,0,4.4,2,4.4,4.4v20
			C183.7,191.7,181.8,193.7,179.3,193.7L179.3,193.7z M179.3,193.7"/>
		<path class="st11" d="M183.7,169.3"/>
		<path class="st12" d="M179.3,155.2H80.4c-2.4,0-4.4-2-4.4-4.4v-37.3c0-2.4,2-4.4,4.4-4.4h98.9c2.4,0,4.4,2,4.4,4.4v37.3
			C183.7,153.2,181.7,155.2,179.3,155.2L179.3,155.2z M179.3,155.2"/>
		<path class="st13" d="M87.9,154.9l29.9-29.9c0.5-0.5,1.4-0.5,1.9,0.1l26.5,29.8H87.9z M87.9,154.9"/>
		<path class="st13" d="M124.6,154.9l24-24c0.5-0.5,1.4-0.5,1.9,0.1l21.2,23.9H124.6z M124.6,154.9"/>
		<path class="st7" d="M169.6,122.1c0,3.2-2.6,5.7-5.7,5.7c-3.2,0-5.7-2.6-5.7-5.7c0-3.2,2.6-5.7,5.7-5.7
			C167,116.4,169.6,119,169.6,122.1L169.6,122.1z M169.6,122.1"/>
		<path class="st14" d="M169.6,122.1"/>
		<path class="st15" d="M75.4,79.3c-3.3,0-6,2.7-6,6c0,3.3,2.7,6,6,6c3.3,0,6-2.7,6-6C81.4,81.9,78.7,79.3,75.4,79.3L75.4,79.3z
			 M75.4,87.1c-1,0-1.9-0.9-1.9-1.9c0-1,0.9-1.9,1.9-1.9c1,0,1.9,0.9,1.9,1.9C77.3,86.3,76.4,87.1,75.4,87.1L75.4,87.1z M75.4,87.1"
			/>
		<path class="st15" d="M90.6,79.3c-3.3,0-6,2.7-6,6c0,3.3,2.7,6,6,6c3.3,0,6-2.7,6-6C96.6,81.9,93.9,79.3,90.6,79.3L90.6,79.3z
			 M90.6,87.1c-1,0-1.9-0.9-1.9-1.9c0-1,0.9-1.9,1.9-1.9c1,0,1.9,0.9,1.9,1.9C92.5,86.3,91.7,87.1,90.6,87.1L90.6,87.1z M90.6,87.1"
			/>
		<path class="st15" d="M105.8,79.3c-3.3,0-6,2.7-6,6c0,3.3,2.7,6,6,6c3.3,0,6-2.7,6-6C111.8,81.9,109.1,79.3,105.8,79.3L105.8,79.3
			z M105.8,87.1c-1,0-1.9-0.9-1.9-1.9c0-1,0.9-1.9,1.9-1.9c1,0,1.9,0.9,1.9,1.9C107.7,86.3,106.9,87.1,105.8,87.1L105.8,87.1z
			 M105.8,87.1"/>
		<path class="st15" d="M190.5,71.4h-121c-4.9,0-9,4-9,9v121c0,4.9,4,9,9,9h121c4.9,0,9-4,9-9v-30.8c0-1.1-0.9-2-2-2
			c-1.1,0-2,0.9-2,2v30.8c0,2.7-2.2,4.9-4.9,4.9h-121c-2.7,0-4.9-2.2-4.9-4.9V99.1h130.8V158c0,1.1,0.9,2,2,2c1.1,0,2-0.9,2-2V80.4
			C199.5,75.5,195.4,71.4,190.5,71.4L190.5,71.4z M195.4,95.1H64.6V80.4c0-2.7,2.2-4.9,4.9-4.9h121c2.7,0,4.9,2.2,4.9,4.9V95.1z
			 M195.4,95.1"/>
		<path class="st15" d="M185.8,113.5c0-3.5-2.9-6.4-6.4-6.4H80.4c-3.5,0-6.4,2.9-6.4,6.4v12c0,1.1,0.9,2,2,2c1.1,0,2-0.9,2-2v-12
			c0-1.3,1.1-2.4,2.4-2.4h98.9c1.3,0,2.4,1.1,2.4,2.4v37.3c0,1.3-1.1,2.4-2.4,2.4h-6.4L152,129.6c-0.6-0.7-1.5-1.1-2.4-1.1
			c-0.9,0-1.8,0.3-2.5,1l-11.1,11l-14.9-16.8c-0.6-0.7-1.5-1.1-2.4-1.1c-0.9,0-1.8,0.3-2.5,1l-29.6,29.5h-6.4
			c-1.3,0-2.4-1.1-2.4-2.4v-12.5c0-1.1-0.9-2-2-2c-1.1,0-2,0.9-2,2v12.5c0,3.5,2.9,6.4,6.4,6.4h98.9c3.5,0,6.4-2.9,6.4-6.4V113.5z
			 M92.6,153.1l26.1-26.1l19.8,22.3c0.7,0.8,2,0.9,2.9,0.2c0.8-0.7,0.9-2,0.2-2.9l-2.7-3.1l10.7-10.7l18,20.2H92.6z M92.6,153.1"/>
		<path class="st15" d="M80.4,162.9c-3.5,0-6.4,2.9-6.4,6.4v20c0,3.5,2.9,6.4,6.4,6.4h39.4c3.5,0,6.4-2.9,6.4-6.4v-20
			c0-3.5-2.9-6.4-6.4-6.4H80.4z M122.1,169.3v20c0,1.3-1.1,2.4-2.4,2.4H80.4c-1.3,0-2.4-1.1-2.4-2.4v-20c0-1.3,1.1-2.4,2.4-2.4h39.4
			C121.1,167,122.1,168,122.1,169.3L122.1,169.3z M122.1,169.3"/>
		<path class="st15" d="M139.9,162.9c-3.5,0-6.4,2.9-6.4,6.4v20c0,3.5,2.9,6.4,6.4,6.4h39.4c3.5,0,6.4-2.9,6.4-6.4v-20
			c0-3.5-2.9-6.4-6.4-6.4H139.9z M181.7,189.3c0,1.3-1.1,2.4-2.4,2.4h-39.4c-1.3,0-2.4-1.1-2.4-2.4v-20c0-1.3,1.1-2.4,2.4-2.4h39.4
			c1.3,0,2.4,1.1,2.4,2.4l0,0 M181.7,169.3"/>
		<path class="st15" d="M84.3,174.6h5.5c1.1,0,2-0.9,2-2c0-1.1-0.9-2-2-2h-5.5c-1.1,0-2,0.9-2,2C82.3,173.7,83.2,174.6,84.3,174.6
			L84.3,174.6z M84.3,174.6"/>
		<path class="st15" d="M84.3,181.5h2.9c1.1,0,2-0.9,2-2c0-1.1-0.9-2-2-2h-2.9c-1.1,0-2,0.9-2,2C82.3,180.6,83.2,181.5,84.3,181.5
			L84.3,181.5z M84.3,181.5"/>
		<path class="st15" d="M115.8,177.5h-7.6c-1.1,0-2,0.9-2,2c0,1.1,0.9,2,2,2h7.6c1.1,0,2-0.9,2-2
			C117.8,178.4,116.9,177.5,115.8,177.5L115.8,177.5z M115.8,177.5"/>
		<path class="st15" d="M96.8,174.6h18.5c1.1,0,2-0.9,2-2c0-1.1-0.9-2-2-2H96.8c-1.1,0-2,0.9-2,2C94.8,173.7,95.7,174.6,96.8,174.6
			L96.8,174.6z M96.8,174.6"/>
		<path class="st15" d="M115.3,184h-5.5c-1.1,0-2,0.9-2,2c0,1.1,0.9,2,2,2h5.5c1.1,0,2-0.9,2-2C117.3,184.9,116.4,184,115.3,184
			L115.3,184z M115.3,184"/>
		<path class="st15" d="M102.8,184H84.3c-1.1,0-2,0.9-2,2c0,1.1,0.9,2,2,2h18.5c1.1,0,2-0.9,2-2C104.8,184.9,103.9,184,102.8,184
			L102.8,184z M102.8,184"/>
		<path class="st15" d="M93.5,181.5h7.9c1.1,0,2-0.9,2-2c0-1.1-0.9-2-2-2h-7.9c-1.1,0-2,0.9-2,2C91.5,180.6,92.4,181.5,93.5,181.5
			L93.5,181.5z M93.5,181.5"/>
		<path class="st15" d="M143.9,174.6h5.5c1.1,0,2-0.9,2-2c0-1.1-0.9-2-2-2h-5.5c-1.1,0-2,0.9-2,2
			C141.9,173.7,142.8,174.6,143.9,174.6L143.9,174.6z M143.9,174.6"/>
		<path class="st15" d="M143.9,181.5h2.9c1.1,0,2-0.9,2-2c0-1.1-0.9-2-2-2h-2.9c-1.1,0-2,0.9-2,2
			C141.9,180.6,142.8,181.5,143.9,181.5L143.9,181.5z M143.9,181.5"/>
		<path class="st15" d="M175.4,177.5h-7.6c-1.1,0-2,0.9-2,2c0,1.1,0.9,2,2,2h7.6c1.1,0,2-0.9,2-2
			C177.4,178.4,176.5,177.5,175.4,177.5L175.4,177.5z M175.4,177.5"/>
		<path class="st15" d="M156.4,174.6h18.5c1.1,0,2-0.9,2-2c0-1.1-0.9-2-2-2h-18.5c-1.1,0-2,0.9-2,2
			C154.3,173.7,155.3,174.6,156.4,174.6L156.4,174.6z M156.4,174.6"/>
		<path class="st15" d="M174.8,184h-5.5c-1.1,0-2,0.9-2,2c0,1.1,0.9,2,2,2h5.5c1.1,0,2-0.9,2-2C176.9,184.9,176,184,174.8,184
			L174.8,184z M174.8,184"/>
		<path class="st15" d="M162.3,184h-18.5c-1.1,0-2,0.9-2,2c0,1.1,0.9,2,2,2h18.5c1.1,0,2-0.9,2-2C164.4,184.9,163.5,184,162.3,184
			L162.3,184z M162.3,184"/>
		<path class="st15" d="M153.1,181.5h7.9c1.1,0,2-0.9,2-2c0-1.1-0.9-2-2-2h-7.9c-1.1,0-2,0.9-2,2C151,180.6,151.9,181.5,153.1,181.5
			L153.1,181.5z M153.1,181.5"/>
		<path class="st15" d="M171.6,122.1c0-4.3-3.5-7.8-7.8-7.8c-4.3,0-7.8,3.5-7.8,7.8c0,4.3,3.5,7.8,7.8,7.8
			C168.1,129.9,171.6,126.4,171.6,122.1L171.6,122.1z M160.2,122.1c0-2,1.7-3.7,3.7-3.7c2,0,3.7,1.7,3.7,3.7c0,2-1.7,3.7-3.7,3.7
			C161.8,125.8,160.2,124.2,160.2,122.1L160.2,122.1z M160.2,122.1"/>
	</g>
</g>
</svg>
