<?xml version="1.0" encoding="utf-8"?>
<!-- Generator: Adobe Illustrator 22.0.1, SVG Export Plug-In . SVG Version: 6.00 Build 0)  -->
<svg version="1.1" id="Capa_1" xmlns="http://www.w3.org/2000/svg" xmlns:xlink="http://www.w3.org/1999/xlink" x="0px" y="0px"
	 viewBox="0 0 600.3 66.9" style="enable-background:new 0 0 600.3 66.9;" xml:space="preserve">
<style type="text/css">
	.st0{fill:#CACCCE;}
</style>
<g>
	<g>
		<rect x="595.9" y="63.6" class="st0" width="4" height="3"/>
	</g>
	<g>
		<path class="st0" d="M599.9,57.4h-4v-6.2h4V57.4z M599.9,45h-4v-6.2h4V45z"/>
	</g>
	<g>
		<polygon class="st0" points="599.9,32.6 595.9,32.6 595.9,31.6 594.9,31.6 594.9,27.6 599.9,27.6 		"/>
	</g>
	<g>
		<path class="st0" d="M588.9,31.6h-6v-4h6V31.6z M577,31.6h-6v-4h6V31.6z M565.1,31.6h-6v-4h6V31.6z M553.1,31.6h-6v-4h6V31.6z
			 M541.2,31.6h-6v-4h6V31.6z M529.3,31.6h-6v-4h6V31.6z M517.4,31.6h-6v-4h6V31.6z M505.5,31.6h-6v-4h6V31.6z M493.5,31.6h-6v-4h6
			V31.6z M481.6,31.6h-6v-4h6V31.6z M469.7,31.6h-6v-4h6V31.6z M457.8,31.6h-6v-4h6V31.6z M445.9,31.6h-6v-4h6V31.6z M434,31.6h-6
			v-4h6V31.6z M422,31.6h-6v-4h6V31.6z M410.1,31.6h-6v-4h6V31.6z M398.2,31.6h-6v-4h6V31.6z M386.3,31.6h-6v-4h6V31.6z M374.4,31.6
			h-6v-4h6V31.6z M362.4,31.6h-6v-4h6V31.6z M350.5,31.6h-6v-4h6V31.6z M338.6,31.6h-6v-4h6V31.6z M326.7,31.6h-6v-4h6V31.6z
			 M314.8,31.6h-6v-4h6V31.6z M302.8,31.6h-6v-4h6V31.6z M290.9,31.6h-6v-4h6V31.6z M279,31.6h-6v-4h6V31.6z M267.1,31.6h-6v-4h6
			V31.6z M255.2,31.6h-6v-4h6V31.6z M243.2,31.6h-6v-4h6V31.6z M231.3,31.6h-6v-4h6V31.6z M219.4,31.6h-6v-4h6V31.6z M207.5,31.6h-6
			v-4h6V31.6z M195.6,31.6h-6v-4h6V31.6z M183.6,31.6h-6v-4h6V31.6z M171.7,31.6h-6v-4h6V31.6z M159.8,31.6h-6v-4h6V31.6z
			 M147.9,31.6h-6v-4h6V31.6z M136,31.6h-6v-4h6V31.6z M124.1,31.6h-6v-4h6V31.6z M112.1,31.6h-6v-4h6V31.6z M100.2,31.6h-6v-4h6
			V31.6z M88.3,31.6h-6v-4h6V31.6z M76.4,31.6h-6v-4h6V31.6z M64.5,31.6h-6v-4h6V31.6z M52.5,31.6h-6v-4h6V31.6z M40.6,31.6h-6v-4h6
			V31.6z M28.7,31.6h-6v-4h6V31.6z M16.8,31.6h-6v-4h6V31.6z"/>
	</g>
	<g>
		<polygon class="st0" points="3.9,32.6 -0.1,32.6 -0.1,27.6 4.9,27.6 4.9,31.6 3.9,31.6 		"/>
	</g>
	<g>
		<path class="st0" d="M3.9,57.4h-4v-6.2h4V57.4z M3.9,45h-4v-6.2h4V45z"/>
	</g>
	<g>
		<rect x="-0.1" y="63.6" class="st0" width="4" height="3"/>
	</g>
</g>
<g>
	<path class="st0" d="M301.9,29.6h-4v-6h4V29.6z M301.9,17.6h-4v-6h4V17.6z M301.9,5.6h-4v-6h4V5.6z"/>
</g>
</svg>
